<svg width="430" height="932" viewBox="0 0 430 932" fill="none" xmlns="http://www.w3.org/2000/svg">
<g clip-path="url(#clip0_4_41)">
<rect width="430" height="932" fill="white"/>
<g filter="url(#filter0_d_4_41)">
<rect x="34" y="43" width="362" height="58" rx="20" fill="black"/>
<path d="M189.59 81.2402V84H176.793V81.2402H189.59ZM177.461 58.4062V84H174.068V58.4062H177.461ZM192.121 74.7012V74.2969C192.121 72.9258 192.32 71.6543 192.719 70.4824C193.117 69.2988 193.691 68.2734 194.441 67.4062C195.191 66.5273 196.1 65.8477 197.166 65.3672C198.232 64.875 199.428 64.6289 200.752 64.6289C202.088 64.6289 203.289 64.875 204.355 65.3672C205.434 65.8477 206.348 66.5273 207.098 67.4062C207.859 68.2734 208.439 69.2988 208.838 70.4824C209.236 71.6543 209.436 72.9258 209.436 74.2969V74.7012C209.436 76.0723 209.236 77.3438 208.838 78.5156C208.439 79.6875 207.859 80.7129 207.098 81.5918C206.348 82.459 205.439 83.1387 204.373 83.6309C203.318 84.1113 202.123 84.3516 200.787 84.3516C199.451 84.3516 198.25 84.1113 197.184 83.6309C196.117 83.1387 195.203 82.459 194.441 81.5918C193.691 80.7129 193.117 79.6875 192.719 78.5156C192.32 77.3438 192.121 76.0723 192.121 74.7012ZM195.373 74.2969V74.7012C195.373 75.6504 195.484 76.5469 195.707 77.3906C195.93 78.2227 196.264 78.9609 196.709 79.6055C197.166 80.25 197.734 80.7598 198.414 81.1348C199.094 81.498 199.885 81.6797 200.787 81.6797C201.678 81.6797 202.457 81.498 203.125 81.1348C203.805 80.7598 204.367 80.25 204.812 79.6055C205.258 78.9609 205.592 78.2227 205.814 77.3906C206.049 76.5469 206.166 75.6504 206.166 74.7012V74.2969C206.166 73.3594 206.049 72.4746 205.814 71.6426C205.592 70.7988 205.252 70.0547 204.795 69.4102C204.35 68.7539 203.787 68.2383 203.107 67.8633C202.439 67.4883 201.654 67.3008 200.752 67.3008C199.861 67.3008 199.076 67.4883 198.396 67.8633C197.729 68.2383 197.166 68.7539 196.709 69.4102C196.264 70.0547 195.93 70.7988 195.707 71.6426C195.484 72.4746 195.373 73.3594 195.373 74.2969ZM225.836 64.9805H228.789V83.5957C228.789 85.2715 228.449 86.7012 227.77 87.8848C227.09 89.0684 226.141 89.9648 224.922 90.5742C223.715 91.1953 222.32 91.5059 220.738 91.5059C220.082 91.5059 219.309 91.4004 218.418 91.1895C217.539 90.9902 216.672 90.6445 215.816 90.1523C214.973 89.6719 214.264 89.0215 213.689 88.2012L215.395 86.2676C216.191 87.2285 217.023 87.8965 217.891 88.2715C218.77 88.6465 219.637 88.834 220.492 88.834C221.523 88.834 222.414 88.6406 223.164 88.2539C223.914 87.8672 224.494 87.293 224.904 86.5312C225.326 85.7812 225.537 84.8555 225.537 83.7539V69.1641L225.836 64.9805ZM212.74 74.7012V74.332C212.74 72.8789 212.91 71.5605 213.25 70.377C213.602 69.1816 214.1 68.1562 214.744 67.3008C215.4 66.4453 216.191 65.7891 217.117 65.332C218.043 64.8633 219.086 64.6289 220.246 64.6289C221.441 64.6289 222.484 64.8398 223.375 65.2617C224.277 65.6719 225.039 66.2754 225.66 67.0723C226.293 67.8574 226.791 68.8066 227.154 69.9199C227.518 71.0332 227.77 72.293 227.91 73.6992V75.3164C227.781 76.7109 227.529 77.9648 227.154 79.0781C226.791 80.1914 226.293 81.1406 225.66 81.9258C225.039 82.7109 224.277 83.3145 223.375 83.7363C222.473 84.1465 221.418 84.3516 220.211 84.3516C219.074 84.3516 218.043 84.1113 217.117 83.6309C216.203 83.1504 215.418 82.4766 214.762 81.6094C214.105 80.7422 213.602 79.7227 213.25 78.5508C212.91 77.3672 212.74 76.084 212.74 74.7012ZM215.992 74.332V74.7012C215.992 75.6504 216.086 76.541 216.273 77.373C216.473 78.2051 216.771 78.9375 217.17 79.5703C217.58 80.2031 218.102 80.7012 218.734 81.0645C219.367 81.416 220.123 81.5918 221.002 81.5918C222.08 81.5918 222.971 81.3633 223.674 80.9062C224.377 80.4492 224.934 79.8457 225.344 79.0957C225.766 78.3457 226.094 77.5312 226.328 76.6523V72.416C226.199 71.7715 226 71.1504 225.73 70.5527C225.473 69.9434 225.133 69.4043 224.711 68.9355C224.301 68.4551 223.791 68.0742 223.182 67.793C222.572 67.5117 221.857 67.3711 221.037 67.3711C220.146 67.3711 219.379 67.5586 218.734 67.9336C218.102 68.2969 217.58 68.8008 217.17 69.4453C216.771 70.0781 216.473 70.8164 216.273 71.6602C216.086 72.4922 215.992 73.3828 215.992 74.332ZM237.262 64.9805V84H233.992V64.9805H237.262ZM233.746 59.9355C233.746 59.4082 233.904 58.9629 234.221 58.5996C234.549 58.2363 235.029 58.0547 235.662 58.0547C236.283 58.0547 236.758 58.2363 237.086 58.5996C237.426 58.9629 237.596 59.4082 237.596 59.9355C237.596 60.4395 237.426 60.873 237.086 61.2363C236.758 61.5879 236.283 61.7637 235.662 61.7637C235.029 61.7637 234.549 61.5879 234.221 61.2363C233.904 60.873 233.746 60.4395 233.746 59.9355ZM245.734 69.041V84H242.482V64.9805H245.559L245.734 69.041ZM244.961 73.7695L243.607 73.7168C243.619 72.416 243.812 71.2148 244.188 70.1133C244.562 69 245.09 68.0332 245.77 67.2129C246.449 66.3926 247.258 65.7598 248.195 65.3145C249.145 64.8574 250.193 64.6289 251.342 64.6289C252.279 64.6289 253.123 64.7578 253.873 65.0156C254.623 65.2617 255.262 65.6602 255.789 66.2109C256.328 66.7617 256.738 67.4766 257.02 68.3555C257.301 69.2227 257.441 70.2832 257.441 71.5371V84H254.172V71.502C254.172 70.5059 254.025 69.709 253.732 69.1113C253.439 68.502 253.012 68.0625 252.449 67.793C251.887 67.5117 251.195 67.3711 250.375 67.3711C249.566 67.3711 248.828 67.541 248.16 67.8809C247.504 68.2207 246.936 68.6895 246.455 69.2871C245.986 69.8848 245.617 70.5703 245.348 71.3438C245.09 72.1055 244.961 72.9141 244.961 73.7695Z" fill="white"/>
</g>
<g filter="url(#filter1_d_4_41)">
<rect x="34" y="359" width="362" height="58" rx="20" fill="white"/>
<path d="M189.59 397.24V400H176.793V397.24H189.59ZM177.461 374.406V400H174.068V374.406H177.461ZM192.121 390.701V390.297C192.121 388.926 192.32 387.654 192.719 386.482C193.117 385.299 193.691 384.273 194.441 383.406C195.191 382.527 196.1 381.848 197.166 381.367C198.232 380.875 199.428 380.629 200.752 380.629C202.088 380.629 203.289 380.875 204.355 381.367C205.434 381.848 206.348 382.527 207.098 383.406C207.859 384.273 208.439 385.299 208.838 386.482C209.236 387.654 209.436 388.926 209.436 390.297V390.701C209.436 392.072 209.236 393.344 208.838 394.516C208.439 395.688 207.859 396.713 207.098 397.592C206.348 398.459 205.439 399.139 204.373 399.631C203.318 400.111 202.123 400.352 200.787 400.352C199.451 400.352 198.25 400.111 197.184 399.631C196.117 399.139 195.203 398.459 194.441 397.592C193.691 396.713 193.117 395.688 192.719 394.516C192.32 393.344 192.121 392.072 192.121 390.701ZM195.373 390.297V390.701C195.373 391.65 195.484 392.547 195.707 393.391C195.93 394.223 196.264 394.961 196.709 395.605C197.166 396.25 197.734 396.76 198.414 397.135C199.094 397.498 199.885 397.68 200.787 397.68C201.678 397.68 202.457 397.498 203.125 397.135C203.805 396.76 204.367 396.25 204.812 395.605C205.258 394.961 205.592 394.223 205.814 393.391C206.049 392.547 206.166 391.65 206.166 390.701V390.297C206.166 389.359 206.049 388.475 205.814 387.643C205.592 386.799 205.252 386.055 204.795 385.41C204.35 384.754 203.787 384.238 203.107 383.863C202.439 383.488 201.654 383.301 200.752 383.301C199.861 383.301 199.076 383.488 198.396 383.863C197.729 384.238 197.166 384.754 196.709 385.41C196.264 386.055 195.93 386.799 195.707 387.643C195.484 388.475 195.373 389.359 195.373 390.297ZM225.836 380.98H228.789V399.596C228.789 401.271 228.449 402.701 227.77 403.885C227.09 405.068 226.141 405.965 224.922 406.574C223.715 407.195 222.32 407.506 220.738 407.506C220.082 407.506 219.309 407.4 218.418 407.189C217.539 406.99 216.672 406.645 215.816 406.152C214.973 405.672 214.264 405.021 213.689 404.201L215.395 402.268C216.191 403.229 217.023 403.896 217.891 404.271C218.77 404.646 219.637 404.834 220.492 404.834C221.523 404.834 222.414 404.641 223.164 404.254C223.914 403.867 224.494 403.293 224.904 402.531C225.326 401.781 225.537 400.855 225.537 399.754V385.164L225.836 380.98ZM212.74 390.701V390.332C212.74 388.879 212.91 387.561 213.25 386.377C213.602 385.182 214.1 384.156 214.744 383.301C215.4 382.445 216.191 381.789 217.117 381.332C218.043 380.863 219.086 380.629 220.246 380.629C221.441 380.629 222.484 380.84 223.375 381.262C224.277 381.672 225.039 382.275 225.66 383.072C226.293 383.857 226.791 384.807 227.154 385.92C227.518 387.033 227.77 388.293 227.91 389.699V391.316C227.781 392.711 227.529 393.965 227.154 395.078C226.791 396.191 226.293 397.141 225.66 397.926C225.039 398.711 224.277 399.314 223.375 399.736C222.473 400.146 221.418 400.352 220.211 400.352C219.074 400.352 218.043 400.111 217.117 399.631C216.203 399.15 215.418 398.477 214.762 397.609C214.105 396.742 213.602 395.723 213.25 394.551C212.91 393.367 212.74 392.084 212.74 390.701ZM215.992 390.332V390.701C215.992 391.65 216.086 392.541 216.273 393.373C216.473 394.205 216.771 394.938 217.17 395.57C217.58 396.203 218.102 396.701 218.734 397.064C219.367 397.416 220.123 397.592 221.002 397.592C222.08 397.592 222.971 397.363 223.674 396.906C224.377 396.449 224.934 395.846 225.344 395.096C225.766 394.346 226.094 393.531 226.328 392.652V388.416C226.199 387.771 226 387.15 225.73 386.553C225.473 385.943 225.133 385.404 224.711 384.936C224.301 384.455 223.791 384.074 223.182 383.793C222.572 383.512 221.857 383.371 221.037 383.371C220.146 383.371 219.379 383.559 218.734 383.934C218.102 384.297 217.58 384.801 217.17 385.445C216.771 386.078 216.473 386.816 216.273 387.66C216.086 388.492 215.992 389.383 215.992 390.332ZM237.262 380.98V400H233.992V380.98H237.262ZM233.746 375.936C233.746 375.408 233.904 374.963 234.221 374.6C234.549 374.236 235.029 374.055 235.662 374.055C236.283 374.055 236.758 374.236 237.086 374.6C237.426 374.963 237.596 375.408 237.596 375.936C237.596 376.439 237.426 376.873 237.086 377.236C236.758 377.588 236.283 377.764 235.662 377.764C235.029 377.764 234.549 377.588 234.221 377.236C233.904 376.873 233.746 376.439 233.746 375.936ZM245.734 385.041V400H242.482V380.98H245.559L245.734 385.041ZM244.961 389.77L243.607 389.717C243.619 388.416 243.812 387.215 244.188 386.113C244.562 385 245.09 384.033 245.77 383.213C246.449 382.393 247.258 381.76 248.195 381.314C249.145 380.857 250.193 380.629 251.342 380.629C252.279 380.629 253.123 380.758 253.873 381.016C254.623 381.262 255.262 381.66 255.789 382.211C256.328 382.762 256.738 383.477 257.02 384.355C257.301 385.223 257.441 386.283 257.441 387.537V400H254.172V387.502C254.172 386.506 254.025 385.709 253.732 385.111C253.439 384.502 253.012 384.062 252.449 383.793C251.887 383.512 251.195 383.371 250.375 383.371C249.566 383.371 248.828 383.541 248.16 383.881C247.504 384.221 246.936 384.689 246.455 385.287C245.986 385.885 245.617 386.57 245.348 387.344C245.09 388.105 244.961 388.914 244.961 389.77Z" fill="black"/>
</g>
<g filter="url(#filter2_d_4_41)">
<rect x="34" y="438" width="181" height="58" rx="20" fill="white"/>
<path d="M99.5898 476.24V479H86.793V476.24H99.5898ZM87.4609 453.406V479H84.0684V453.406H87.4609ZM102.121 469.701V469.297C102.121 467.926 102.32 466.654 102.719 465.482C103.117 464.299 103.691 463.273 104.441 462.406C105.191 461.527 106.1 460.848 107.166 460.367C108.232 459.875 109.428 459.629 110.752 459.629C112.088 459.629 113.289 459.875 114.355 460.367C115.434 460.848 116.348 461.527 117.098 462.406C117.859 463.273 118.439 464.299 118.838 465.482C119.236 466.654 119.436 467.926 119.436 469.297V469.701C119.436 471.072 119.236 472.344 118.838 473.516C118.439 474.688 117.859 475.713 117.098 476.592C116.348 477.459 115.439 478.139 114.373 478.631C113.318 479.111 112.123 479.352 110.787 479.352C109.451 479.352 108.25 479.111 107.184 478.631C106.117 478.139 105.203 477.459 104.441 476.592C103.691 475.713 103.117 474.688 102.719 473.516C102.32 472.344 102.121 471.072 102.121 469.701ZM105.373 469.297V469.701C105.373 470.65 105.484 471.547 105.707 472.391C105.93 473.223 106.264 473.961 106.709 474.605C107.166 475.25 107.734 475.76 108.414 476.135C109.094 476.498 109.885 476.68 110.787 476.68C111.678 476.68 112.457 476.498 113.125 476.135C113.805 475.76 114.367 475.25 114.812 474.605C115.258 473.961 115.592 473.223 115.814 472.391C116.049 471.547 116.166 470.65 116.166 469.701V469.297C116.166 468.359 116.049 467.475 115.814 466.643C115.592 465.799 115.252 465.055 114.795 464.41C114.35 463.754 113.787 463.238 113.107 462.863C112.439 462.488 111.654 462.301 110.752 462.301C109.861 462.301 109.076 462.488 108.396 462.863C107.729 463.238 107.166 463.754 106.709 464.41C106.264 465.055 105.93 465.799 105.707 466.643C105.484 467.475 105.373 468.359 105.373 469.297ZM135.836 459.98H138.789V478.596C138.789 480.271 138.449 481.701 137.77 482.885C137.09 484.068 136.141 484.965 134.922 485.574C133.715 486.195 132.32 486.506 130.738 486.506C130.082 486.506 129.309 486.4 128.418 486.189C127.539 485.99 126.672 485.645 125.816 485.152C124.973 484.672 124.264 484.021 123.689 483.201L125.395 481.268C126.191 482.229 127.023 482.896 127.891 483.271C128.77 483.646 129.637 483.834 130.492 483.834C131.523 483.834 132.414 483.641 133.164 483.254C133.914 482.867 134.494 482.293 134.904 481.531C135.326 480.781 135.537 479.855 135.537 478.754V464.164L135.836 459.98ZM122.74 469.701V469.332C122.74 467.879 122.91 466.561 123.25 465.377C123.602 464.182 124.1 463.156 124.744 462.301C125.4 461.445 126.191 460.789 127.117 460.332C128.043 459.863 129.086 459.629 130.246 459.629C131.441 459.629 132.484 459.84 133.375 460.262C134.277 460.672 135.039 461.275 135.66 462.072C136.293 462.857 136.791 463.807 137.154 464.92C137.518 466.033 137.77 467.293 137.91 468.699V470.316C137.781 471.711 137.529 472.965 137.154 474.078C136.791 475.191 136.293 476.141 135.66 476.926C135.039 477.711 134.277 478.314 133.375 478.736C132.473 479.146 131.418 479.352 130.211 479.352C129.074 479.352 128.043 479.111 127.117 478.631C126.203 478.15 125.418 477.477 124.762 476.609C124.105 475.742 123.602 474.723 123.25 473.551C122.91 472.367 122.74 471.084 122.74 469.701ZM125.992 469.332V469.701C125.992 470.65 126.086 471.541 126.273 472.373C126.473 473.205 126.771 473.938 127.17 474.57C127.58 475.203 128.102 475.701 128.734 476.064C129.367 476.416 130.123 476.592 131.002 476.592C132.08 476.592 132.971 476.363 133.674 475.906C134.377 475.449 134.934 474.846 135.344 474.096C135.766 473.346 136.094 472.531 136.328 471.652V467.416C136.199 466.771 136 466.15 135.73 465.553C135.473 464.943 135.133 464.404 134.711 463.936C134.301 463.455 133.791 463.074 133.182 462.793C132.572 462.512 131.857 462.371 131.037 462.371C130.146 462.371 129.379 462.559 128.734 462.934C128.102 463.297 127.58 463.801 127.17 464.445C126.771 465.078 126.473 465.816 126.273 466.66C126.086 467.492 125.992 468.383 125.992 469.332ZM147.262 459.98V479H143.992V459.98H147.262ZM143.746 454.936C143.746 454.408 143.904 453.963 144.221 453.6C144.549 453.236 145.029 453.055 145.662 453.055C146.283 453.055 146.758 453.236 147.086 453.6C147.426 453.963 147.596 454.408 147.596 454.936C147.596 455.439 147.426 455.873 147.086 456.236C146.758 456.588 146.283 456.764 145.662 456.764C145.029 456.764 144.549 456.588 144.221 456.236C143.904 455.873 143.746 455.439 143.746 454.936ZM155.734 464.041V479H152.482V459.98H155.559L155.734 464.041ZM154.961 468.77L153.607 468.717C153.619 467.416 153.812 466.215 154.188 465.113C154.562 464 155.09 463.033 155.77 462.213C156.449 461.393 157.258 460.76 158.195 460.314C159.145 459.857 160.193 459.629 161.342 459.629C162.279 459.629 163.123 459.758 163.873 460.016C164.623 460.262 165.262 460.66 165.789 461.211C166.328 461.762 166.738 462.477 167.02 463.355C167.301 464.223 167.441 465.283 167.441 466.537V479H164.172V466.502C164.172 465.506 164.025 464.709 163.732 464.111C163.439 463.502 163.012 463.062 162.449 462.793C161.887 462.512 161.195 462.371 160.375 462.371C159.566 462.371 158.828 462.541 158.16 462.881C157.504 463.221 156.936 463.689 156.455 464.287C155.986 464.885 155.617 465.57 155.348 466.344C155.09 467.105 154.961 467.914 154.961 468.77Z" fill="black"/>
</g>
<g filter="url(#filter3_d_4_41)">
<rect x="34" y="201" width="181" height="58" rx="20" fill="black"/>
<path d="M99.5898 239.24V242H86.793V239.24H99.5898ZM87.4609 216.406V242H84.0684V216.406H87.4609ZM102.121 232.701V232.297C102.121 230.926 102.32 229.654 102.719 228.482C103.117 227.299 103.691 226.273 104.441 225.406C105.191 224.527 106.1 223.848 107.166 223.367C108.232 222.875 109.428 222.629 110.752 222.629C112.088 222.629 113.289 222.875 114.355 223.367C115.434 223.848 116.348 224.527 117.098 225.406C117.859 226.273 118.439 227.299 118.838 228.482C119.236 229.654 119.436 230.926 119.436 232.297V232.701C119.436 234.072 119.236 235.344 118.838 236.516C118.439 237.688 117.859 238.713 117.098 239.592C116.348 240.459 115.439 241.139 114.373 241.631C113.318 242.111 112.123 242.352 110.787 242.352C109.451 242.352 108.25 242.111 107.184 241.631C106.117 241.139 105.203 240.459 104.441 239.592C103.691 238.713 103.117 237.688 102.719 236.516C102.32 235.344 102.121 234.072 102.121 232.701ZM105.373 232.297V232.701C105.373 233.65 105.484 234.547 105.707 235.391C105.93 236.223 106.264 236.961 106.709 237.605C107.166 238.25 107.734 238.76 108.414 239.135C109.094 239.498 109.885 239.68 110.787 239.68C111.678 239.68 112.457 239.498 113.125 239.135C113.805 238.76 114.367 238.25 114.812 237.605C115.258 236.961 115.592 236.223 115.814 235.391C116.049 234.547 116.166 233.65 116.166 232.701V232.297C116.166 231.359 116.049 230.475 115.814 229.643C115.592 228.799 115.252 228.055 114.795 227.41C114.35 226.754 113.787 226.238 113.107 225.863C112.439 225.488 111.654 225.301 110.752 225.301C109.861 225.301 109.076 225.488 108.396 225.863C107.729 226.238 107.166 226.754 106.709 227.41C106.264 228.055 105.93 228.799 105.707 229.643C105.484 230.475 105.373 231.359 105.373 232.297ZM135.836 222.98H138.789V241.596C138.789 243.271 138.449 244.701 137.77 245.885C137.09 247.068 136.141 247.965 134.922 248.574C133.715 249.195 132.32 249.506 130.738 249.506C130.082 249.506 129.309 249.4 128.418 249.189C127.539 248.99 126.672 248.645 125.816 248.152C124.973 247.672 124.264 247.021 123.689 246.201L125.395 244.268C126.191 245.229 127.023 245.896 127.891 246.271C128.77 246.646 129.637 246.834 130.492 246.834C131.523 246.834 132.414 246.641 133.164 246.254C133.914 245.867 134.494 245.293 134.904 244.531C135.326 243.781 135.537 242.855 135.537 241.754V227.164L135.836 222.98ZM122.74 232.701V232.332C122.74 230.879 122.91 229.561 123.25 228.377C123.602 227.182 124.1 226.156 124.744 225.301C125.4 224.445 126.191 223.789 127.117 223.332C128.043 222.863 129.086 222.629 130.246 222.629C131.441 222.629 132.484 222.84 133.375 223.262C134.277 223.672 135.039 224.275 135.66 225.072C136.293 225.857 136.791 226.807 137.154 227.92C137.518 229.033 137.77 230.293 137.91 231.699V233.316C137.781 234.711 137.529 235.965 137.154 237.078C136.791 238.191 136.293 239.141 135.66 239.926C135.039 240.711 134.277 241.314 133.375 241.736C132.473 242.146 131.418 242.352 130.211 242.352C129.074 242.352 128.043 242.111 127.117 241.631C126.203 241.15 125.418 240.477 124.762 239.609C124.105 238.742 123.602 237.723 123.25 236.551C122.91 235.367 122.74 234.084 122.74 232.701ZM125.992 232.332V232.701C125.992 233.65 126.086 234.541 126.273 235.373C126.473 236.205 126.771 236.938 127.17 237.57C127.58 238.203 128.102 238.701 128.734 239.064C129.367 239.416 130.123 239.592 131.002 239.592C132.08 239.592 132.971 239.363 133.674 238.906C134.377 238.449 134.934 237.846 135.344 237.096C135.766 236.346 136.094 235.531 136.328 234.652V230.416C136.199 229.771 136 229.15 135.73 228.553C135.473 227.943 135.133 227.404 134.711 226.936C134.301 226.455 133.791 226.074 133.182 225.793C132.572 225.512 131.857 225.371 131.037 225.371C130.146 225.371 129.379 225.559 128.734 225.934C128.102 226.297 127.58 226.801 127.17 227.445C126.771 228.078 126.473 228.816 126.273 229.66C126.086 230.492 125.992 231.383 125.992 232.332ZM147.262 222.98V242H143.992V222.98H147.262ZM143.746 217.936C143.746 217.408 143.904 216.963 144.221 216.6C144.549 216.236 145.029 216.055 145.662 216.055C146.283 216.055 146.758 216.236 147.086 216.6C147.426 216.963 147.596 217.408 147.596 217.936C147.596 218.439 147.426 218.873 147.086 219.236C146.758 219.588 146.283 219.764 145.662 219.764C145.029 219.764 144.549 219.588 144.221 219.236C143.904 218.873 143.746 218.439 143.746 217.936ZM155.734 227.041V242H152.482V222.98H155.559L155.734 227.041ZM154.961 231.77L153.607 231.717C153.619 230.416 153.812 229.215 154.188 228.113C154.562 227 155.09 226.033 155.77 225.213C156.449 224.393 157.258 223.76 158.195 223.314C159.145 222.857 160.193 222.629 161.342 222.629C162.279 222.629 163.123 222.758 163.873 223.016C164.623 223.262 165.262 223.66 165.789 224.211C166.328 224.762 166.738 225.477 167.02 226.355C167.301 227.223 167.441 228.283 167.441 229.537V242H164.172V229.502C164.172 228.506 164.025 227.709 163.732 227.111C163.439 226.502 163.012 226.062 162.449 225.793C161.887 225.512 161.195 225.371 160.375 225.371C159.566 225.371 158.828 225.541 158.16 225.881C157.504 226.221 156.936 226.689 156.455 227.287C155.986 227.885 155.617 228.57 155.348 229.344C155.09 230.105 154.961 230.914 154.961 231.77Z" fill="white"/>
</g>
<g filter="url(#filter4_d_4_41)">
<rect x="34" y="201" width="181" height="58" rx="20" fill="black"/>
<path d="M99.5898 239.24V242H86.793V239.24H99.5898ZM87.4609 216.406V242H84.0684V216.406H87.4609ZM102.121 232.701V232.297C102.121 230.926 102.32 229.654 102.719 228.482C103.117 227.299 103.691 226.273 104.441 225.406C105.191 224.527 106.1 223.848 107.166 223.367C108.232 222.875 109.428 222.629 110.752 222.629C112.088 222.629 113.289 222.875 114.355 223.367C115.434 223.848 116.348 224.527 117.098 225.406C117.859 226.273 118.439 227.299 118.838 228.482C119.236 229.654 119.436 230.926 119.436 232.297V232.701C119.436 234.072 119.236 235.344 118.838 236.516C118.439 237.688 117.859 238.713 117.098 239.592C116.348 240.459 115.439 241.139 114.373 241.631C113.318 242.111 112.123 242.352 110.787 242.352C109.451 242.352 108.25 242.111 107.184 241.631C106.117 241.139 105.203 240.459 104.441 239.592C103.691 238.713 103.117 237.688 102.719 236.516C102.32 235.344 102.121 234.072 102.121 232.701ZM105.373 232.297V232.701C105.373 233.65 105.484 234.547 105.707 235.391C105.93 236.223 106.264 236.961 106.709 237.605C107.166 238.25 107.734 238.76 108.414 239.135C109.094 239.498 109.885 239.68 110.787 239.68C111.678 239.68 112.457 239.498 113.125 239.135C113.805 238.76 114.367 238.25 114.812 237.605C115.258 236.961 115.592 236.223 115.814 235.391C116.049 234.547 116.166 233.65 116.166 232.701V232.297C116.166 231.359 116.049 230.475 115.814 229.643C115.592 228.799 115.252 228.055 114.795 227.41C114.35 226.754 113.787 226.238 113.107 225.863C112.439 225.488 111.654 225.301 110.752 225.301C109.861 225.301 109.076 225.488 108.396 225.863C107.729 226.238 107.166 226.754 106.709 227.41C106.264 228.055 105.93 228.799 105.707 229.643C105.484 230.475 105.373 231.359 105.373 232.297ZM135.836 222.98H138.789V241.596C138.789 243.271 138.449 244.701 137.77 245.885C137.09 247.068 136.141 247.965 134.922 248.574C133.715 249.195 132.32 249.506 130.738 249.506C130.082 249.506 129.309 249.4 128.418 249.189C127.539 248.99 126.672 248.645 125.816 248.152C124.973 247.672 124.264 247.021 123.689 246.201L125.395 244.268C126.191 245.229 127.023 245.896 127.891 246.271C128.77 246.646 129.637 246.834 130.492 246.834C131.523 246.834 132.414 246.641 133.164 246.254C133.914 245.867 134.494 245.293 134.904 244.531C135.326 243.781 135.537 242.855 135.537 241.754V227.164L135.836 222.98ZM122.74 232.701V232.332C122.74 230.879 122.91 229.561 123.25 228.377C123.602 227.182 124.1 226.156 124.744 225.301C125.4 224.445 126.191 223.789 127.117 223.332C128.043 222.863 129.086 222.629 130.246 222.629C131.441 222.629 132.484 222.84 133.375 223.262C134.277 223.672 135.039 224.275 135.66 225.072C136.293 225.857 136.791 226.807 137.154 227.92C137.518 229.033 137.77 230.293 137.91 231.699V233.316C137.781 234.711 137.529 235.965 137.154 237.078C136.791 238.191 136.293 239.141 135.66 239.926C135.039 240.711 134.277 241.314 133.375 241.736C132.473 242.146 131.418 242.352 130.211 242.352C129.074 242.352 128.043 242.111 127.117 241.631C126.203 241.15 125.418 240.477 124.762 239.609C124.105 238.742 123.602 237.723 123.25 236.551C122.91 235.367 122.74 234.084 122.74 232.701ZM125.992 232.332V232.701C125.992 233.65 126.086 234.541 126.273 235.373C126.473 236.205 126.771 236.938 127.17 237.57C127.58 238.203 128.102 238.701 128.734 239.064C129.367 239.416 130.123 239.592 131.002 239.592C132.08 239.592 132.971 239.363 133.674 238.906C134.377 238.449 134.934 237.846 135.344 237.096C135.766 236.346 136.094 235.531 136.328 234.652V230.416C136.199 229.771 136 229.15 135.73 228.553C135.473 227.943 135.133 227.404 134.711 226.936C134.301 226.455 133.791 226.074 133.182 225.793C132.572 225.512 131.857 225.371 131.037 225.371C130.146 225.371 129.379 225.559 128.734 225.934C128.102 226.297 127.58 226.801 127.17 227.445C126.771 228.078 126.473 228.816 126.273 229.66C126.086 230.492 125.992 231.383 125.992 232.332ZM147.262 222.98V242H143.992V222.98H147.262ZM143.746 217.936C143.746 217.408 143.904 216.963 144.221 216.6C144.549 216.236 145.029 216.055 145.662 216.055C146.283 216.055 146.758 216.236 147.086 216.6C147.426 216.963 147.596 217.408 147.596 217.936C147.596 218.439 147.426 218.873 147.086 219.236C146.758 219.588 146.283 219.764 145.662 219.764C145.029 219.764 144.549 219.588 144.221 219.236C143.904 218.873 143.746 218.439 143.746 217.936ZM155.734 227.041V242H152.482V222.98H155.559L155.734 227.041ZM154.961 231.77L153.607 231.717C153.619 230.416 153.812 229.215 154.188 228.113C154.562 227 155.09 226.033 155.77 225.213C156.449 224.393 157.258 223.76 158.195 223.314C159.145 222.857 160.193 222.629 161.342 222.629C162.279 222.629 163.123 222.758 163.873 223.016C164.623 223.262 165.262 223.66 165.789 224.211C166.328 224.762 166.738 225.477 167.02 226.355C167.301 227.223 167.441 228.283 167.441 229.537V242H164.172V229.502C164.172 228.506 164.025 227.709 163.732 227.111C163.439 226.502 163.012 226.062 162.449 225.793C161.887 225.512 161.195 225.371 160.375 225.371C159.566 225.371 158.828 225.541 158.16 225.881C157.504 226.221 156.936 226.689 156.455 227.287C155.986 227.885 155.617 228.57 155.348 229.344C155.09 230.105 154.961 230.914 154.961 231.77Z" fill="white"/>
</g>
<g filter="url(#filter5_d_4_41)">
<rect x="34" y="280" width="181" height="58" rx="20" fill="black" fill-opacity="0.4"/>
<path d="M99.5898 318.24V321H86.793V318.24H99.5898ZM87.4609 295.406V321H84.0684V295.406H87.4609ZM102.121 311.701V311.297C102.121 309.926 102.32 308.654 102.719 307.482C103.117 306.299 103.691 305.273 104.441 304.406C105.191 303.527 106.1 302.848 107.166 302.367C108.232 301.875 109.428 301.629 110.752 301.629C112.088 301.629 113.289 301.875 114.355 302.367C115.434 302.848 116.348 303.527 117.098 304.406C117.859 305.273 118.439 306.299 118.838 307.482C119.236 308.654 119.436 309.926 119.436 311.297V311.701C119.436 313.072 119.236 314.344 118.838 315.516C118.439 316.688 117.859 317.713 117.098 318.592C116.348 319.459 115.439 320.139 114.373 320.631C113.318 321.111 112.123 321.352 110.787 321.352C109.451 321.352 108.25 321.111 107.184 320.631C106.117 320.139 105.203 319.459 104.441 318.592C103.691 317.713 103.117 316.688 102.719 315.516C102.32 314.344 102.121 313.072 102.121 311.701ZM105.373 311.297V311.701C105.373 312.65 105.484 313.547 105.707 314.391C105.93 315.223 106.264 315.961 106.709 316.605C107.166 317.25 107.734 317.76 108.414 318.135C109.094 318.498 109.885 318.68 110.787 318.68C111.678 318.68 112.457 318.498 113.125 318.135C113.805 317.76 114.367 317.25 114.812 316.605C115.258 315.961 115.592 315.223 115.814 314.391C116.049 313.547 116.166 312.65 116.166 311.701V311.297C116.166 310.359 116.049 309.475 115.814 308.643C115.592 307.799 115.252 307.055 114.795 306.41C114.35 305.754 113.787 305.238 113.107 304.863C112.439 304.488 111.654 304.301 110.752 304.301C109.861 304.301 109.076 304.488 108.396 304.863C107.729 305.238 107.166 305.754 106.709 306.41C106.264 307.055 105.93 307.799 105.707 308.643C105.484 309.475 105.373 310.359 105.373 311.297ZM135.836 301.98H138.789V320.596C138.789 322.271 138.449 323.701 137.77 324.885C137.09 326.068 136.141 326.965 134.922 327.574C133.715 328.195 132.32 328.506 130.738 328.506C130.082 328.506 129.309 328.4 128.418 328.189C127.539 327.99 126.672 327.645 125.816 327.152C124.973 326.672 124.264 326.021 123.689 325.201L125.395 323.268C126.191 324.229 127.023 324.896 127.891 325.271C128.77 325.646 129.637 325.834 130.492 325.834C131.523 325.834 132.414 325.641 133.164 325.254C133.914 324.867 134.494 324.293 134.904 323.531C135.326 322.781 135.537 321.855 135.537 320.754V306.164L135.836 301.98ZM122.74 311.701V311.332C122.74 309.879 122.91 308.561 123.25 307.377C123.602 306.182 124.1 305.156 124.744 304.301C125.4 303.445 126.191 302.789 127.117 302.332C128.043 301.863 129.086 301.629 130.246 301.629C131.441 301.629 132.484 301.84 133.375 302.262C134.277 302.672 135.039 303.275 135.66 304.072C136.293 304.857 136.791 305.807 137.154 306.92C137.518 308.033 137.77 309.293 137.91 310.699V312.316C137.781 313.711 137.529 314.965 137.154 316.078C136.791 317.191 136.293 318.141 135.66 318.926C135.039 319.711 134.277 320.314 133.375 320.736C132.473 321.146 131.418 321.352 130.211 321.352C129.074 321.352 128.043 321.111 127.117 320.631C126.203 320.15 125.418 319.477 124.762 318.609C124.105 317.742 123.602 316.723 123.25 315.551C122.91 314.367 122.74 313.084 122.74 311.701ZM125.992 311.332V311.701C125.992 312.65 126.086 313.541 126.273 314.373C126.473 315.205 126.771 315.938 127.17 316.57C127.58 317.203 128.102 317.701 128.734 318.064C129.367 318.416 130.123 318.592 131.002 318.592C132.08 318.592 132.971 318.363 133.674 317.906C134.377 317.449 134.934 316.846 135.344 316.096C135.766 315.346 136.094 314.531 136.328 313.652V309.416C136.199 308.771 136 308.15 135.73 307.553C135.473 306.943 135.133 306.404 134.711 305.936C134.301 305.455 133.791 305.074 133.182 304.793C132.572 304.512 131.857 304.371 131.037 304.371C130.146 304.371 129.379 304.559 128.734 304.934C128.102 305.297 127.58 305.801 127.17 306.445C126.771 307.078 126.473 307.816 126.273 308.66C126.086 309.492 125.992 310.383 125.992 311.332ZM147.262 301.98V321H143.992V301.98H147.262ZM143.746 296.936C143.746 296.408 143.904 295.963 144.221 295.6C144.549 295.236 145.029 295.055 145.662 295.055C146.283 295.055 146.758 295.236 147.086 295.6C147.426 295.963 147.596 296.408 147.596 296.936C147.596 297.439 147.426 297.873 147.086 298.236C146.758 298.588 146.283 298.764 145.662 298.764C145.029 298.764 144.549 298.588 144.221 298.236C143.904 297.873 143.746 297.439 143.746 296.936ZM155.734 306.041V321H152.482V301.98H155.559L155.734 306.041ZM154.961 310.77L153.607 310.717C153.619 309.416 153.812 308.215 154.188 307.113C154.562 306 155.09 305.033 155.77 304.213C156.449 303.393 157.258 302.76 158.195 302.314C159.145 301.857 160.193 301.629 161.342 301.629C162.279 301.629 163.123 301.758 163.873 302.016C164.623 302.262 165.262 302.66 165.789 303.211C166.328 303.762 166.738 304.477 167.02 305.355C167.301 306.223 167.441 307.283 167.441 308.537V321H164.172V308.502C164.172 307.506 164.025 306.709 163.732 306.111C163.439 305.502 163.012 305.062 162.449 304.793C161.887 304.512 161.195 304.371 160.375 304.371C159.566 304.371 158.828 304.541 158.16 304.881C157.504 305.221 156.936 305.689 156.455 306.287C155.986 306.885 155.617 307.57 155.348 308.344C155.09 309.105 154.961 309.914 154.961 310.77Z" fill="white"/>
</g>
<g filter="url(#filter6_d_4_41)">
<rect x="34" y="122" width="362" height="58" rx="20" fill="black" fill-opacity="0.4"/>
<path d="M189.59 160.24V163H176.793V160.24H189.59ZM177.461 137.406V163H174.068V137.406H177.461ZM192.121 153.701V153.297C192.121 151.926 192.32 150.654 192.719 149.482C193.117 148.299 193.691 147.273 194.441 146.406C195.191 145.527 196.1 144.848 197.166 144.367C198.232 143.875 199.428 143.629 200.752 143.629C202.088 143.629 203.289 143.875 204.355 144.367C205.434 144.848 206.348 145.527 207.098 146.406C207.859 147.273 208.439 148.299 208.838 149.482C209.236 150.654 209.436 151.926 209.436 153.297V153.701C209.436 155.072 209.236 156.344 208.838 157.516C208.439 158.688 207.859 159.713 207.098 160.592C206.348 161.459 205.439 162.139 204.373 162.631C203.318 163.111 202.123 163.352 200.787 163.352C199.451 163.352 198.25 163.111 197.184 162.631C196.117 162.139 195.203 161.459 194.441 160.592C193.691 159.713 193.117 158.688 192.719 157.516C192.32 156.344 192.121 155.072 192.121 153.701ZM195.373 153.297V153.701C195.373 154.65 195.484 155.547 195.707 156.391C195.93 157.223 196.264 157.961 196.709 158.605C197.166 159.25 197.734 159.76 198.414 160.135C199.094 160.498 199.885 160.68 200.787 160.68C201.678 160.68 202.457 160.498 203.125 160.135C203.805 159.76 204.367 159.25 204.812 158.605C205.258 157.961 205.592 157.223 205.814 156.391C206.049 155.547 206.166 154.65 206.166 153.701V153.297C206.166 152.359 206.049 151.475 205.814 150.643C205.592 149.799 205.252 149.055 204.795 148.41C204.35 147.754 203.787 147.238 203.107 146.863C202.439 146.488 201.654 146.301 200.752 146.301C199.861 146.301 199.076 146.488 198.396 146.863C197.729 147.238 197.166 147.754 196.709 148.41C196.264 149.055 195.93 149.799 195.707 150.643C195.484 151.475 195.373 152.359 195.373 153.297ZM225.836 143.98H228.789V162.596C228.789 164.271 228.449 165.701 227.77 166.885C227.09 168.068 226.141 168.965 224.922 169.574C223.715 170.195 222.32 170.506 220.738 170.506C220.082 170.506 219.309 170.4 218.418 170.189C217.539 169.99 216.672 169.645 215.816 169.152C214.973 168.672 214.264 168.021 213.689 167.201L215.395 165.268C216.191 166.229 217.023 166.896 217.891 167.271C218.77 167.646 219.637 167.834 220.492 167.834C221.523 167.834 222.414 167.641 223.164 167.254C223.914 166.867 224.494 166.293 224.904 165.531C225.326 164.781 225.537 163.855 225.537 162.754V148.164L225.836 143.98ZM212.74 153.701V153.332C212.74 151.879 212.91 150.561 213.25 149.377C213.602 148.182 214.1 147.156 214.744 146.301C215.4 145.445 216.191 144.789 217.117 144.332C218.043 143.863 219.086 143.629 220.246 143.629C221.441 143.629 222.484 143.84 223.375 144.262C224.277 144.672 225.039 145.275 225.66 146.072C226.293 146.857 226.791 147.807 227.154 148.92C227.518 150.033 227.77 151.293 227.91 152.699V154.316C227.781 155.711 227.529 156.965 227.154 158.078C226.791 159.191 226.293 160.141 225.66 160.926C225.039 161.711 224.277 162.314 223.375 162.736C222.473 163.146 221.418 163.352 220.211 163.352C219.074 163.352 218.043 163.111 217.117 162.631C216.203 162.15 215.418 161.477 214.762 160.609C214.105 159.742 213.602 158.723 213.25 157.551C212.91 156.367 212.74 155.084 212.74 153.701ZM215.992 153.332V153.701C215.992 154.65 216.086 155.541 216.273 156.373C216.473 157.205 216.771 157.938 217.17 158.57C217.58 159.203 218.102 159.701 218.734 160.064C219.367 160.416 220.123 160.592 221.002 160.592C222.08 160.592 222.971 160.363 223.674 159.906C224.377 159.449 224.934 158.846 225.344 158.096C225.766 157.346 226.094 156.531 226.328 155.652V151.416C226.199 150.771 226 150.15 225.73 149.553C225.473 148.943 225.133 148.404 224.711 147.936C224.301 147.455 223.791 147.074 223.182 146.793C222.572 146.512 221.857 146.371 221.037 146.371C220.146 146.371 219.379 146.559 218.734 146.934C218.102 147.297 217.58 147.801 217.17 148.445C216.771 149.078 216.473 149.816 216.273 150.66C216.086 151.492 215.992 152.383 215.992 153.332ZM237.262 143.98V163H233.992V143.98H237.262ZM233.746 138.936C233.746 138.408 233.904 137.963 234.221 137.6C234.549 137.236 235.029 137.055 235.662 137.055C236.283 137.055 236.758 137.236 237.086 137.6C237.426 137.963 237.596 138.408 237.596 138.936C237.596 139.439 237.426 139.873 237.086 140.236C236.758 140.588 236.283 140.764 235.662 140.764C235.029 140.764 234.549 140.588 234.221 140.236C233.904 139.873 233.746 139.439 233.746 138.936ZM245.734 148.041V163H242.482V143.98H245.559L245.734 148.041ZM244.961 152.77L243.607 152.717C243.619 151.416 243.812 150.215 244.188 149.113C244.562 148 245.09 147.033 245.77 146.213C246.449 145.393 247.258 144.76 248.195 144.314C249.145 143.857 250.193 143.629 251.342 143.629C252.279 143.629 253.123 143.758 253.873 144.016C254.623 144.262 255.262 144.66 255.789 145.211C256.328 145.762 256.738 146.477 257.02 147.355C257.301 148.223 257.441 149.283 257.441 150.537V163H254.172V150.502C254.172 149.506 254.025 148.709 253.732 148.111C253.439 147.502 253.012 147.062 252.449 146.793C251.887 146.512 251.195 146.371 250.375 146.371C249.566 146.371 248.828 146.541 248.16 146.881C247.504 147.221 246.936 147.689 246.455 148.287C245.986 148.885 245.617 149.57 245.348 150.344C245.09 151.105 244.961 151.914 244.961 152.77Z" fill="white"/>
</g>
<path d="M83.8747 586V533.636H104.841C108.693 533.636 111.906 534.207 114.48 535.349C117.054 536.491 118.988 538.077 120.284 540.105C121.579 542.116 122.227 544.435 122.227 547.06C122.227 549.105 121.818 550.903 121 552.455C120.182 553.989 119.057 555.25 117.625 556.239C116.21 557.21 114.591 557.901 112.767 558.31V558.821C114.761 558.906 116.628 559.469 118.366 560.509C120.122 561.548 121.545 563.006 122.636 564.881C123.727 566.739 124.272 568.955 124.272 571.528C124.272 574.307 123.582 576.787 122.201 578.969C120.838 581.134 118.818 582.847 116.142 584.108C113.466 585.369 110.167 586 106.247 586H83.8747ZM94.9458 576.949H103.971C107.057 576.949 109.307 576.361 110.721 575.185C112.136 573.991 112.843 572.406 112.843 570.429C112.843 568.98 112.494 567.702 111.795 566.594C111.096 565.486 110.099 564.616 108.804 563.986C107.525 563.355 106 563.04 104.227 563.04H94.9458V576.949ZM94.9458 555.548H103.153C104.67 555.548 106.017 555.284 107.193 554.756C108.386 554.21 109.324 553.443 110.005 552.455C110.704 551.466 111.054 550.281 111.054 548.901C111.054 547.009 110.38 545.483 109.034 544.324C107.704 543.165 105.812 542.585 103.358 542.585H94.9458V555.548ZM129.112 586V546.727H140.004V586H129.112ZM134.583 541.665C132.964 541.665 131.575 541.128 130.416 540.054C129.274 538.963 128.703 537.659 128.703 536.142C128.703 534.642 129.274 533.355 130.416 532.281C131.575 531.19 132.964 530.645 134.583 530.645C136.203 530.645 137.583 531.19 138.725 532.281C139.884 533.355 140.464 534.642 140.464 536.142C140.464 537.659 139.884 538.963 138.725 540.054C137.583 541.128 136.203 541.665 134.583 541.665ZM164.262 601.545C160.734 601.545 157.708 601.06 155.185 600.088C152.68 599.134 150.685 597.83 149.202 596.176C147.72 594.523 146.756 592.665 146.313 590.602L156.387 589.247C156.694 590.031 157.18 590.764 157.845 591.446C158.509 592.128 159.387 592.673 160.478 593.082C161.586 593.509 162.933 593.722 164.518 593.722C166.887 593.722 168.839 593.142 170.373 591.983C171.924 590.841 172.7 588.923 172.7 586.23V579.045H172.239C171.762 580.136 171.046 581.168 170.092 582.139C169.137 583.111 167.91 583.903 166.41 584.517C164.91 585.131 163.12 585.438 161.041 585.438C158.092 585.438 155.407 584.756 152.987 583.392C150.583 582.011 148.666 579.906 147.234 577.077C145.819 574.23 145.112 570.634 145.112 566.287C145.112 561.838 145.836 558.122 147.285 555.139C148.734 552.156 150.66 549.923 153.063 548.44C155.484 546.957 158.134 546.216 161.015 546.216C163.214 546.216 165.055 546.591 166.538 547.341C168.021 548.074 169.214 548.994 170.117 550.102C171.038 551.193 171.745 552.267 172.239 553.324H172.648V546.727H183.464V586.384C183.464 589.724 182.646 592.52 181.009 594.77C179.373 597.02 177.106 598.707 174.208 599.832C171.327 600.974 168.012 601.545 164.262 601.545ZM164.492 577.256C166.248 577.256 167.731 576.821 168.941 575.952C170.168 575.065 171.106 573.804 171.754 572.168C172.418 570.514 172.751 568.537 172.751 566.236C172.751 563.935 172.427 561.94 171.779 560.253C171.131 558.548 170.194 557.227 168.967 556.29C167.739 555.352 166.248 554.884 164.492 554.884C162.702 554.884 161.194 555.369 159.967 556.341C158.739 557.295 157.81 558.625 157.18 560.33C156.549 562.034 156.234 564.003 156.234 566.236C156.234 568.503 156.549 570.463 157.18 572.116C157.827 573.753 158.756 575.023 159.967 575.926C161.194 576.812 162.702 577.256 164.492 577.256ZM202.686 542.764V533.636H245.691V542.764H229.66V586H218.717V542.764H202.686ZM250.409 586V546.727H261.301V586H250.409ZM255.881 541.665C254.262 541.665 252.872 541.128 251.713 540.054C250.571 538.963 250 537.659 250 536.142C250 534.642 250.571 533.355 251.713 532.281C252.872 531.19 254.262 530.645 255.881 530.645C257.5 530.645 258.881 531.19 260.023 532.281C261.182 533.355 261.762 534.642 261.762 536.142C261.762 537.659 261.182 538.963 260.023 540.054C258.881 541.128 257.5 541.665 255.881 541.665ZM288.756 546.727V554.909H265.105V546.727H288.756ZM270.474 537.318H281.366V573.932C281.366 574.937 281.52 575.722 281.827 576.284C282.133 576.83 282.56 577.213 283.105 577.435C283.668 577.656 284.315 577.767 285.048 577.767C285.56 577.767 286.071 577.724 286.582 577.639C287.094 577.537 287.486 577.46 287.758 577.409L289.472 585.514C288.926 585.685 288.159 585.881 287.17 586.102C286.182 586.341 284.98 586.486 283.565 586.537C280.94 586.639 278.639 586.29 276.662 585.489C274.702 584.687 273.176 583.443 272.085 581.756C270.994 580.068 270.457 577.937 270.474 575.364V537.318ZM305.427 533.636V586H294.535V533.636H305.427ZM329.889 586.767C325.85 586.767 322.372 585.949 319.458 584.312C316.56 582.659 314.327 580.324 312.759 577.307C311.191 574.273 310.407 570.685 310.407 566.543C310.407 562.503 311.191 558.957 312.759 555.906C314.327 552.855 316.534 550.477 319.381 548.773C322.245 547.068 325.603 546.216 329.455 546.216C332.046 546.216 334.458 546.634 336.691 547.469C338.941 548.287 340.901 549.523 342.571 551.176C344.259 552.83 345.571 554.909 346.509 557.415C347.446 559.903 347.915 562.818 347.915 566.159V569.151H314.753V562.401H337.662C337.662 560.832 337.321 559.443 336.639 558.233C335.958 557.023 335.012 556.077 333.801 555.395C332.608 554.696 331.219 554.347 329.634 554.347C327.98 554.347 326.514 554.73 325.236 555.497C323.975 556.247 322.986 557.261 322.27 558.54C321.554 559.801 321.188 561.207 321.171 562.759V569.176C321.171 571.119 321.529 572.798 322.245 574.213C322.978 575.628 324.009 576.719 325.338 577.486C326.668 578.253 328.245 578.636 330.068 578.636C331.279 578.636 332.387 578.466 333.392 578.125C334.398 577.784 335.259 577.273 335.975 576.591C336.691 575.909 337.236 575.074 337.611 574.085L347.685 574.75C347.174 577.17 346.125 579.284 344.54 581.091C342.972 582.881 340.943 584.278 338.455 585.284C335.983 586.273 333.128 586.767 329.889 586.767Z" fill="#0B1E3D"/>
<path d="M35.0938 694H36.5469V704.359L36.4219 706H35.0938V694ZM42.2578 701.703V701.867C42.2578 702.482 42.1849 703.052 42.0391 703.578C41.8932 704.099 41.6797 704.552 41.3984 704.938C41.1172 705.323 40.7734 705.622 40.3672 705.836C39.9609 706.049 39.4948 706.156 38.9688 706.156C38.4323 706.156 37.9609 706.065 37.5547 705.883C37.1536 705.695 36.8151 705.427 36.5391 705.078C36.263 704.729 36.0417 704.307 35.875 703.812C35.7135 703.318 35.6016 702.76 35.5391 702.141V701.422C35.6016 700.797 35.7135 700.237 35.875 699.742C36.0417 699.247 36.263 698.826 36.5391 698.477C36.8151 698.122 37.1536 697.854 37.5547 697.672C37.9557 697.484 38.4219 697.391 38.9531 697.391C39.4844 697.391 39.9557 697.495 40.3672 697.703C40.7786 697.906 41.1224 698.198 41.3984 698.578C41.6797 698.958 41.8932 699.414 42.0391 699.945C42.1849 700.471 42.2578 701.057 42.2578 701.703ZM40.8047 701.867V701.703C40.8047 701.281 40.7656 700.885 40.6875 700.516C40.6094 700.141 40.4844 699.812 40.3125 699.531C40.1406 699.245 39.9141 699.021 39.6328 698.859C39.3516 698.693 39.0052 698.609 38.5938 698.609C38.2292 698.609 37.9115 698.672 37.6406 698.797C37.375 698.922 37.1484 699.091 36.9609 699.305C36.7734 699.513 36.6198 699.753 36.5 700.023C36.3854 700.289 36.2995 700.565 36.2422 700.852V702.734C36.3255 703.099 36.4609 703.451 36.6484 703.789C36.8411 704.122 37.0964 704.396 37.4141 704.609C37.737 704.823 38.1354 704.93 38.6094 704.93C39 704.93 39.3333 704.852 39.6094 704.695C39.8906 704.534 40.1172 704.312 40.2891 704.031C40.4661 703.75 40.5964 703.424 40.6797 703.055C40.763 702.685 40.8047 702.289 40.8047 701.867ZM44.2031 701.867V701.688C44.2031 701.078 44.2917 700.513 44.4688 699.992C44.6458 699.466 44.901 699.01 45.2344 698.625C45.5677 698.234 45.9714 697.932 46.4453 697.719C46.9193 697.5 47.4505 697.391 48.0391 697.391C48.6328 697.391 49.1667 697.5 49.6406 697.719C50.1198 697.932 50.526 698.234 50.8594 698.625C51.1979 699.01 51.4557 699.466 51.6328 699.992C51.8099 700.513 51.8984 701.078 51.8984 701.688V701.867C51.8984 702.477 51.8099 703.042 51.6328 703.562C51.4557 704.083 51.1979 704.539 50.8594 704.93C50.526 705.315 50.1224 705.617 49.6484 705.836C49.1797 706.049 48.6484 706.156 48.0547 706.156C47.4609 706.156 46.9271 706.049 46.4531 705.836C45.9792 705.617 45.5729 705.315 45.2344 704.93C44.901 704.539 44.6458 704.083 44.4688 703.562C44.2917 703.042 44.2031 702.477 44.2031 701.867ZM45.6484 701.688V701.867C45.6484 702.289 45.6979 702.688 45.7969 703.062C45.8958 703.432 46.0443 703.76 46.2422 704.047C46.4453 704.333 46.6979 704.56 47 704.727C47.3021 704.888 47.6536 704.969 48.0547 704.969C48.4505 704.969 48.7969 704.888 49.0938 704.727C49.3958 704.56 49.6458 704.333 49.8438 704.047C50.0417 703.76 50.1901 703.432 50.2891 703.062C50.3932 702.688 50.4453 702.289 50.4453 701.867V701.688C50.4453 701.271 50.3932 700.878 50.2891 700.508C50.1901 700.133 50.0391 699.802 49.8359 699.516C49.638 699.224 49.388 698.995 49.0859 698.828C48.7891 698.661 48.4401 698.578 48.0391 698.578C47.6432 698.578 47.2943 698.661 46.9922 698.828C46.6953 698.995 46.4453 699.224 46.2422 699.516C46.0443 699.802 45.8958 700.133 45.7969 700.508C45.6979 700.878 45.6484 701.271 45.6484 701.688ZM59.5391 704.359V694H60.9922V706H59.6641L59.5391 704.359ZM53.8516 701.867V701.703C53.8516 701.057 53.9297 700.471 54.0859 699.945C54.2474 699.414 54.474 698.958 54.7656 698.578C55.0625 698.198 55.4141 697.906 55.8203 697.703C56.2318 697.495 56.6901 697.391 57.1953 697.391C57.7266 697.391 58.1901 697.484 58.5859 697.672C58.987 697.854 59.3255 698.122 59.6016 698.477C59.8828 698.826 60.1042 699.247 60.2656 699.742C60.4271 700.237 60.5391 700.797 60.6016 701.422V702.141C60.5443 702.76 60.4323 703.318 60.2656 703.812C60.1042 704.307 59.8828 704.729 59.6016 705.078C59.3255 705.427 58.987 705.695 58.5859 705.883C58.1849 706.065 57.7161 706.156 57.1797 706.156C56.6849 706.156 56.2318 706.049 55.8203 705.836C55.4141 705.622 55.0625 705.323 54.7656 704.938C54.474 704.552 54.2474 704.099 54.0859 703.578C53.9297 703.052 53.8516 702.482 53.8516 701.867ZM55.3047 701.703V701.867C55.3047 702.289 55.3464 702.685 55.4297 703.055C55.5182 703.424 55.6536 703.75 55.8359 704.031C56.0182 704.312 56.25 704.534 56.5312 704.695C56.8125 704.852 57.1484 704.93 57.5391 704.93C58.0182 704.93 58.4115 704.828 58.7188 704.625C59.0312 704.422 59.2812 704.154 59.4688 703.82C59.6562 703.487 59.8021 703.125 59.9062 702.734V700.852C59.8438 700.565 59.7526 700.289 59.6328 700.023C59.5182 699.753 59.3672 699.513 59.1797 699.305C58.9974 699.091 58.7708 698.922 58.5 698.797C58.2344 698.672 57.9193 698.609 57.5547 698.609C57.1589 698.609 56.8177 698.693 56.5312 698.859C56.25 699.021 56.0182 699.245 55.8359 699.531C55.6536 699.812 55.5182 700.141 55.4297 700.516C55.3464 700.885 55.3047 701.281 55.3047 701.703ZM66.1172 705.125L68.4688 697.547H70.0156L66.625 707.305C66.5469 707.513 66.4427 707.737 66.3125 707.977C66.1875 708.221 66.026 708.453 65.8281 708.672C65.6302 708.891 65.3906 709.068 65.1094 709.203C64.8333 709.344 64.5026 709.414 64.1172 709.414C64.0026 709.414 63.8568 709.398 63.6797 709.367C63.5026 709.336 63.3776 709.31 63.3047 709.289L63.2969 708.117C63.3385 708.122 63.4036 708.128 63.4922 708.133C63.5859 708.143 63.651 708.148 63.6875 708.148C64.0156 708.148 64.2943 708.104 64.5234 708.016C64.7526 707.932 64.9453 707.789 65.1016 707.586C65.263 707.388 65.401 707.115 65.5156 706.766L66.1172 705.125ZM64.3906 697.547L66.5859 704.109L66.9609 705.633L65.9219 706.164L62.8125 697.547H64.3906ZM79.8281 697.547V698.656H75.2578V697.547H79.8281ZM76.8047 695.492H78.25V703.906C78.25 704.193 78.2943 704.409 78.3828 704.555C78.4714 704.701 78.5859 704.797 78.7266 704.844C78.8672 704.891 79.0182 704.914 79.1797 704.914C79.2995 704.914 79.4245 704.904 79.5547 704.883C79.6901 704.857 79.7917 704.836 79.8594 704.82L79.8672 706C79.7526 706.036 79.6016 706.07 79.4141 706.102C79.2318 706.138 79.0104 706.156 78.75 706.156C78.3958 706.156 78.0703 706.086 77.7734 705.945C77.4766 705.805 77.2396 705.57 77.0625 705.242C76.8906 704.909 76.8047 704.461 76.8047 703.898V695.492ZM85.5312 706.156C84.9427 706.156 84.4089 706.057 83.9297 705.859C83.4557 705.656 83.0469 705.372 82.7031 705.008C82.3646 704.643 82.1042 704.211 81.9219 703.711C81.7396 703.211 81.6484 702.664 81.6484 702.07V701.742C81.6484 701.055 81.75 700.443 81.9531 699.906C82.1562 699.365 82.4323 698.906 82.7812 698.531C83.1302 698.156 83.526 697.872 83.9688 697.68C84.4115 697.487 84.8698 697.391 85.3438 697.391C85.9479 697.391 86.4688 697.495 86.9062 697.703C87.349 697.911 87.7109 698.203 87.9922 698.578C88.2734 698.948 88.4818 699.385 88.6172 699.891C88.7526 700.391 88.8203 700.938 88.8203 701.531V702.18H82.5078V701H87.375V700.891C87.3542 700.516 87.276 700.151 87.1406 699.797C87.0104 699.443 86.8021 699.151 86.5156 698.922C86.2292 698.693 85.8385 698.578 85.3438 698.578C85.0156 698.578 84.7135 698.648 84.4375 698.789C84.1615 698.924 83.9245 699.128 83.7266 699.398C83.5286 699.669 83.375 700 83.2656 700.391C83.1562 700.781 83.1016 701.232 83.1016 701.742V702.07C83.1016 702.471 83.1562 702.849 83.2656 703.203C83.3802 703.552 83.5443 703.859 83.7578 704.125C83.9766 704.391 84.2396 704.599 84.5469 704.75C84.8594 704.901 85.2135 704.977 85.6094 704.977C86.1198 704.977 86.5521 704.872 86.9062 704.664C87.2604 704.456 87.5703 704.177 87.8359 703.828L88.7109 704.523C88.5286 704.799 88.2969 705.062 88.0156 705.312C87.7344 705.562 87.388 705.766 86.9766 705.922C86.5703 706.078 86.0885 706.156 85.5312 706.156ZM91.9844 697.547L93.8359 700.625L95.7109 697.547H97.4062L94.6406 701.719L97.4922 706H95.8203L93.8672 702.828L91.9141 706H90.2344L93.0781 701.719L90.3203 697.547H91.9844ZM102.984 697.547V698.656H98.4141V697.547H102.984ZM99.9609 695.492H101.406V703.906C101.406 704.193 101.451 704.409 101.539 704.555C101.628 704.701 101.742 704.797 101.883 704.844C102.023 704.891 102.174 704.914 102.336 704.914C102.456 704.914 102.581 704.904 102.711 704.883C102.846 704.857 102.948 704.836 103.016 704.82L103.023 706C102.909 706.036 102.758 706.07 102.57 706.102C102.388 706.138 102.167 706.156 101.906 706.156C101.552 706.156 101.227 706.086 100.93 705.945C100.633 705.805 100.396 705.57 100.219 705.242C100.047 704.909 99.9609 704.461 99.9609 703.898V695.492Z" fill="#0B1E3D"/>
<rect x="34.5" y="734.5" width="361" height="46" rx="19.5" fill="white" stroke="black"/>
<path d="M50.5781 758.971V757.408H54.4941C55.5033 757.408 56.2845 757.148 56.8379 756.627C57.3913 756.1 57.668 755.374 57.668 754.449V754.43C57.668 753.499 57.3913 752.773 56.8379 752.252C56.2845 751.731 55.5033 751.471 54.4941 751.471H50.5781V749.908H54.9434C55.8288 749.908 56.61 750.097 57.2871 750.475C57.9642 750.852 58.4948 751.38 58.8789 752.057C59.2695 752.734 59.4648 753.518 59.4648 754.41V754.43C59.4648 755.322 59.2695 756.109 58.8789 756.793C58.4948 757.477 57.9642 758.01 57.2871 758.395C56.61 758.779 55.8288 758.971 54.9434 758.971H50.5781ZM49.6992 764V749.908H51.457V764H49.6992ZM61.5539 764V749.439H63.2531V764H61.5539ZM68.7406 764.186C68.0766 764.186 67.4809 764.059 66.9535 763.805C66.4327 763.551 66.0193 763.193 65.7133 762.73C65.4138 762.262 65.2641 761.712 65.2641 761.08V761.061C65.2641 760.442 65.4105 759.915 65.7035 759.479C66.003 759.036 66.4359 758.688 67.0023 758.434C67.5688 758.18 68.2556 758.03 69.0629 757.984L72.9008 757.76V759.107L69.268 759.332C68.4932 759.378 67.9203 759.544 67.5492 759.83C67.1846 760.117 67.0023 760.517 67.0023 761.031V761.051C67.0023 761.572 67.1977 761.979 67.5883 762.271C67.9854 762.564 68.49 762.711 69.102 762.711C69.6684 762.711 70.1729 762.597 70.6156 762.369C71.0648 762.141 71.4164 761.829 71.6703 761.432C71.9242 761.035 72.0512 760.589 72.0512 760.094V756.881C72.0512 756.236 71.8559 755.742 71.4652 755.396C71.0746 755.051 70.4952 754.879 69.727 754.879C69.0889 754.879 68.5681 754.999 68.1645 755.24C67.7608 755.475 67.4939 755.803 67.3637 756.227L67.3539 756.266H65.6742L65.684 756.197C65.7621 755.644 65.9802 755.156 66.3383 754.732C66.6964 754.309 67.1684 753.977 67.7543 753.736C68.3402 753.495 69.0141 753.375 69.7758 753.375C70.6156 753.375 71.3318 753.515 71.9242 753.795C72.5232 754.068 72.9757 754.465 73.2816 754.986C73.5941 755.501 73.7504 756.116 73.7504 756.832V764H72.0512V762.428H71.9242C71.7094 762.799 71.4424 763.118 71.1234 763.385C70.8044 763.645 70.4464 763.844 70.0492 763.98C69.6521 764.117 69.2159 764.186 68.7406 764.186ZM80.4684 764.186C79.4918 764.186 78.6422 763.964 77.9195 763.521C77.2034 763.072 76.6467 762.444 76.2496 761.637C75.859 760.823 75.6637 759.863 75.6637 758.756V758.736C75.6637 757.649 75.859 756.705 76.2496 755.904C76.6467 755.104 77.2034 754.482 77.9195 754.039C78.6357 753.596 79.482 753.375 80.4586 753.375C81.3115 753.375 82.0439 753.528 82.6559 753.834C83.2743 754.14 83.7659 754.547 84.1305 755.055C84.4951 755.562 84.7262 756.122 84.8238 756.734L84.8336 756.803H83.1539L83.1344 756.764C83.0107 756.243 82.721 755.8 82.2652 755.436C81.816 755.064 81.2138 754.879 80.4586 754.879C79.8336 754.879 79.2932 755.038 78.8375 755.357C78.3818 755.67 78.027 756.116 77.773 756.695C77.5257 757.275 77.402 757.958 77.402 758.746V758.756C77.402 759.563 77.5289 760.26 77.7828 760.846C78.0367 761.432 78.3915 761.884 78.8473 762.203C79.3095 762.522 79.8466 762.682 80.4586 762.682C81.1682 762.682 81.7444 762.525 82.1871 762.213C82.6363 761.894 82.9521 761.441 83.1344 760.855L83.1539 760.797L84.8336 760.787L84.8141 760.885C84.6839 761.523 84.4332 762.092 84.0621 762.594C83.691 763.089 83.206 763.479 82.607 763.766C82.0081 764.046 81.2952 764.186 80.4684 764.186ZM90.9266 764.186C89.9305 764.186 89.0743 763.967 88.3582 763.531C87.6421 763.089 87.0919 762.467 86.7078 761.666C86.3237 760.859 86.1316 759.908 86.1316 758.814V758.805C86.1316 757.73 86.3237 756.786 86.7078 755.973C87.0919 755.159 87.6355 754.524 88.3387 754.068C89.0483 753.606 89.8751 753.375 90.8191 753.375C91.7632 753.375 92.577 753.596 93.2605 754.039C93.9441 754.475 94.4682 755.087 94.8328 755.875C95.1974 756.656 95.3797 757.568 95.3797 758.609V759.264H87.0008V757.906H94.5203L93.6805 759.146V758.482C93.6805 757.662 93.5568 756.988 93.3094 756.461C93.062 755.934 92.7234 755.54 92.2938 755.279C91.8641 755.019 91.3693 754.889 90.8094 754.889C90.2495 754.889 89.7482 755.025 89.3055 755.299C88.8628 755.572 88.5112 755.976 88.2508 756.51C87.9969 757.044 87.8699 757.701 87.8699 758.482V759.146C87.8699 759.889 87.9936 760.523 88.241 761.051C88.4949 761.572 88.853 761.972 89.3152 762.252C89.784 762.532 90.3341 762.672 90.9656 762.672C91.4279 762.672 91.8315 762.607 92.1766 762.477C92.5281 762.346 92.8178 762.18 93.0457 761.979C93.2736 761.77 93.4331 761.552 93.5242 761.324L93.5633 761.236H95.2527L95.2332 761.314C95.1486 761.686 94.9891 762.044 94.7547 762.389C94.5203 762.727 94.2208 763.033 93.8563 763.307C93.4917 763.58 93.062 763.795 92.5672 763.951C92.0724 764.107 91.5255 764.186 90.9266 764.186ZM97.4492 764V749.439H99.1484V755.152H99.2754C99.5488 754.586 99.9395 754.15 100.447 753.844C100.955 753.531 101.596 753.375 102.371 753.375C103.139 753.375 103.797 753.531 104.344 753.844C104.891 754.156 105.311 754.609 105.604 755.201C105.896 755.787 106.043 756.493 106.043 757.32V764H104.344V757.711C104.344 756.767 104.135 756.061 103.719 755.592C103.309 755.117 102.69 754.879 101.863 754.879C101.316 754.879 100.838 754.999 100.428 755.24C100.024 755.481 99.7083 755.823 99.4805 756.266C99.2591 756.708 99.1484 757.232 99.1484 757.838V764H97.4492ZM112.751 764.186C111.768 764.186 110.915 763.967 110.193 763.531C109.47 763.095 108.91 762.473 108.513 761.666C108.122 760.859 107.927 759.898 107.927 758.785V758.766C107.927 757.652 108.122 756.692 108.513 755.885C108.91 755.077 109.47 754.459 110.193 754.029C110.915 753.593 111.765 753.375 112.741 753.375C113.731 753.375 114.584 753.593 115.3 754.029C116.023 754.459 116.579 755.077 116.97 755.885C117.367 756.692 117.566 757.652 117.566 758.766V758.785C117.566 759.898 117.367 760.859 116.97 761.666C116.579 762.473 116.023 763.095 115.3 763.531C114.584 763.967 113.734 764.186 112.751 764.186ZM112.751 762.682C113.396 762.682 113.946 762.529 114.402 762.223C114.864 761.91 115.215 761.464 115.456 760.885C115.704 760.305 115.827 759.605 115.827 758.785V758.766C115.827 757.945 115.704 757.245 115.456 756.666C115.215 756.087 114.864 755.644 114.402 755.338C113.946 755.032 113.392 754.879 112.741 754.879C112.097 754.879 111.543 755.032 111.081 755.338C110.626 755.644 110.274 756.087 110.027 756.666C109.786 757.245 109.665 757.945 109.665 758.766V758.785C109.665 759.605 109.786 760.305 110.027 760.885C110.274 761.464 110.626 761.91 111.081 762.223C111.543 762.529 112.1 762.682 112.751 762.682ZM119.635 764V749.439H121.334V764H119.635ZM127.789 764.186C126.903 764.186 126.132 763.964 125.474 763.521C124.817 763.072 124.306 762.444 123.941 761.637C123.576 760.823 123.394 759.872 123.394 758.785V758.766C123.394 757.678 123.576 756.731 123.941 755.924C124.306 755.117 124.817 754.492 125.474 754.049C126.132 753.6 126.9 753.375 127.779 753.375C128.261 753.375 128.713 753.453 129.136 753.609C129.56 753.759 129.937 753.971 130.269 754.244C130.601 754.518 130.862 754.846 131.05 755.23H131.187V749.439H132.886V764H131.187V762.311H131.05C130.842 762.701 130.575 763.036 130.25 763.316C129.924 763.596 129.553 763.811 129.136 763.961C128.726 764.111 128.277 764.186 127.789 764.186ZM128.16 762.682C128.785 762.682 129.325 762.525 129.781 762.213C130.243 761.894 130.598 761.441 130.845 760.855C131.093 760.27 131.216 759.579 131.216 758.785V758.766C131.216 757.971 131.089 757.285 130.836 756.705C130.588 756.119 130.237 755.67 129.781 755.357C129.325 755.038 128.785 754.879 128.16 754.879C127.535 754.879 126.994 755.035 126.539 755.348C126.083 755.66 125.735 756.106 125.494 756.686C125.253 757.265 125.132 757.958 125.132 758.766V758.785C125.132 759.592 125.253 760.289 125.494 760.875C125.735 761.454 126.083 761.9 126.539 762.213C126.994 762.525 127.535 762.682 128.16 762.682ZM139.751 764.186C138.755 764.186 137.899 763.967 137.182 763.531C136.466 763.089 135.916 762.467 135.532 761.666C135.148 760.859 134.956 759.908 134.956 758.814V758.805C134.956 757.73 135.148 756.786 135.532 755.973C135.916 755.159 136.46 754.524 137.163 754.068C137.873 753.606 138.699 753.375 139.643 753.375C140.587 753.375 141.401 753.596 142.085 754.039C142.768 754.475 143.292 755.087 143.657 755.875C144.022 756.656 144.204 757.568 144.204 758.609V759.264H135.825V757.906H143.345L142.505 759.146V758.482C142.505 757.662 142.381 756.988 142.134 756.461C141.886 755.934 141.548 755.54 141.118 755.279C140.688 755.019 140.193 754.889 139.634 754.889C139.074 754.889 138.572 755.025 138.13 755.299C137.687 755.572 137.335 755.976 137.075 756.51C136.821 757.044 136.694 757.701 136.694 758.482V759.146C136.694 759.889 136.818 760.523 137.065 761.051C137.319 761.572 137.677 761.972 138.139 762.252C138.608 762.532 139.158 762.672 139.79 762.672C140.252 762.672 140.656 762.607 141.001 762.477C141.352 762.346 141.642 762.18 141.87 761.979C142.098 761.77 142.257 761.552 142.348 761.324L142.387 761.236H144.077L144.057 761.314C143.973 761.686 143.813 762.044 143.579 762.389C143.345 762.727 143.045 763.033 142.68 763.307C142.316 763.58 141.886 763.795 141.391 763.951C140.897 764.107 140.35 764.186 139.751 764.186ZM146.176 764V753.561H147.875V755.162H148.012C148.201 754.602 148.529 754.166 148.998 753.854C149.467 753.535 150.04 753.375 150.717 753.375C150.873 753.375 151.026 753.385 151.176 753.404C151.326 753.417 151.443 753.43 151.527 753.443V755.094C151.378 755.061 151.218 755.038 151.049 755.025C150.886 755.006 150.707 754.996 150.512 754.996C149.997 754.996 149.542 755.1 149.145 755.309C148.747 755.517 148.435 755.813 148.207 756.197C147.986 756.575 147.875 757.021 147.875 757.535V764H146.176Z" fill="black" fill-opacity="0.2"/>
<path d="M46.4277 632.406V658H43.0879V632.406H46.4277ZM54.6543 632.406V635.184H34.8789V632.406H54.6543ZM61.4922 638.98V658H58.2227V638.98H61.4922ZM57.9766 633.936C57.9766 633.408 58.1348 632.963 58.4512 632.6C58.7793 632.236 59.2598 632.055 59.8926 632.055C60.5137 632.055 60.9883 632.236 61.3164 632.6C61.6562 632.963 61.8262 633.408 61.8262 633.936C61.8262 634.439 61.6562 634.873 61.3164 635.236C60.9883 635.588 60.5137 635.764 59.8926 635.764C59.2598 635.764 58.7793 635.588 58.4512 635.236C58.1348 634.873 57.9766 634.439 57.9766 633.936ZM74.6758 638.98V641.477H64.3926V638.98H74.6758ZM67.873 634.357H71.125V653.289C71.125 653.934 71.2246 654.42 71.4238 654.748C71.623 655.076 71.8809 655.293 72.1973 655.398C72.5137 655.504 72.8535 655.557 73.2168 655.557C73.4863 655.557 73.7676 655.533 74.0605 655.486C74.3652 655.428 74.5938 655.381 74.7461 655.346L74.7637 658C74.5059 658.082 74.166 658.158 73.7441 658.229C73.334 658.311 72.8359 658.352 72.25 658.352C71.4531 658.352 70.7207 658.193 70.0527 657.877C69.3848 657.561 68.8516 657.033 68.4531 656.295C68.0664 655.545 67.873 654.537 67.873 653.271V634.357ZM82.0234 631V658H78.7539V631H82.0234ZM95.1367 658.352C93.8125 658.352 92.6113 658.129 91.5332 657.684C90.4668 657.227 89.5469 656.588 88.7734 655.768C88.0117 654.947 87.4258 653.975 87.0156 652.85C86.6055 651.725 86.4004 650.494 86.4004 649.158V648.42C86.4004 646.873 86.6289 645.496 87.0859 644.289C87.543 643.07 88.1641 642.039 88.9492 641.195C89.7344 640.352 90.625 639.713 91.6211 639.279C92.6172 638.846 93.6484 638.629 94.7148 638.629C96.0742 638.629 97.2461 638.863 98.2305 639.332C99.2266 639.801 100.041 640.457 100.674 641.301C101.307 642.133 101.775 643.117 102.08 644.254C102.385 645.379 102.537 646.609 102.537 647.945V649.404H88.334V646.75H99.2852V646.504C99.2383 645.66 99.0625 644.84 98.7578 644.043C98.4648 643.246 97.9961 642.59 97.3516 642.074C96.707 641.559 95.8281 641.301 94.7148 641.301C93.9766 641.301 93.2969 641.459 92.6758 641.775C92.0547 642.08 91.5215 642.537 91.0762 643.146C90.6309 643.756 90.2852 644.5 90.0391 645.379C89.793 646.258 89.6699 647.271 89.6699 648.42V649.158C89.6699 650.061 89.793 650.91 90.0391 651.707C90.2969 652.492 90.666 653.184 91.1465 653.781C91.6387 654.379 92.2305 654.848 92.9219 655.188C93.625 655.527 94.4219 655.697 95.3125 655.697C96.4609 655.697 97.4336 655.463 98.2305 654.994C99.0273 654.525 99.7246 653.898 100.322 653.113L102.291 654.678C101.881 655.299 101.359 655.891 100.727 656.453C100.094 657.016 99.3145 657.473 98.3887 657.824C97.4746 658.176 96.3906 658.352 95.1367 658.352ZM123.227 638.98V641.477H112.943V638.98H123.227ZM116.424 634.357H119.676V653.289C119.676 653.934 119.775 654.42 119.975 654.748C120.174 655.076 120.432 655.293 120.748 655.398C121.064 655.504 121.404 655.557 121.768 655.557C122.037 655.557 122.318 655.533 122.611 655.486C122.916 655.428 123.145 655.381 123.297 655.346L123.314 658C123.057 658.082 122.717 658.158 122.295 658.229C121.885 658.311 121.387 658.352 120.801 658.352C120.004 658.352 119.271 658.193 118.604 657.877C117.936 657.561 117.402 657.033 117.004 656.295C116.617 655.545 116.424 654.537 116.424 653.271V634.357ZM134.934 658.352C133.609 658.352 132.408 658.129 131.33 657.684C130.264 657.227 129.344 656.588 128.57 655.768C127.809 654.947 127.223 653.975 126.812 652.85C126.402 651.725 126.197 650.494 126.197 649.158V648.42C126.197 646.873 126.426 645.496 126.883 644.289C127.34 643.07 127.961 642.039 128.746 641.195C129.531 640.352 130.422 639.713 131.418 639.279C132.414 638.846 133.445 638.629 134.512 638.629C135.871 638.629 137.043 638.863 138.027 639.332C139.023 639.801 139.838 640.457 140.471 641.301C141.104 642.133 141.572 643.117 141.877 644.254C142.182 645.379 142.334 646.609 142.334 647.945V649.404H128.131V646.75H139.082V646.504C139.035 645.66 138.859 644.84 138.555 644.043C138.262 643.246 137.793 642.59 137.148 642.074C136.504 641.559 135.625 641.301 134.512 641.301C133.773 641.301 133.094 641.459 132.473 641.775C131.852 642.08 131.318 642.537 130.873 643.146C130.428 643.756 130.082 644.5 129.836 645.379C129.59 646.258 129.467 647.271 129.467 648.42V649.158C129.467 650.061 129.59 650.91 129.836 651.707C130.094 652.492 130.463 653.184 130.943 653.781C131.436 654.379 132.027 654.848 132.719 655.188C133.422 655.527 134.219 655.697 135.109 655.697C136.258 655.697 137.23 655.463 138.027 654.994C138.824 654.525 139.521 653.898 140.119 653.113L142.088 654.678C141.678 655.299 141.156 655.891 140.523 656.453C139.891 657.016 139.111 657.473 138.186 657.824C137.271 658.176 136.188 658.352 134.934 658.352ZM148.328 638.98L152.494 645.906L156.713 638.98H160.527L154.305 648.367L160.721 658H156.959L152.564 650.863L148.17 658H144.391L150.789 648.367L144.584 638.98H148.328ZM171.953 638.98V641.477H161.67V638.98H171.953ZM165.15 634.357H168.402V653.289C168.402 653.934 168.502 654.42 168.701 654.748C168.9 655.076 169.158 655.293 169.475 655.398C169.791 655.504 170.131 655.557 170.494 655.557C170.764 655.557 171.045 655.533 171.338 655.486C171.643 655.428 171.871 655.381 172.023 655.346L172.041 658C171.783 658.082 171.443 658.158 171.021 658.229C170.611 658.311 170.113 658.352 169.527 658.352C168.73 658.352 167.998 658.193 167.33 657.877C166.662 657.561 166.129 657.033 165.73 656.295C165.344 655.545 165.15 654.537 165.15 653.271V634.357Z" fill="#0B1E3D"/>
<g filter="url(#filter7_dd_4_41)">
<g clip-path="url(#clip1_4_41)">
<rect x="34" y="802" width="374" height="43" rx="20" fill="black"/>
<g clip-path="url(#clip2_4_41)">
<g clip-path="url(#clip3_4_41)">
<path d="M182.758 823.417C182.751 822.218 183.294 821.314 184.391 820.648C183.777 819.769 182.849 819.286 181.626 819.193C180.467 819.101 179.2 819.868 178.736 819.868C178.246 819.868 177.124 819.224 176.242 819.224C174.421 819.252 172.485 820.676 172.485 823.573C172.485 824.429 172.642 825.313 172.955 826.224C173.373 827.423 174.881 830.36 176.454 830.312C177.277 830.293 177.859 829.729 178.929 829.729C179.968 829.729 180.506 830.312 181.424 830.312C183.011 830.29 184.375 827.62 184.772 826.417C182.644 825.413 182.758 823.478 182.758 823.417ZM180.91 818.055C181.802 816.997 181.721 816.034 181.694 815.688C180.907 815.733 179.996 816.224 179.478 816.827C178.907 817.473 178.571 818.273 178.643 819.175C179.494 819.24 180.271 818.802 180.91 818.055Z" fill="white"/>
</g>
</g>
<path d="M189.564 825.657H193.27V826.5H188.528V818.68H189.564V825.657ZM194.028 823.541C194.028 822.971 194.14 822.459 194.363 822.004C194.587 821.55 194.899 821.199 195.298 820.952C195.697 820.705 196.153 820.581 196.665 820.581C197.456 820.581 198.096 820.855 198.585 821.403C199.074 821.951 199.318 822.679 199.318 823.589V823.659C199.318 824.224 199.21 824.732 198.993 825.181C198.777 825.631 198.467 825.981 198.064 826.231C197.661 826.482 197.198 826.607 196.676 826.607C195.888 826.607 195.25 826.333 194.761 825.786C194.272 825.238 194.028 824.513 194.028 823.61V823.541ZM195.027 823.659C195.027 824.303 195.176 824.821 195.475 825.211C195.774 825.601 196.174 825.796 196.676 825.796C197.181 825.796 197.582 825.599 197.879 825.203C198.176 824.807 198.325 824.253 198.325 823.541C198.325 822.903 198.173 822.387 197.871 821.991C197.568 821.595 197.166 821.397 196.665 821.397C196.174 821.397 195.779 821.593 195.478 821.983C195.177 822.373 195.027 822.932 195.027 823.659ZM200.328 823.546C200.328 822.64 200.537 821.919 200.956 821.384C201.375 820.849 201.93 820.581 202.621 820.581C203.33 820.581 203.884 820.832 204.281 821.333L204.329 820.688H205.237V826.36C205.237 827.112 205.014 827.705 204.568 828.138C204.123 828.571 203.524 828.788 202.772 828.788C202.353 828.788 201.943 828.699 201.542 828.52C201.141 828.34 200.835 828.095 200.623 827.784L201.139 827.188C201.565 827.714 202.086 827.977 202.702 827.977C203.185 827.977 203.562 827.841 203.833 827.569C204.103 827.297 204.238 826.914 204.238 826.419V825.92C203.841 826.378 203.298 826.607 202.611 826.607C201.93 826.607 201.38 826.333 200.959 825.786C200.538 825.238 200.328 824.491 200.328 823.546ZM201.327 823.659C201.327 824.314 201.461 824.829 201.73 825.203C201.998 825.577 202.374 825.764 202.858 825.764C203.484 825.764 203.945 825.479 204.238 824.91V822.257C203.934 821.702 203.477 821.424 202.869 821.424C202.385 821.424 202.007 821.612 201.735 821.988C201.463 822.364 201.327 822.921 201.327 823.659ZM210.538 826.5H209.545V820.688H210.538V826.5ZM209.464 819.147C209.464 818.986 209.513 818.85 209.612 818.739C209.71 818.628 209.856 818.572 210.05 818.572C210.243 818.572 210.39 818.628 210.49 818.739C210.59 818.85 210.641 818.986 210.641 819.147C210.641 819.308 210.59 819.442 210.49 819.55C210.39 819.657 210.243 819.711 210.05 819.711C209.856 819.711 209.71 819.657 209.612 819.55C209.513 819.442 209.464 819.308 209.464 819.147ZM213.068 820.688L213.1 821.419C213.544 820.86 214.125 820.581 214.841 820.581C216.069 820.581 216.688 821.274 216.699 822.66V826.5H215.705V822.654C215.702 822.235 215.606 821.926 215.418 821.725C215.23 821.525 214.937 821.424 214.54 821.424C214.218 821.424 213.935 821.51 213.691 821.682C213.448 821.854 213.258 822.08 213.122 822.359V826.5H212.128V820.688H213.068ZM226.066 825.13L227.183 820.688H228.177L226.485 826.5H225.68L224.267 822.096L222.892 826.5H222.086L220.4 820.688H221.388L222.532 825.039L223.886 820.688H224.686L226.066 825.13ZM230.266 826.5H229.273V820.688H230.266V826.5ZM229.192 819.147C229.192 818.986 229.241 818.85 229.34 818.739C229.438 818.628 229.584 818.572 229.778 818.572C229.971 818.572 230.118 818.628 230.218 818.739C230.318 818.85 230.369 818.986 230.369 819.147C230.369 819.308 230.318 819.442 230.218 819.55C230.118 819.657 229.971 819.711 229.778 819.711C229.584 819.711 229.438 819.657 229.34 819.55C229.241 819.442 229.192 819.308 229.192 819.147ZM233.204 819.281V820.688H234.289V821.457H233.204V825.061C233.204 825.293 233.253 825.468 233.349 825.584C233.446 825.701 233.611 825.759 233.844 825.759C233.958 825.759 234.116 825.737 234.316 825.694V826.5C234.055 826.572 233.801 826.607 233.554 826.607C233.11 826.607 232.775 826.473 232.549 826.205C232.324 825.936 232.211 825.555 232.211 825.061V821.457H231.153V820.688H232.211V819.281H233.204ZM236.443 821.392C236.884 820.851 237.457 820.581 238.162 820.581C239.39 820.581 240.01 821.274 240.02 822.66V826.5H239.027V822.654C239.023 822.235 238.927 821.926 238.739 821.725C238.551 821.525 238.259 821.424 237.861 821.424C237.539 821.424 237.256 821.51 237.013 821.682C236.769 821.854 236.579 822.08 236.443 822.359V826.5H235.45V818.25H236.443V821.392ZM248.705 824.459H245.429L244.693 826.5H243.63L246.616 818.68H247.518L250.51 826.5H249.452L248.705 824.459ZM245.741 823.61H248.399L247.067 819.953L245.741 823.61ZM256.316 823.659C256.316 824.543 256.114 825.256 255.709 825.796C255.305 826.337 254.757 826.607 254.066 826.607C253.36 826.607 252.805 826.384 252.401 825.936V828.734H251.407V820.688H252.315L252.363 821.333C252.768 820.832 253.33 820.581 254.05 820.581C254.748 820.581 255.3 820.844 255.707 821.371C256.113 821.897 256.316 822.629 256.316 823.567V823.659ZM255.323 823.546C255.323 822.891 255.183 822.373 254.904 821.994C254.624 821.614 254.241 821.424 253.754 821.424C253.153 821.424 252.702 821.691 252.401 822.225V825.001C252.698 825.531 253.153 825.796 253.765 825.796C254.241 825.796 254.62 825.608 254.901 825.23C255.182 824.852 255.323 824.291 255.323 823.546ZM262.488 823.659C262.488 824.543 262.285 825.256 261.881 825.796C261.476 826.337 260.928 826.607 260.237 826.607C259.532 826.607 258.977 826.384 258.572 825.936V828.734H257.578V820.688H258.486L258.535 821.333C258.939 820.832 259.501 820.581 260.221 820.581C260.919 820.581 261.472 820.844 261.878 821.371C262.284 821.897 262.488 822.629 262.488 823.567V823.659ZM261.494 823.546C261.494 822.891 261.354 822.373 261.075 821.994C260.796 821.614 260.413 821.424 259.926 821.424C259.324 821.424 258.873 821.691 258.572 822.225V825.001C258.869 825.531 259.324 825.796 259.936 825.796C260.413 825.796 260.791 825.608 261.072 825.23C261.353 824.852 261.494 824.291 261.494 823.546ZM264.829 826.5H263.836V818.25H264.829V826.5ZM268.831 826.607C268.043 826.607 267.402 826.349 266.908 825.831C266.414 825.314 266.167 824.622 266.167 823.755V823.573C266.167 822.996 266.277 822.482 266.497 822.029C266.717 821.576 267.025 821.221 267.421 820.965C267.817 820.709 268.245 820.581 268.707 820.581C269.463 820.581 270.05 820.83 270.469 821.328C270.888 821.825 271.098 822.538 271.098 823.465V823.879H267.161C267.175 824.452 267.342 824.915 267.663 825.267C267.983 825.62 268.391 825.796 268.885 825.796C269.236 825.796 269.533 825.725 269.776 825.582C270.02 825.438 270.233 825.249 270.415 825.012L271.022 825.485C270.535 826.233 269.805 826.607 268.831 826.607ZM268.707 821.397C268.306 821.397 267.97 821.543 267.698 821.835C267.425 822.127 267.257 822.536 267.193 823.062H270.104V822.987C270.075 822.482 269.939 822.091 269.696 821.814C269.452 821.536 269.123 821.397 268.707 821.397Z" fill="white"/>
</g>
<rect x="35" y="803" width="372" height="41" rx="19" stroke="black" stroke-width="2"/>
</g>
<g filter="url(#filter8_dd_4_41)">
<g clip-path="url(#clip4_4_41)">
<rect x="34" y="866" width="374" height="43" rx="20" fill="white"/>
<g clip-path="url(#clip5_4_41)">
<g clip-path="url(#clip6_4_41)">
<path d="M159.344 885.531H158.74V885.5H151.99V888.5H156.229C155.61 890.246 153.949 891.5 151.99 891.5C149.505 891.5 147.49 889.485 147.49 887C147.49 884.515 149.505 882.5 151.99 882.5C153.137 882.5 154.181 882.933 154.975 883.64L157.097 881.518C155.757 880.27 153.965 879.5 151.99 879.5C147.848 879.5 144.49 882.858 144.49 887C144.49 891.142 147.848 894.5 151.99 894.5C156.132 894.5 159.49 891.142 159.49 887C159.49 886.497 159.438 886.006 159.344 885.531Z" fill="#FFC107"/>
<path d="M145.355 883.509L147.819 885.316C148.486 883.665 150.1 882.5 151.99 882.5C153.137 882.5 154.181 882.933 154.975 883.64L157.097 881.518C155.757 880.27 153.965 879.5 151.99 879.5C149.109 879.5 146.611 881.126 145.355 883.509Z" fill="#FF3D00"/>
<path d="M151.99 894.5C153.927 894.5 155.687 893.759 157.018 892.553L154.697 890.589C153.919 891.181 152.968 891.501 151.99 891.5C150.039 891.5 148.383 890.256 147.759 888.52L145.313 890.405C146.554 892.833 149.075 894.5 151.99 894.5Z" fill="#4CAF50"/>
<path d="M159.344 885.531H158.74V885.5H151.99V888.5H156.229C155.933 889.331 155.4 890.057 154.696 890.589L154.697 890.588L157.018 892.553C156.854 892.702 159.49 890.75 159.49 887C159.49 886.497 159.438 886.006 159.344 885.531Z" fill="#1976D2"/>
</g>
</g>
<path d="M209.934 889.657H213.64V890.5H208.898V882.68H209.934V889.657ZM214.398 887.541C214.398 886.971 214.51 886.459 214.733 886.004C214.957 885.55 215.269 885.199 215.668 884.952C216.067 884.705 216.523 884.581 217.035 884.581C217.826 884.581 218.466 884.855 218.955 885.403C219.444 885.951 219.688 886.679 219.688 887.589V887.659C219.688 888.224 219.58 888.732 219.363 889.181C219.147 889.631 218.837 889.981 218.434 890.231C218.031 890.482 217.568 890.607 217.046 890.607C216.258 890.607 215.62 890.333 215.131 889.786C214.642 889.238 214.398 888.513 214.398 887.61V887.541ZM215.397 887.659C215.397 888.303 215.546 888.821 215.845 889.211C216.144 889.601 216.544 889.796 217.046 889.796C217.551 889.796 217.952 889.599 218.249 889.203C218.546 888.807 218.695 888.253 218.695 887.541C218.695 886.903 218.543 886.387 218.241 885.991C217.938 885.595 217.536 885.397 217.035 885.397C216.544 885.397 216.149 885.593 215.848 885.983C215.547 886.373 215.397 886.932 215.397 887.659ZM220.698 887.546C220.698 886.64 220.907 885.919 221.326 885.384C221.745 884.849 222.3 884.581 222.991 884.581C223.7 884.581 224.254 884.832 224.651 885.333L224.699 884.688H225.607V890.36C225.607 891.112 225.384 891.705 224.938 892.138C224.493 892.571 223.894 892.788 223.142 892.788C222.723 892.788 222.313 892.699 221.912 892.52C221.511 892.34 221.205 892.095 220.993 891.784L221.509 891.188C221.935 891.714 222.456 891.977 223.072 891.977C223.555 891.977 223.932 891.841 224.203 891.569C224.473 891.297 224.608 890.914 224.608 890.419V889.92C224.211 890.378 223.668 890.607 222.981 890.607C222.3 890.607 221.75 890.333 221.329 889.786C220.908 889.238 220.698 888.491 220.698 887.546ZM221.697 887.659C221.697 888.314 221.831 888.829 222.1 889.203C222.368 889.577 222.744 889.764 223.228 889.764C223.854 889.764 224.315 889.479 224.608 888.91V886.257C224.304 885.702 223.847 885.424 223.239 885.424C222.755 885.424 222.377 885.612 222.105 885.988C221.833 886.364 221.697 886.921 221.697 887.659ZM230.908 890.5H229.915V884.688H230.908V890.5ZM229.834 883.147C229.834 882.986 229.883 882.85 229.982 882.739C230.08 882.628 230.226 882.572 230.42 882.572C230.613 882.572 230.76 882.628 230.86 882.739C230.96 882.85 231.01 882.986 231.01 883.147C231.01 883.308 230.96 883.442 230.86 883.55C230.76 883.657 230.613 883.711 230.42 883.711C230.226 883.711 230.08 883.657 229.982 883.55C229.883 883.442 229.834 883.308 229.834 883.147ZM233.438 884.688L233.47 885.419C233.914 884.86 234.495 884.581 235.211 884.581C236.439 884.581 237.058 885.274 237.069 886.66V890.5H236.075V886.654C236.072 886.235 235.976 885.926 235.788 885.725C235.6 885.525 235.307 885.424 234.91 885.424C234.588 885.424 234.305 885.51 234.061 885.682C233.818 885.854 233.628 886.08 233.492 886.359V890.5H232.498V884.688H233.438ZM246.436 889.13L247.553 884.688H248.547L246.855 890.5H246.05L244.637 886.096L243.262 890.5H242.456L240.77 884.688H241.758L242.902 889.039L244.256 884.688H245.056L246.436 889.13ZM250.636 890.5H249.643V884.688H250.636V890.5ZM249.562 883.147C249.562 882.986 249.611 882.85 249.71 882.739C249.808 882.628 249.954 882.572 250.148 882.572C250.341 882.572 250.488 882.628 250.588 882.739C250.688 882.85 250.739 882.986 250.739 883.147C250.739 883.308 250.688 883.442 250.588 883.55C250.488 883.657 250.341 883.711 250.148 883.711C249.954 883.711 249.808 883.657 249.71 883.55C249.611 883.442 249.562 883.308 249.562 883.147ZM253.574 883.281V884.688H254.659V885.457H253.574V889.061C253.574 889.293 253.623 889.468 253.719 889.584C253.816 889.701 253.981 889.759 254.214 889.759C254.328 889.759 254.486 889.737 254.686 889.694V890.5C254.425 890.572 254.171 890.607 253.924 890.607C253.48 890.607 253.145 890.473 252.919 890.205C252.694 889.936 252.581 889.555 252.581 889.061V885.457H251.523V884.688H252.581V883.281H253.574ZM256.813 885.392C257.254 884.851 257.827 884.581 258.532 884.581C259.76 884.581 260.38 885.274 260.39 886.66V890.5H259.397V886.654C259.393 886.235 259.297 885.926 259.109 885.725C258.921 885.525 258.629 885.424 258.231 885.424C257.909 885.424 257.626 885.51 257.383 885.682C257.139 885.854 256.949 886.08 256.813 886.359V890.5H255.82V882.25H256.813V885.392ZM270.531 889.474C270.266 889.854 269.896 890.137 269.422 890.325C268.947 890.513 268.395 890.607 267.765 890.607C267.128 890.607 266.562 890.458 266.068 890.159C265.573 889.86 265.191 889.435 264.921 888.883C264.651 888.332 264.512 887.693 264.505 886.966V886.284C264.505 885.106 264.779 884.193 265.329 883.544C265.879 882.896 266.651 882.572 267.647 882.572C268.463 882.572 269.12 882.781 269.618 883.198C270.116 883.615 270.42 884.207 270.531 884.973H269.5C269.306 883.938 268.691 883.421 267.652 883.421C266.961 883.421 266.437 883.663 266.081 884.149C265.725 884.634 265.545 885.337 265.541 886.257V886.896C265.541 887.773 265.742 888.471 266.143 888.988C266.544 889.505 267.086 889.764 267.77 889.764C268.157 889.764 268.495 889.721 268.785 889.635C269.075 889.549 269.315 889.404 269.505 889.2V887.444H267.695V886.606H270.531V889.474ZM271.831 887.541C271.831 886.971 271.943 886.459 272.167 886.004C272.39 885.55 272.702 885.199 273.101 884.952C273.5 884.705 273.956 884.581 274.468 884.581C275.259 884.581 275.899 884.855 276.388 885.403C276.877 885.951 277.121 886.679 277.121 887.589V887.659C277.121 888.224 277.013 888.732 276.796 889.181C276.58 889.631 276.27 889.981 275.867 890.231C275.464 890.482 275.002 890.607 274.479 890.607C273.691 890.607 273.053 890.333 272.564 889.786C272.075 889.238 271.831 888.513 271.831 887.61V887.541ZM272.83 887.659C272.83 888.303 272.979 888.821 273.278 889.211C273.577 889.601 273.977 889.796 274.479 889.796C274.984 889.796 275.385 889.599 275.682 889.203C275.979 888.807 276.128 888.253 276.128 887.541C276.128 886.903 275.976 886.387 275.674 885.991C275.371 885.595 274.969 885.397 274.468 885.397C273.977 885.397 273.582 885.593 273.281 885.983C272.98 886.373 272.83 886.932 272.83 887.659ZM278.104 887.541C278.104 886.971 278.216 886.459 278.44 886.004C278.664 885.55 278.975 885.199 279.375 884.952C279.774 884.705 280.229 884.581 280.741 884.581C281.533 884.581 282.173 884.855 282.662 885.403C283.15 885.951 283.395 886.679 283.395 887.589V887.659C283.395 888.224 283.286 888.732 283.07 889.181C282.853 889.631 282.543 889.981 282.141 890.231C281.738 890.482 281.275 890.607 280.752 890.607C279.964 890.607 279.326 890.333 278.837 889.786C278.349 889.238 278.104 888.513 278.104 887.61V887.541ZM279.103 887.659C279.103 888.303 279.253 888.821 279.552 889.211C279.851 889.601 280.251 889.796 280.752 889.796C281.257 889.796 281.658 889.599 281.955 889.203C282.253 888.807 282.401 888.253 282.401 887.541C282.401 886.903 282.25 886.387 281.947 885.991C281.645 885.595 281.243 885.397 280.741 885.397C280.251 885.397 279.855 885.593 279.554 885.983C279.254 886.373 279.103 886.932 279.103 887.659ZM284.405 887.546C284.405 886.64 284.614 885.919 285.033 885.384C285.452 884.849 286.007 884.581 286.698 884.581C287.407 884.581 287.96 884.832 288.358 885.333L288.406 884.688H289.314V890.36C289.314 891.112 289.091 891.705 288.645 892.138C288.199 892.571 287.6 892.788 286.848 892.788C286.429 892.788 286.019 892.699 285.618 892.52C285.217 892.34 284.911 892.095 284.7 891.784L285.216 891.188C285.642 891.714 286.163 891.977 286.779 891.977C287.262 891.977 287.639 891.841 287.909 891.569C288.18 891.297 288.315 890.914 288.315 890.419V889.92C287.917 890.378 287.375 890.607 286.687 890.607C286.007 890.607 285.456 890.333 285.036 889.786C284.615 889.238 284.405 888.491 284.405 887.546ZM285.404 887.659C285.404 888.314 285.538 888.829 285.806 889.203C286.075 889.577 286.451 889.764 286.934 889.764C287.561 889.764 288.021 889.479 288.315 888.91V886.257C288.01 885.702 287.554 885.424 286.945 885.424C286.462 885.424 286.084 885.612 285.812 885.988C285.54 886.364 285.404 886.921 285.404 887.659ZM291.892 890.5H290.898V882.25H291.892V890.5ZM295.893 890.607C295.106 890.607 294.465 890.349 293.97 889.831C293.476 889.314 293.229 888.622 293.229 887.755V887.573C293.229 886.996 293.339 886.482 293.56 886.029C293.78 885.576 294.088 885.221 294.483 884.965C294.879 884.709 295.308 884.581 295.77 884.581C296.525 884.581 297.113 884.83 297.531 885.328C297.95 885.825 298.16 886.538 298.16 887.465V887.879H294.223C294.237 888.452 294.405 888.915 294.725 889.267C295.046 889.62 295.453 889.796 295.947 889.796C296.298 889.796 296.595 889.725 296.839 889.582C297.082 889.438 297.295 889.249 297.478 889.012L298.085 889.485C297.598 890.233 296.867 890.607 295.893 890.607ZM295.77 885.397C295.369 885.397 295.032 885.543 294.76 885.835C294.488 886.127 294.32 886.536 294.255 887.062H297.166V886.987C297.138 886.482 297.002 886.091 296.758 885.814C296.515 885.536 296.185 885.397 295.77 885.397Z" fill="black"/>
</g>
<rect x="35" y="867" width="372" height="41" rx="19" stroke="#747474" stroke-width="2"/>
</g>
</g>
<defs>
<filter id="filter0_d_4_41" x="30" y="43" width="370" height="66" filterUnits="userSpaceOnUse" color-interpolation-filters="sRGB">
<feFlood flood-opacity="0" result="BackgroundImageFix"/>
<feColorMatrix in="SourceAlpha" type="matrix" values="0 0 0 0 0 0 0 0 0 0 0 0 0 0 0 0 0 0 127 0" result="hardAlpha"/>
<feOffset dy="4"/>
<feGaussianBlur stdDeviation="2"/>
<feComposite in2="hardAlpha" operator="out"/>
<feColorMatrix type="matrix" values="0 0 0 0 0 0 0 0 0 0 0 0 0 0 0 0 0 0 0.25 0"/>
<feBlend mode="normal" in2="BackgroundImageFix" result="effect1_dropShadow_4_41"/>
<feBlend mode="normal" in="SourceGraphic" in2="effect1_dropShadow_4_41" result="shape"/>
</filter>
<filter id="filter1_d_4_41" x="30" y="359" width="370" height="66" filterUnits="userSpaceOnUse" color-interpolation-filters="sRGB">
<feFlood flood-opacity="0" result="BackgroundImageFix"/>
<feColorMatrix in="SourceAlpha" type="matrix" values="0 0 0 0 0 0 0 0 0 0 0 0 0 0 0 0 0 0 127 0" result="hardAlpha"/>
<feOffset dy="4"/>
<feGaussianBlur stdDeviation="2"/>
<feComposite in2="hardAlpha" operator="out"/>
<feColorMatrix type="matrix" values="0 0 0 0 0 0 0 0 0 0 0 0 0 0 0 0 0 0 0.25 0"/>
<feBlend mode="normal" in2="BackgroundImageFix" result="effect1_dropShadow_4_41"/>
<feBlend mode="normal" in="SourceGraphic" in2="effect1_dropShadow_4_41" result="shape"/>
</filter>
<filter id="filter2_d_4_41" x="30" y="438" width="189" height="66" filterUnits="userSpaceOnUse" color-interpolation-filters="sRGB">
<feFlood flood-opacity="0" result="BackgroundImageFix"/>
<feColorMatrix in="SourceAlpha" type="matrix" values="0 0 0 0 0 0 0 0 0 0 0 0 0 0 0 0 0 0 127 0" result="hardAlpha"/>
<feOffset dy="4"/>
<feGaussianBlur stdDeviation="2"/>
<feComposite in2="hardAlpha" operator="out"/>
<feColorMatrix type="matrix" values="0 0 0 0 0 0 0 0 0 0 0 0 0 0 0 0 0 0 0.25 0"/>
<feBlend mode="normal" in2="BackgroundImageFix" result="effect1_dropShadow_4_41"/>
<feBlend mode="normal" in="SourceGraphic" in2="effect1_dropShadow_4_41" result="shape"/>
</filter>
<filter id="filter3_d_4_41" x="30" y="201" width="189" height="66" filterUnits="userSpaceOnUse" color-interpolation-filters="sRGB">
<feFlood flood-opacity="0" result="BackgroundImageFix"/>
<feColorMatrix in="SourceAlpha" type="matrix" values="0 0 0 0 0 0 0 0 0 0 0 0 0 0 0 0 0 0 127 0" result="hardAlpha"/>
<feOffset dy="4"/>
<feGaussianBlur stdDeviation="2"/>
<feComposite in2="hardAlpha" operator="out"/>
<feColorMatrix type="matrix" values="0 0 0 0 0 0 0 0 0 0 0 0 0 0 0 0 0 0 0.25 0"/>
<feBlend mode="normal" in2="BackgroundImageFix" result="effect1_dropShadow_4_41"/>
<feBlend mode="normal" in="SourceGraphic" in2="effect1_dropShadow_4_41" result="shape"/>
</filter>
<filter id="filter4_d_4_41" x="30" y="201" width="189" height="66" filterUnits="userSpaceOnUse" color-interpolation-filters="sRGB">
<feFlood flood-opacity="0" result="BackgroundImageFix"/>
<feColorMatrix in="SourceAlpha" type="matrix" values="0 0 0 0 0 0 0 0 0 0 0 0 0 0 0 0 0 0 127 0" result="hardAlpha"/>
<feOffset dy="4"/>
<feGaussianBlur stdDeviation="2"/>
<feComposite in2="hardAlpha" operator="out"/>
<feColorMatrix type="matrix" values="0 0 0 0 0 0 0 0 0 0 0 0 0 0 0 0 0 0 0.25 0"/>
<feBlend mode="normal" in2="BackgroundImageFix" result="effect1_dropShadow_4_41"/>
<feBlend mode="normal" in="SourceGraphic" in2="effect1_dropShadow_4_41" result="shape"/>
</filter>
<filter id="filter5_d_4_41" x="30" y="280" width="189" height="66" filterUnits="userSpaceOnUse" color-interpolation-filters="sRGB">
<feFlood flood-opacity="0" result="BackgroundImageFix"/>
<feColorMatrix in="SourceAlpha" type="matrix" values="0 0 0 0 0 0 0 0 0 0 0 0 0 0 0 0 0 0 127 0" result="hardAlpha"/>
<feOffset dy="4"/>
<feGaussianBlur stdDeviation="2"/>
<feComposite in2="hardAlpha" operator="out"/>
<feColorMatrix type="matrix" values="0 0 0 0 0 0 0 0 0 0 0 0 0 0 0 0 0 0 0.25 0"/>
<feBlend mode="normal" in2="BackgroundImageFix" result="effect1_dropShadow_4_41"/>
<feBlend mode="normal" in="SourceGraphic" in2="effect1_dropShadow_4_41" result="shape"/>
</filter>
<filter id="filter6_d_4_41" x="30" y="122" width="370" height="66" filterUnits="userSpaceOnUse" color-interpolation-filters="sRGB">
<feFlood flood-opacity="0" result="BackgroundImageFix"/>
<feColorMatrix in="SourceAlpha" type="matrix" values="0 0 0 0 0 0 0 0 0 0 0 0 0 0 0 0 0 0 127 0" result="hardAlpha"/>
<feOffset dy="4"/>
<feGaussianBlur stdDeviation="2"/>
<feComposite in2="hardAlpha" operator="out"/>
<feColorMatrix type="matrix" values="0 0 0 0 0 0 0 0 0 0 0 0 0 0 0 0 0 0 0.25 0"/>
<feBlend mode="normal" in2="BackgroundImageFix" result="effect1_dropShadow_4_41"/>
<feBlend mode="normal" in="SourceGraphic" in2="effect1_dropShadow_4_41" result="shape"/>
</filter>
<filter id="filter7_dd_4_41" x="-2" y="776" width="446" height="115" filterUnits="userSpaceOnUse" color-interpolation-filters="sRGB">
<feFlood flood-opacity="0" result="BackgroundImageFix"/>
<feColorMatrix in="SourceAlpha" type="matrix" values="0 0 0 0 0 0 0 0 0 0 0 0 0 0 0 0 0 0 127 0" result="hardAlpha"/>
<feMorphology radius="1" operator="dilate" in="SourceAlpha" result="effect1_dropShadow_4_41"/>
<feOffset/>
<feComposite in2="hardAlpha" operator="out"/>
<feColorMatrix type="matrix" values="0 0 0 0 0 0 0 0 0 0 0 0 0 0 0 0 0 0 0.06 0"/>
<feBlend mode="normal" in2="BackgroundImageFix" result="effect1_dropShadow_4_41"/>
<feColorMatrix in="SourceAlpha" type="matrix" values="0 0 0 0 0 0 0 0 0 0 0 0 0 0 0 0 0 0 127 0" result="hardAlpha"/>
<feOffset dy="10"/>
<feGaussianBlur stdDeviation="18"/>
<feComposite in2="hardAlpha" operator="out"/>
<feColorMatrix type="matrix" values="0 0 0 0 0 0 0 0 0 0 0 0 0 0 0 0 0 0 0.16 0"/>
<feBlend mode="normal" in2="effect1_dropShadow_4_41" result="effect2_dropShadow_4_41"/>
<feBlend mode="normal" in="SourceGraphic" in2="effect2_dropShadow_4_41" result="shape"/>
</filter>
<filter id="filter8_dd_4_41" x="-2" y="840" width="446" height="115" filterUnits="userSpaceOnUse" color-interpolation-filters="sRGB">
<feFlood flood-opacity="0" result="BackgroundImageFix"/>
<feColorMatrix in="SourceAlpha" type="matrix" values="0 0 0 0 0 0 0 0 0 0 0 0 0 0 0 0 0 0 127 0" result="hardAlpha"/>
<feMorphology radius="1" operator="dilate" in="SourceAlpha" result="effect1_dropShadow_4_41"/>
<feOffset/>
<feComposite in2="hardAlpha" operator="out"/>
<feColorMatrix type="matrix" values="0 0 0 0 0 0 0 0 0 0 0 0 0 0 0 0 0 0 0.06 0"/>
<feBlend mode="normal" in2="BackgroundImageFix" result="effect1_dropShadow_4_41"/>
<feColorMatrix in="SourceAlpha" type="matrix" values="0 0 0 0 0 0 0 0 0 0 0 0 0 0 0 0 0 0 127 0" result="hardAlpha"/>
<feOffset dy="10"/>
<feGaussianBlur stdDeviation="18"/>
<feComposite in2="hardAlpha" operator="out"/>
<feColorMatrix type="matrix" values="0 0 0 0 0 0 0 0 0 0 0 0 0 0 0 0 0 0 0.16 0"/>
<feBlend mode="normal" in2="effect1_dropShadow_4_41" result="effect2_dropShadow_4_41"/>
<feBlend mode="normal" in="SourceGraphic" in2="effect2_dropShadow_4_41" result="shape"/>
</filter>
<clipPath id="clip0_4_41">
<rect width="430" height="932" fill="white"/>
</clipPath>
<clipPath id="clip1_4_41">
<rect x="34" y="802" width="374" height="43" rx="20" fill="white"/>
</clipPath>
<clipPath id="clip2_4_41">
<rect width="18" height="18" fill="white" transform="translate(169.62 814)"/>
</clipPath>
<clipPath id="clip3_4_41">
<rect width="18" height="18" fill="white" transform="translate(169.62 814)"/>
</clipPath>
<clipPath id="clip4_4_41">
<rect x="34" y="866" width="374" height="43" rx="20" fill="white"/>
</clipPath>
<clipPath id="clip5_4_41">
<rect width="22" height="18" fill="white" transform="translate(142.99 878)"/>
</clipPath>
<clipPath id="clip6_4_41">
<rect width="18" height="18" fill="white" transform="translate(142.99 878)"/>
</clipPath>
</defs>
</svg>
