<svg width="430" height="932" viewBox="0 0 430 932" fill="none" xmlns="http://www.w3.org/2000/svg">
<rect width="430" height="932" fill="white"/>
<g filter="url(#filter0_d_4_41)">
<rect x="34" y="43" width="362" height="58" rx="20" fill="black"/>
<path d="M189.59 81.2402V84H176.793V81.2402H189.59ZM177.461 58.4062V84H174.068V58.4062H177.461ZM192.121 74.7012V74.2969C192.121 72.9258 192.32 71.6543 192.719 70.4824C193.117 69.2988 193.691 68.2734 194.441 67.4062C195.191 66.5273 196.1 65.8477 197.166 65.3672C198.232 64.875 199.428 64.6289 200.752 64.6289C202.088 64.6289 203.289 64.875 204.355 65.3672C205.434 65.8477 206.348 66.5273 207.098 67.4062C207.859 68.2734 208.439 69.2988 208.838 70.4824C209.236 71.6543 209.436 72.9258 209.436 74.2969V74.7012C209.436 76.0723 209.236 77.3438 208.838 78.5156C208.439 79.6875 207.859 80.7129 207.098 81.5918C206.348 82.459 205.439 83.1387 204.373 83.6309C203.318 84.1113 202.123 84.3516 200.787 84.3516C199.451 84.3516 198.25 84.1113 197.184 83.6309C196.117 83.1387 195.203 82.459 194.441 81.5918C193.691 80.7129 193.117 79.6875 192.719 78.5156C192.32 77.3438 192.121 76.0723 192.121 74.7012ZM195.373 74.2969V74.7012C195.373 75.6504 195.484 76.5469 195.707 77.3906C195.93 78.2227 196.264 78.9609 196.709 79.6055C197.166 80.25 197.734 80.7598 198.414 81.1348C199.094 81.498 199.885 81.6797 200.787 81.6797C201.678 81.6797 202.457 81.498 203.125 81.1348C203.805 80.7598 204.367 80.25 204.812 79.6055C205.258 78.9609 205.592 78.2227 205.814 77.3906C206.049 76.5469 206.166 75.6504 206.166 74.7012V74.2969C206.166 73.3594 206.049 72.4746 205.814 71.6426C205.592 70.7988 205.252 70.0547 204.795 69.4102C204.35 68.7539 203.787 68.2383 203.107 67.8633C202.439 67.4883 201.654 67.3008 200.752 67.3008C199.861 67.3008 199.076 67.4883 198.396 67.8633C197.729 68.2383 197.166 68.7539 196.709 69.4102C196.264 70.0547 195.93 70.7988 195.707 71.6426C195.484 72.4746 195.373 73.3594 195.373 74.2969ZM225.836 64.9805H228.789V83.5957C228.789 85.2715 228.449 86.7012 227.77 87.8848C227.09 89.0684 226.141 89.9648 224.922 90.5742C223.715 91.1953 222.32 91.5059 220.738 91.5059C220.082 91.5059 219.309 91.4004 218.418 91.1895C217.539 90.9902 216.672 90.6445 215.816 90.1523C214.973 89.6719 214.264 89.0215 213.689 88.2012L215.395 86.2676C216.191 87.2285 217.023 87.8965 217.891 88.2715C218.77 88.6465 219.637 88.834 220.492 88.834C221.523 88.834 222.414 88.6406 223.164 88.2539C223.914 87.8672 224.494 87.293 224.904 86.5312C225.326 85.7812 225.537 84.8555 225.537 83.7539V69.1641L225.836 64.9805ZM212.74 74.7012V74.332C212.74 72.8789 212.91 71.5605 213.25 70.377C213.602 69.1816 214.1 68.1562 214.744 67.3008C215.4 66.4453 216.191 65.7891 217.117 65.332C218.043 64.8633 219.086 64.6289 220.246 64.6289C221.441 64.6289 222.484 64.8398 223.375 65.2617C224.277 65.6719 225.039 66.2754 225.66 67.0723C226.293 67.8574 226.791 68.8066 227.154 69.9199C227.518 71.0332 227.77 72.293 227.91 73.6992V75.3164C227.781 76.7109 227.529 77.9648 227.154 79.0781C226.791 80.1914 226.293 81.1406 225.66 81.9258C225.039 82.7109 224.277 83.3145 223.375 83.7363C222.473 84.1465 221.418 84.3516 220.211 84.3516C219.074 84.3516 218.043 84.1113 217.117 83.6309C216.203 83.1504 215.418 82.4766 214.762 81.6094C214.105 80.7422 213.602 79.7227 213.25 78.5508C212.91 77.3672 212.74 76.084 212.74 74.7012ZM215.992 74.332V74.7012C215.992 75.6504 216.086 76.541 216.273 77.373C216.473 78.2051 216.771 78.9375 217.17 79.5703C217.58 80.2031 218.102 80.7012 218.734 81.0645C219.367 81.416 220.123 81.5918 221.002 81.5918C222.08 81.5918 222.971 81.3633 223.674 80.9062C224.377 80.4492 224.934 79.8457 225.344 79.0957C225.766 78.3457 226.094 77.5312 226.328 76.6523V72.416C226.199 71.7715 226 71.1504 225.73 70.5527C225.473 69.9434 225.133 69.4043 224.711 68.9355C224.301 68.4551 223.791 68.0742 223.182 67.793C222.572 67.5117 221.857 67.3711 221.037 67.3711C220.146 67.3711 219.379 67.5586 218.734 67.9336C218.102 68.2969 217.58 68.8008 217.17 69.4453C216.771 70.0781 216.473 70.8164 216.273 71.6602C216.086 72.4922 215.992 73.3828 215.992 74.332ZM237.262 64.9805V84H233.992V64.9805H237.262ZM233.746 59.9355C233.746 59.4082 233.904 58.9629 234.221 58.5996C234.549 58.2363 235.029 58.0547 235.662 58.0547C236.283 58.0547 236.758 58.2363 237.086 58.5996C237.426 58.9629 237.596 59.4082 237.596 59.9355C237.596 60.4395 237.426 60.873 237.086 61.2363C236.758 61.5879 236.283 61.7637 235.662 61.7637C235.029 61.7637 234.549 61.5879 234.221 61.2363C233.904 60.873 233.746 60.4395 233.746 59.9355ZM245.734 69.041V84H242.482V64.9805H245.559L245.734 69.041ZM244.961 73.7695L243.607 73.7168C243.619 72.416 243.812 71.2148 244.188 70.1133C244.562 69 245.09 68.0332 245.77 67.2129C246.449 66.3926 247.258 65.7598 248.195 65.3145C249.145 64.8574 250.193 64.6289 251.342 64.6289C252.279 64.6289 253.123 64.7578 253.873 65.0156C254.623 65.2617 255.262 65.6602 255.789 66.2109C256.328 66.7617 256.738 67.4766 257.02 68.3555C257.301 69.2227 257.441 70.2832 257.441 71.5371V84H254.172V71.502C254.172 70.5059 254.025 69.709 253.732 69.1113C253.439 68.502 253.012 68.0625 252.449 67.793C251.887 67.5117 251.195 67.3711 250.375 67.3711C249.566 67.3711 248.828 67.541 248.16 67.8809C247.504 68.2207 246.936 68.6895 246.455 69.2871C245.986 69.8848 245.617 70.5703 245.348 71.3438C245.09 72.1055 244.961 72.9141 244.961 73.7695Z" fill="white"/>
</g>
<g filter="url(#filter1_d_4_41)">
<rect x="34" y="359" width="362" height="58" rx="20" fill="white"/>
<path d="M189.59 397.24V400H176.793V397.24H189.59ZM177.461 374.406V400H174.068V374.406H177.461ZM192.121 390.701V390.297C192.121 388.926 192.32 387.654 192.719 386.482C193.117 385.299 193.691 384.273 194.441 383.406C195.191 382.527 196.1 381.848 197.166 381.367C198.232 380.875 199.428 380.629 200.752 380.629C202.088 380.629 203.289 380.875 204.355 381.367C205.434 381.848 206.348 382.527 207.098 383.406C207.859 384.273 208.439 385.299 208.838 386.482C209.236 387.654 209.436 388.926 209.436 390.297V390.701C209.436 392.072 209.236 393.344 208.838 394.516C208.439 395.688 207.859 396.713 207.098 397.592C206.348 398.459 205.439 399.139 204.373 399.631C203.318 400.111 202.123 400.352 200.787 400.352C199.451 400.352 198.25 400.111 197.184 399.631C196.117 399.139 195.203 398.459 194.441 397.592C193.691 396.713 193.117 395.688 192.719 394.516C192.32 393.344 192.121 392.072 192.121 390.701ZM195.373 390.297V390.701C195.373 391.65 195.484 392.547 195.707 393.391C195.93 394.223 196.264 394.961 196.709 395.605C197.166 396.25 197.734 396.76 198.414 397.135C199.094 397.498 199.885 397.68 200.787 397.68C201.678 397.68 202.457 397.498 203.125 397.135C203.805 396.76 204.367 396.25 204.812 395.605C205.258 394.961 205.592 394.223 205.814 393.391C206.049 392.547 206.166 391.65 206.166 390.701V390.297C206.166 389.359 206.049 388.475 205.814 387.643C205.592 386.799 205.252 386.055 204.795 385.41C204.35 384.754 203.787 384.238 203.107 383.863C202.439 383.488 201.654 383.301 200.752 383.301C199.861 383.301 199.076 383.488 198.396 383.863C197.729 384.238 197.166 384.754 196.709 385.41C196.264 386.055 195.93 386.799 195.707 387.643C195.484 388.475 195.373 389.359 195.373 390.297ZM225.836 380.98H228.789V399.596C228.789 401.271 228.449 402.701 227.77 403.885C227.09 405.068 226.141 405.965 224.922 406.574C223.715 407.195 222.32 407.506 220.738 407.506C220.082 407.506 219.309 407.4 218.418 407.189C217.539 406.99 216.672 406.645 215.816 406.152C214.973 405.672 214.264 405.021 213.689 404.201L215.395 402.268C216.191 403.229 217.023 403.896 217.891 404.271C218.77 404.646 219.637 404.834 220.492 404.834C221.523 404.834 222.414 404.641 223.164 404.254C223.914 403.867 224.494 403.293 224.904 402.531C225.326 401.781 225.537 400.855 225.537 399.754V385.164L225.836 380.98ZM212.74 390.701V390.332C212.74 388.879 212.91 387.561 213.25 386.377C213.602 385.182 214.1 384.156 214.744 383.301C215.4 382.445 216.191 381.789 217.117 381.332C218.043 380.863 219.086 380.629 220.246 380.629C221.441 380.629 222.484 380.84 223.375 381.262C224.277 381.672 225.039 382.275 225.66 383.072C226.293 383.857 226.791 384.807 227.154 385.92C227.518 387.033 227.77 388.293 227.91 389.699V391.316C227.781 392.711 227.529 393.965 227.154 395.078C226.791 396.191 226.293 397.141 225.66 397.926C225.039 398.711 224.277 399.314 223.375 399.736C222.473 400.146 221.418 400.352 220.211 400.352C219.074 400.352 218.043 400.111 217.117 399.631C216.203 399.15 215.418 398.477 214.762 397.609C214.105 396.742 213.602 395.723 213.25 394.551C212.91 393.367 212.74 392.084 212.74 390.701ZM215.992 390.332V390.701C215.992 391.65 216.086 392.541 216.273 393.373C216.473 394.205 216.771 394.938 217.17 395.57C217.58 396.203 218.102 396.701 218.734 397.064C219.367 397.416 220.123 397.592 221.002 397.592C222.08 397.592 222.971 397.363 223.674 396.906C224.377 396.449 224.934 395.846 225.344 395.096C225.766 394.346 226.094 393.531 226.328 392.652V388.416C226.199 387.771 226 387.15 225.73 386.553C225.473 385.943 225.133 385.404 224.711 384.936C224.301 384.455 223.791 384.074 223.182 383.793C222.572 383.512 221.857 383.371 221.037 383.371C220.146 383.371 219.379 383.559 218.734 383.934C218.102 384.297 217.58 384.801 217.17 385.445C216.771 386.078 216.473 386.816 216.273 387.66C216.086 388.492 215.992 389.383 215.992 390.332ZM237.262 380.98V400H233.992V380.98H237.262ZM233.746 375.936C233.746 375.408 233.904 374.963 234.221 374.6C234.549 374.236 235.029 374.055 235.662 374.055C236.283 374.055 236.758 374.236 237.086 374.6C237.426 374.963 237.596 375.408 237.596 375.936C237.596 376.439 237.426 376.873 237.086 377.236C236.758 377.588 236.283 377.764 235.662 377.764C235.029 377.764 234.549 377.588 234.221 377.236C233.904 376.873 233.746 376.439 233.746 375.936ZM245.734 385.041V400H242.482V380.98H245.559L245.734 385.041ZM244.961 389.77L243.607 389.717C243.619 388.416 243.812 387.215 244.188 386.113C244.562 385 245.09 384.033 245.77 383.213C246.449 382.393 247.258 381.76 248.195 381.314C249.145 380.857 250.193 380.629 251.342 380.629C252.279 380.629 253.123 380.758 253.873 381.016C254.623 381.262 255.262 381.66 255.789 382.211C256.328 382.762 256.738 383.477 257.02 384.355C257.301 385.223 257.441 386.283 257.441 387.537V400H254.172V387.502C254.172 386.506 254.025 385.709 253.732 385.111C253.439 384.502 253.012 384.062 252.449 383.793C251.887 383.512 251.195 383.371 250.375 383.371C249.566 383.371 248.828 383.541 248.16 383.881C247.504 384.221 246.936 384.689 246.455 385.287C245.986 385.885 245.617 386.57 245.348 387.344C245.09 388.105 244.961 388.914 244.961 389.77Z" fill="black"/>
</g>
<g filter="url(#filter2_d_4_41)">
<rect x="34" y="438" width="181" height="58" rx="20" fill="white"/>
<path d="M99.5898 476.24V479H86.793V476.24H99.5898ZM87.4609 453.406V479H84.0684V453.406H87.4609ZM102.121 469.701V469.297C102.121 467.926 102.32 466.654 102.719 465.482C103.117 464.299 103.691 463.273 104.441 462.406C105.191 461.527 106.1 460.848 107.166 460.367C108.232 459.875 109.428 459.629 110.752 459.629C112.088 459.629 113.289 459.875 114.355 460.367C115.434 460.848 116.348 461.527 117.098 462.406C117.859 463.273 118.439 464.299 118.838 465.482C119.236 466.654 119.436 467.926 119.436 469.297V469.701C119.436 471.072 119.236 472.344 118.838 473.516C118.439 474.688 117.859 475.713 117.098 476.592C116.348 477.459 115.439 478.139 114.373 478.631C113.318 479.111 112.123 479.352 110.787 479.352C109.451 479.352 108.25 479.111 107.184 478.631C106.117 478.139 105.203 477.459 104.441 476.592C103.691 475.713 103.117 474.688 102.719 473.516C102.32 472.344 102.121 471.072 102.121 469.701ZM105.373 469.297V469.701C105.373 470.65 105.484 471.547 105.707 472.391C105.93 473.223 106.264 473.961 106.709 474.605C107.166 475.25 107.734 475.76 108.414 476.135C109.094 476.498 109.885 476.68 110.787 476.68C111.678 476.68 112.457 476.498 113.125 476.135C113.805 475.76 114.367 475.25 114.812 474.605C115.258 473.961 115.592 473.223 115.814 472.391C116.049 471.547 116.166 470.65 116.166 469.701V469.297C116.166 468.359 116.049 467.475 115.814 466.643C115.592 465.799 115.252 465.055 114.795 464.41C114.35 463.754 113.787 463.238 113.107 462.863C112.439 462.488 111.654 462.301 110.752 462.301C109.861 462.301 109.076 462.488 108.396 462.863C107.729 463.238 107.166 463.754 106.709 464.41C106.264 465.055 105.93 465.799 105.707 466.643C105.484 467.475 105.373 468.359 105.373 469.297ZM135.836 459.98H138.789V478.596C138.789 480.271 138.449 481.701 137.77 482.885C137.09 484.068 136.141 484.965 134.922 485.574C133.715 486.195 132.32 486.506 130.738 486.506C130.082 486.506 129.309 486.4 128.418 486.189C127.539 485.99 126.672 485.645 125.816 485.152C124.973 484.672 124.264 484.021 123.689 483.201L125.395 481.268C126.191 482.229 127.023 482.896 127.891 483.271C128.77 483.646 129.637 483.834 130.492 483.834C131.523 483.834 132.414 483.641 133.164 483.254C133.914 482.867 134.494 482.293 134.904 481.531C135.326 480.781 135.537 479.855 135.537 478.754V464.164L135.836 459.98ZM122.74 469.701V469.332C122.74 467.879 122.91 466.561 123.25 465.377C123.602 464.182 124.1 463.156 124.744 462.301C125.4 461.445 126.191 460.789 127.117 460.332C128.043 459.863 129.086 459.629 130.246 459.629C131.441 459.629 132.484 459.84 133.375 460.262C134.277 460.672 135.039 461.275 135.66 462.072C136.293 462.857 136.791 463.807 137.154 464.92C137.518 466.033 137.77 467.293 137.91 468.699V470.316C137.781 471.711 137.529 472.965 137.154 474.078C136.791 475.191 136.293 476.141 135.66 476.926C135.039 477.711 134.277 478.314 133.375 478.736C132.473 479.146 131.418 479.352 130.211 479.352C129.074 479.352 128.043 479.111 127.117 478.631C126.203 478.15 125.418 477.477 124.762 476.609C124.105 475.742 123.602 474.723 123.25 473.551C122.91 472.367 122.74 471.084 122.74 469.701ZM125.992 469.332V469.701C125.992 470.65 126.086 471.541 126.273 472.373C126.473 473.205 126.771 473.938 127.17 474.57C127.58 475.203 128.102 475.701 128.734 476.064C129.367 476.416 130.123 476.592 131.002 476.592C132.08 476.592 132.971 476.363 133.674 475.906C134.377 475.449 134.934 474.846 135.344 474.096C135.766 473.346 136.094 472.531 136.328 471.652V467.416C136.199 466.771 136 466.15 135.73 465.553C135.473 464.943 135.133 464.404 134.711 463.936C134.301 463.455 133.791 463.074 133.182 462.793C132.572 462.512 131.857 462.371 131.037 462.371C130.146 462.371 129.379 462.559 128.734 462.934C128.102 463.297 127.58 463.801 127.17 464.445C126.771 465.078 126.473 465.816 126.273 466.66C126.086 467.492 125.992 468.383 125.992 469.332ZM147.262 459.98V479H143.992V459.98H147.262ZM143.746 454.936C143.746 454.408 143.904 453.963 144.221 453.6C144.549 453.236 145.029 453.055 145.662 453.055C146.283 453.055 146.758 453.236 147.086 453.6C147.426 453.963 147.596 454.408 147.596 454.936C147.596 455.439 147.426 455.873 147.086 456.236C146.758 456.588 146.283 456.764 145.662 456.764C145.029 456.764 144.549 456.588 144.221 456.236C143.904 455.873 143.746 455.439 143.746 454.936ZM155.734 464.041V479H152.482V459.98H155.559L155.734 464.041ZM154.961 468.77L153.607 468.717C153.619 467.416 153.812 466.215 154.188 465.113C154.562 464 155.09 463.033 155.77 462.213C156.449 461.393 157.258 460.76 158.195 460.314C159.145 459.857 160.193 459.629 161.342 459.629C162.279 459.629 163.123 459.758 163.873 460.016C164.623 460.262 165.262 460.66 165.789 461.211C166.328 461.762 166.738 462.477 167.02 463.355C167.301 464.223 167.441 465.283 167.441 466.537V479H164.172V466.502C164.172 465.506 164.025 464.709 163.732 464.111C163.439 463.502 163.012 463.062 162.449 462.793C161.887 462.512 161.195 462.371 160.375 462.371C159.566 462.371 158.828 462.541 158.16 462.881C157.504 463.221 156.936 463.689 156.455 464.287C155.986 464.885 155.617 465.57 155.348 466.344C155.09 467.105 154.961 467.914 154.961 468.77Z" fill="black"/>
</g>
<g filter="url(#filter3_d_4_41)">
<rect x="34" y="201" width="181" height="58" rx="20" fill="black"/>
<path d="M99.5898 239.24V242H86.793V239.24H99.5898ZM87.4609 216.406V242H84.0684V216.406H87.4609ZM102.121 232.701V232.297C102.121 230.926 102.32 229.654 102.719 228.482C103.117 227.299 103.691 226.273 104.441 225.406C105.191 224.527 106.1 223.848 107.166 223.367C108.232 222.875 109.428 222.629 110.752 222.629C112.088 222.629 113.289 222.875 114.355 223.367C115.434 223.848 116.348 224.527 117.098 225.406C117.859 226.273 118.439 227.299 118.838 228.482C119.236 229.654 119.436 230.926 119.436 232.297V232.701C119.436 234.072 119.236 235.344 118.838 236.516C118.439 237.688 117.859 238.713 117.098 239.592C116.348 240.459 115.439 241.139 114.373 241.631C113.318 242.111 112.123 242.352 110.787 242.352C109.451 242.352 108.25 242.111 107.184 241.631C106.117 241.139 105.203 240.459 104.441 239.592C103.691 238.713 103.117 237.688 102.719 236.516C102.32 235.344 102.121 234.072 102.121 232.701ZM105.373 232.297V232.701C105.373 233.65 105.484 234.547 105.707 235.391C105.93 236.223 106.264 236.961 106.709 237.605C107.166 238.25 107.734 238.76 108.414 239.135C109.094 239.498 109.885 239.68 110.787 239.68C111.678 239.68 112.457 239.498 113.125 239.135C113.805 238.76 114.367 238.25 114.812 237.605C115.258 236.961 115.592 236.223 115.814 235.391C116.049 234.547 116.166 233.65 116.166 232.701V232.297C116.166 231.359 116.049 230.475 115.814 229.643C115.592 228.799 115.252 228.055 114.795 227.41C114.35 226.754 113.787 226.238 113.107 225.863C112.439 225.488 111.654 225.301 110.752 225.301C109.861 225.301 109.076 225.488 108.396 225.863C107.729 226.238 107.166 226.754 106.709 227.41C106.264 228.055 105.93 228.799 105.707 229.643C105.484 230.475 105.373 231.359 105.373 232.297ZM135.836 222.98H138.789V241.596C138.789 243.271 138.449 244.701 137.77 245.885C137.09 247.068 136.141 247.965 134.922 248.574C133.715 249.195 132.32 249.506 130.738 249.506C130.082 249.506 129.309 249.4 128.418 249.189C127.539 248.99 126.672 248.645 125.816 248.152C124.973 247.672 124.264 247.021 123.689 246.201L125.395 244.268C126.191 245.229 127.023 245.896 127.891 246.271C128.77 246.646 129.637 246.834 130.492 246.834C131.523 246.834 132.414 246.641 133.164 246.254C133.914 245.867 134.494 245.293 134.904 244.531C135.326 243.781 135.537 242.855 135.537 241.754V227.164L135.836 222.98ZM122.74 232.701V232.332C122.74 230.879 122.91 229.561 123.25 228.377C123.602 227.182 124.1 226.156 124.744 225.301C125.4 224.445 126.191 223.789 127.117 223.332C128.043 222.863 129.086 222.629 130.246 222.629C131.441 222.629 132.484 222.84 133.375 223.262C134.277 223.672 135.039 224.275 135.66 225.072C136.293 225.857 136.791 226.807 137.154 227.92C137.518 229.033 137.77 230.293 137.91 231.699V233.316C137.781 234.711 137.529 235.965 137.154 237.078C136.791 238.191 136.293 239.141 135.66 239.926C135.039 240.711 134.277 241.314 133.375 241.736C132.473 242.146 131.418 242.352 130.211 242.352C129.074 242.352 128.043 242.111 127.117 241.631C126.203 241.15 125.418 240.477 124.762 239.609C124.105 238.742 123.602 237.723 123.25 236.551C122.91 235.367 122.74 234.084 122.74 232.701ZM125.992 232.332V232.701C125.992 233.65 126.086 234.541 126.273 235.373C126.473 236.205 126.771 236.938 127.17 237.57C127.58 238.203 128.102 238.701 128.734 239.064C129.367 239.416 130.123 239.592 131.002 239.592C132.08 239.592 132.971 239.363 133.674 238.906C134.377 238.449 134.934 237.846 135.344 237.096C135.766 236.346 136.094 235.531 136.328 234.652V230.416C136.199 229.771 136 229.15 135.73 228.553C135.473 227.943 135.133 227.404 134.711 226.936C134.301 226.455 133.791 226.074 133.182 225.793C132.572 225.512 131.857 225.371 131.037 225.371C130.146 225.371 129.379 225.559 128.734 225.934C128.102 226.297 127.58 226.801 127.17 227.445C126.771 228.078 126.473 228.816 126.273 229.66C126.086 230.492 125.992 231.383 125.992 232.332ZM147.262 222.98V242H143.992V222.98H147.262ZM143.746 217.936C143.746 217.408 143.904 216.963 144.221 216.6C144.549 216.236 145.029 216.055 145.662 216.055C146.283 216.055 146.758 216.236 147.086 216.6C147.426 216.963 147.596 217.408 147.596 217.936C147.596 218.439 147.426 218.873 147.086 219.236C146.758 219.588 146.283 219.764 145.662 219.764C145.029 219.764 144.549 219.588 144.221 219.236C143.904 218.873 143.746 218.439 143.746 217.936ZM155.734 227.041V242H152.482V222.98H155.559L155.734 227.041ZM154.961 231.77L153.607 231.717C153.619 230.416 153.812 229.215 154.188 228.113C154.562 227 155.09 226.033 155.77 225.213C156.449 224.393 157.258 223.76 158.195 223.314C159.145 222.857 160.193 222.629 161.342 222.629C162.279 222.629 163.123 222.758 163.873 223.016C164.623 223.262 165.262 223.66 165.789 224.211C166.328 224.762 166.738 225.477 167.02 226.355C167.301 227.223 167.441 228.283 167.441 229.537V242H164.172V229.502C164.172 228.506 164.025 227.709 163.732 227.111C163.439 226.502 163.012 226.062 162.449 225.793C161.887 225.512 161.195 225.371 160.375 225.371C159.566 225.371 158.828 225.541 158.16 225.881C157.504 226.221 156.936 226.689 156.455 227.287C155.986 227.885 155.617 228.57 155.348 229.344C155.09 230.105 154.961 230.914 154.961 231.77Z" fill="white"/>
</g>
<g filter="url(#filter4_d_4_41)">
<rect x="34" y="201" width="181" height="58" rx="20" fill="black"/>
<path d="M99.5898 239.24V242H86.793V239.24H99.5898ZM87.4609 216.406V242H84.0684V216.406H87.4609ZM102.121 232.701V232.297C102.121 230.926 102.32 229.654 102.719 228.482C103.117 227.299 103.691 226.273 104.441 225.406C105.191 224.527 106.1 223.848 107.166 223.367C108.232 222.875 109.428 222.629 110.752 222.629C112.088 222.629 113.289 222.875 114.355 223.367C115.434 223.848 116.348 224.527 117.098 225.406C117.859 226.273 118.439 227.299 118.838 228.482C119.236 229.654 119.436 230.926 119.436 232.297V232.701C119.436 234.072 119.236 235.344 118.838 236.516C118.439 237.688 117.859 238.713 117.098 239.592C116.348 240.459 115.439 241.139 114.373 241.631C113.318 242.111 112.123 242.352 110.787 242.352C109.451 242.352 108.25 242.111 107.184 241.631C106.117 241.139 105.203 240.459 104.441 239.592C103.691 238.713 103.117 237.688 102.719 236.516C102.32 235.344 102.121 234.072 102.121 232.701ZM105.373 232.297V232.701C105.373 233.65 105.484 234.547 105.707 235.391C105.93 236.223 106.264 236.961 106.709 237.605C107.166 238.25 107.734 238.76 108.414 239.135C109.094 239.498 109.885 239.68 110.787 239.68C111.678 239.68 112.457 239.498 113.125 239.135C113.805 238.76 114.367 238.25 114.812 237.605C115.258 236.961 115.592 236.223 115.814 235.391C116.049 234.547 116.166 233.65 116.166 232.701V232.297C116.166 231.359 116.049 230.475 115.814 229.643C115.592 228.799 115.252 228.055 114.795 227.41C114.35 226.754 113.787 226.238 113.107 225.863C112.439 225.488 111.654 225.301 110.752 225.301C109.861 225.301 109.076 225.488 108.396 225.863C107.729 226.238 107.166 226.754 106.709 227.41C106.264 228.055 105.93 228.799 105.707 229.643C105.484 230.475 105.373 231.359 105.373 232.297ZM135.836 222.98H138.789V241.596C138.789 243.271 138.449 244.701 137.77 245.885C137.09 247.068 136.141 247.965 134.922 248.574C133.715 249.195 132.32 249.506 130.738 249.506C130.082 249.506 129.309 249.4 128.418 249.189C127.539 248.99 126.672 248.645 125.816 248.152C124.973 247.672 124.264 247.021 123.689 246.201L125.395 244.268C126.191 245.229 127.023 245.896 127.891 246.271C128.77 246.646 129.637 246.834 130.492 246.834C131.523 246.834 132.414 246.641 133.164 246.254C133.914 245.867 134.494 245.293 134.904 244.531C135.326 243.781 135.537 242.855 135.537 241.754V227.164L135.836 222.98ZM122.74 232.701V232.332C122.74 230.879 122.91 229.561 123.25 228.377C123.602 227.182 124.1 226.156 124.744 225.301C125.4 224.445 126.191 223.789 127.117 223.332C128.043 222.863 129.086 222.629 130.246 222.629C131.441 222.629 132.484 222.84 133.375 223.262C134.277 223.672 135.039 224.275 135.66 225.072C136.293 225.857 136.791 226.807 137.154 227.92C137.518 229.033 137.77 230.293 137.91 231.699V233.316C137.781 234.711 137.529 235.965 137.154 237.078C136.791 238.191 136.293 239.141 135.66 239.926C135.039 240.711 134.277 241.314 133.375 241.736C132.473 242.146 131.418 242.352 130.211 242.352C129.074 242.352 128.043 242.111 127.117 241.631C126.203 241.15 125.418 240.477 124.762 239.609C124.105 238.742 123.602 237.723 123.25 236.551C122.91 235.367 122.74 234.084 122.74 232.701ZM125.992 232.332V232.701C125.992 233.65 126.086 234.541 126.273 235.373C126.473 236.205 126.771 236.938 127.17 237.57C127.58 238.203 128.102 238.701 128.734 239.064C129.367 239.416 130.123 239.592 131.002 239.592C132.08 239.592 132.971 239.363 133.674 238.906C134.377 238.449 134.934 237.846 135.344 237.096C135.766 236.346 136.094 235.531 136.328 234.652V230.416C136.199 229.771 136 229.15 135.73 228.553C135.473 227.943 135.133 227.404 134.711 226.936C134.301 226.455 133.791 226.074 133.182 225.793C132.572 225.512 131.857 225.371 131.037 225.371C130.146 225.371 129.379 225.559 128.734 225.934C128.102 226.297 127.58 226.801 127.17 227.445C126.771 228.078 126.473 228.816 126.273 229.66C126.086 230.492 125.992 231.383 125.992 232.332ZM147.262 222.98V242H143.992V222.98H147.262ZM143.746 217.936C143.746 217.408 143.904 216.963 144.221 216.6C144.549 216.236 145.029 216.055 145.662 216.055C146.283 216.055 146.758 216.236 147.086 216.6C147.426 216.963 147.596 217.408 147.596 217.936C147.596 218.439 147.426 218.873 147.086 219.236C146.758 219.588 146.283 219.764 145.662 219.764C145.029 219.764 144.549 219.588 144.221 219.236C143.904 218.873 143.746 218.439 143.746 217.936ZM155.734 227.041V242H152.482V222.98H155.559L155.734 227.041ZM154.961 231.77L153.607 231.717C153.619 230.416 153.812 229.215 154.188 228.113C154.562 227 155.09 226.033 155.77 225.213C156.449 224.393 157.258 223.76 158.195 223.314C159.145 222.857 160.193 222.629 161.342 222.629C162.279 222.629 163.123 222.758 163.873 223.016C164.623 223.262 165.262 223.66 165.789 224.211C166.328 224.762 166.738 225.477 167.02 226.355C167.301 227.223 167.441 228.283 167.441 229.537V242H164.172V229.502C164.172 228.506 164.025 227.709 163.732 227.111C163.439 226.502 163.012 226.062 162.449 225.793C161.887 225.512 161.195 225.371 160.375 225.371C159.566 225.371 158.828 225.541 158.16 225.881C157.504 226.221 156.936 226.689 156.455 227.287C155.986 227.885 155.617 228.57 155.348 229.344C155.09 230.105 154.961 230.914 154.961 231.77Z" fill="white"/>
</g>
<g filter="url(#filter5_d_4_41)">
<rect x="34" y="280" width="181" height="58" rx="20" fill="#9D9D9D"/>
<path d="M99.5898 318.24V321H86.793V318.24H99.5898ZM87.4609 295.406V321H84.0684V295.406H87.4609ZM102.121 311.701V311.297C102.121 309.926 102.32 308.654 102.719 307.482C103.117 306.299 103.691 305.273 104.441 304.406C105.191 303.527 106.1 302.848 107.166 302.367C108.232 301.875 109.428 301.629 110.752 301.629C112.088 301.629 113.289 301.875 114.355 302.367C115.434 302.848 116.348 303.527 117.098 304.406C117.859 305.273 118.439 306.299 118.838 307.482C119.236 308.654 119.436 309.926 119.436 311.297V311.701C119.436 313.072 119.236 314.344 118.838 315.516C118.439 316.688 117.859 317.713 117.098 318.592C116.348 319.459 115.439 320.139 114.373 320.631C113.318 321.111 112.123 321.352 110.787 321.352C109.451 321.352 108.25 321.111 107.184 320.631C106.117 320.139 105.203 319.459 104.441 318.592C103.691 317.713 103.117 316.688 102.719 315.516C102.32 314.344 102.121 313.072 102.121 311.701ZM105.373 311.297V311.701C105.373 312.65 105.484 313.547 105.707 314.391C105.93 315.223 106.264 315.961 106.709 316.605C107.166 317.25 107.734 317.76 108.414 318.135C109.094 318.498 109.885 318.68 110.787 318.68C111.678 318.68 112.457 318.498 113.125 318.135C113.805 317.76 114.367 317.25 114.812 316.605C115.258 315.961 115.592 315.223 115.814 314.391C116.049 313.547 116.166 312.65 116.166 311.701V311.297C116.166 310.359 116.049 309.475 115.814 308.643C115.592 307.799 115.252 307.055 114.795 306.41C114.35 305.754 113.787 305.238 113.107 304.863C112.439 304.488 111.654 304.301 110.752 304.301C109.861 304.301 109.076 304.488 108.396 304.863C107.729 305.238 107.166 305.754 106.709 306.41C106.264 307.055 105.93 307.799 105.707 308.643C105.484 309.475 105.373 310.359 105.373 311.297ZM135.836 301.98H138.789V320.596C138.789 322.271 138.449 323.701 137.77 324.885C137.09 326.068 136.141 326.965 134.922 327.574C133.715 328.195 132.32 328.506 130.738 328.506C130.082 328.506 129.309 328.4 128.418 328.189C127.539 327.99 126.672 327.645 125.816 327.152C124.973 326.672 124.264 326.021 123.689 325.201L125.395 323.268C126.191 324.229 127.023 324.896 127.891 325.271C128.77 325.646 129.637 325.834 130.492 325.834C131.523 325.834 132.414 325.641 133.164 325.254C133.914 324.867 134.494 324.293 134.904 323.531C135.326 322.781 135.537 321.855 135.537 320.754V306.164L135.836 301.98ZM122.74 311.701V311.332C122.74 309.879 122.91 308.561 123.25 307.377C123.602 306.182 124.1 305.156 124.744 304.301C125.4 303.445 126.191 302.789 127.117 302.332C128.043 301.863 129.086 301.629 130.246 301.629C131.441 301.629 132.484 301.84 133.375 302.262C134.277 302.672 135.039 303.275 135.66 304.072C136.293 304.857 136.791 305.807 137.154 306.92C137.518 308.033 137.77 309.293 137.91 310.699V312.316C137.781 313.711 137.529 314.965 137.154 316.078C136.791 317.191 136.293 318.141 135.66 318.926C135.039 319.711 134.277 320.314 133.375 320.736C132.473 321.146 131.418 321.352 130.211 321.352C129.074 321.352 128.043 321.111 127.117 320.631C126.203 320.15 125.418 319.477 124.762 318.609C124.105 317.742 123.602 316.723 123.25 315.551C122.91 314.367 122.74 313.084 122.74 311.701ZM125.992 311.332V311.701C125.992 312.65 126.086 313.541 126.273 314.373C126.473 315.205 126.771 315.938 127.17 316.57C127.58 317.203 128.102 317.701 128.734 318.064C129.367 318.416 130.123 318.592 131.002 318.592C132.08 318.592 132.971 318.363 133.674 317.906C134.377 317.449 134.934 316.846 135.344 316.096C135.766 315.346 136.094 314.531 136.328 313.652V309.416C136.199 308.771 136 308.15 135.73 307.553C135.473 306.943 135.133 306.404 134.711 305.936C134.301 305.455 133.791 305.074 133.182 304.793C132.572 304.512 131.857 304.371 131.037 304.371C130.146 304.371 129.379 304.559 128.734 304.934C128.102 305.297 127.58 305.801 127.17 306.445C126.771 307.078 126.473 307.816 126.273 308.66C126.086 309.492 125.992 310.383 125.992 311.332ZM147.262 301.98V321H143.992V301.98H147.262ZM143.746 296.936C143.746 296.408 143.904 295.963 144.221 295.6C144.549 295.236 145.029 295.055 145.662 295.055C146.283 295.055 146.758 295.236 147.086 295.6C147.426 295.963 147.596 296.408 147.596 296.936C147.596 297.439 147.426 297.873 147.086 298.236C146.758 298.588 146.283 298.764 145.662 298.764C145.029 298.764 144.549 298.588 144.221 298.236C143.904 297.873 143.746 297.439 143.746 296.936ZM155.734 306.041V321H152.482V301.98H155.559L155.734 306.041ZM154.961 310.77L153.607 310.717C153.619 309.416 153.812 308.215 154.188 307.113C154.562 306 155.09 305.033 155.77 304.213C156.449 303.393 157.258 302.76 158.195 302.314C159.145 301.857 160.193 301.629 161.342 301.629C162.279 301.629 163.123 301.758 163.873 302.016C164.623 302.262 165.262 302.66 165.789 303.211C166.328 303.762 166.738 304.477 167.02 305.355C167.301 306.223 167.441 307.283 167.441 308.537V321H164.172V308.502C164.172 307.506 164.025 306.709 163.732 306.111C163.439 305.502 163.012 305.062 162.449 304.793C161.887 304.512 161.195 304.371 160.375 304.371C159.566 304.371 158.828 304.541 158.16 304.881C157.504 305.221 156.936 305.689 156.455 306.287C155.986 306.885 155.617 307.57 155.348 308.344C155.09 309.105 154.961 309.914 154.961 310.77Z" fill="white"/>
</g>
<g filter="url(#filter6_d_4_41)">
<rect x="34" y="122" width="362" height="58" rx="20" fill="#9D9D9D"/>
<path d="M189.59 160.24V163H176.793V160.24H189.59ZM177.461 137.406V163H174.068V137.406H177.461ZM192.121 153.701V153.297C192.121 151.926 192.32 150.654 192.719 149.482C193.117 148.299 193.691 147.273 194.441 146.406C195.191 145.527 196.1 144.848 197.166 144.367C198.232 143.875 199.428 143.629 200.752 143.629C202.088 143.629 203.289 143.875 204.355 144.367C205.434 144.848 206.348 145.527 207.098 146.406C207.859 147.273 208.439 148.299 208.838 149.482C209.236 150.654 209.436 151.926 209.436 153.297V153.701C209.436 155.072 209.236 156.344 208.838 157.516C208.439 158.688 207.859 159.713 207.098 160.592C206.348 161.459 205.439 162.139 204.373 162.631C203.318 163.111 202.123 163.352 200.787 163.352C199.451 163.352 198.25 163.111 197.184 162.631C196.117 162.139 195.203 161.459 194.441 160.592C193.691 159.713 193.117 158.688 192.719 157.516C192.32 156.344 192.121 155.072 192.121 153.701ZM195.373 153.297V153.701C195.373 154.65 195.484 155.547 195.707 156.391C195.93 157.223 196.264 157.961 196.709 158.605C197.166 159.25 197.734 159.76 198.414 160.135C199.094 160.498 199.885 160.68 200.787 160.68C201.678 160.68 202.457 160.498 203.125 160.135C203.805 159.76 204.367 159.25 204.812 158.605C205.258 157.961 205.592 157.223 205.814 156.391C206.049 155.547 206.166 154.65 206.166 153.701V153.297C206.166 152.359 206.049 151.475 205.814 150.643C205.592 149.799 205.252 149.055 204.795 148.41C204.35 147.754 203.787 147.238 203.107 146.863C202.439 146.488 201.654 146.301 200.752 146.301C199.861 146.301 199.076 146.488 198.396 146.863C197.729 147.238 197.166 147.754 196.709 148.41C196.264 149.055 195.93 149.799 195.707 150.643C195.484 151.475 195.373 152.359 195.373 153.297ZM225.836 143.98H228.789V162.596C228.789 164.271 228.449 165.701 227.77 166.885C227.09 168.068 226.141 168.965 224.922 169.574C223.715 170.195 222.32 170.506 220.738 170.506C220.082 170.506 219.309 170.4 218.418 170.189C217.539 169.99 216.672 169.645 215.816 169.152C214.973 168.672 214.264 168.021 213.689 167.201L215.395 165.268C216.191 166.229 217.023 166.896 217.891 167.271C218.77 167.646 219.637 167.834 220.492 167.834C221.523 167.834 222.414 167.641 223.164 167.254C223.914 166.867 224.494 166.293 224.904 165.531C225.326 164.781 225.537 163.855 225.537 162.754V148.164L225.836 143.98ZM212.74 153.701V153.332C212.74 151.879 212.91 150.561 213.25 149.377C213.602 148.182 214.1 147.156 214.744 146.301C215.4 145.445 216.191 144.789 217.117 144.332C218.043 143.863 219.086 143.629 220.246 143.629C221.441 143.629 222.484 143.84 223.375 144.262C224.277 144.672 225.039 145.275 225.66 146.072C226.293 146.857 226.791 147.807 227.154 148.92C227.518 150.033 227.77 151.293 227.91 152.699V154.316C227.781 155.711 227.529 156.965 227.154 158.078C226.791 159.191 226.293 160.141 225.66 160.926C225.039 161.711 224.277 162.314 223.375 162.736C222.473 163.146 221.418 163.352 220.211 163.352C219.074 163.352 218.043 163.111 217.117 162.631C216.203 162.15 215.418 161.477 214.762 160.609C214.105 159.742 213.602 158.723 213.25 157.551C212.91 156.367 212.74 155.084 212.74 153.701ZM215.992 153.332V153.701C215.992 154.65 216.086 155.541 216.273 156.373C216.473 157.205 216.771 157.938 217.17 158.57C217.58 159.203 218.102 159.701 218.734 160.064C219.367 160.416 220.123 160.592 221.002 160.592C222.08 160.592 222.971 160.363 223.674 159.906C224.377 159.449 224.934 158.846 225.344 158.096C225.766 157.346 226.094 156.531 226.328 155.652V151.416C226.199 150.771 226 150.15 225.73 149.553C225.473 148.943 225.133 148.404 224.711 147.936C224.301 147.455 223.791 147.074 223.182 146.793C222.572 146.512 221.857 146.371 221.037 146.371C220.146 146.371 219.379 146.559 218.734 146.934C218.102 147.297 217.58 147.801 217.17 148.445C216.771 149.078 216.473 149.816 216.273 150.66C216.086 151.492 215.992 152.383 215.992 153.332ZM237.262 143.98V163H233.992V143.98H237.262ZM233.746 138.936C233.746 138.408 233.904 137.963 234.221 137.6C234.549 137.236 235.029 137.055 235.662 137.055C236.283 137.055 236.758 137.236 237.086 137.6C237.426 137.963 237.596 138.408 237.596 138.936C237.596 139.439 237.426 139.873 237.086 140.236C236.758 140.588 236.283 140.764 235.662 140.764C235.029 140.764 234.549 140.588 234.221 140.236C233.904 139.873 233.746 139.439 233.746 138.936ZM245.734 148.041V163H242.482V143.98H245.559L245.734 148.041ZM244.961 152.77L243.607 152.717C243.619 151.416 243.812 150.215 244.188 149.113C244.562 148 245.09 147.033 245.77 146.213C246.449 145.393 247.258 144.76 248.195 144.314C249.145 143.857 250.193 143.629 251.342 143.629C252.279 143.629 253.123 143.758 253.873 144.016C254.623 144.262 255.262 144.66 255.789 145.211C256.328 145.762 256.738 146.477 257.02 147.355C257.301 148.223 257.441 149.283 257.441 150.537V163H254.172V150.502C254.172 149.506 254.025 148.709 253.732 148.111C253.439 147.502 253.012 147.062 252.449 146.793C251.887 146.512 251.195 146.371 250.375 146.371C249.566 146.371 248.828 146.541 248.16 146.881C247.504 147.221 246.936 147.689 246.455 148.287C245.986 148.885 245.617 149.57 245.348 150.344C245.09 151.105 244.961 151.914 244.961 152.77Z" fill="white"/>
</g>
<path d="M46.4277 525.406V551H43.0879V525.406H46.4277ZM54.6543 525.406V528.184H34.8789V525.406H54.6543ZM61.4922 531.98V551H58.2227V531.98H61.4922ZM57.9766 526.936C57.9766 526.408 58.1348 525.963 58.4512 525.6C58.7793 525.236 59.2598 525.055 59.8926 525.055C60.5137 525.055 60.9883 525.236 61.3164 525.6C61.6562 525.963 61.8262 526.408 61.8262 526.936C61.8262 527.439 61.6562 527.873 61.3164 528.236C60.9883 528.588 60.5137 528.764 59.8926 528.764C59.2598 528.764 58.7793 528.588 58.4512 528.236C58.1348 527.873 57.9766 527.439 57.9766 526.936ZM74.6758 531.98V534.477H64.3926V531.98H74.6758ZM67.873 527.357H71.125V546.289C71.125 546.934 71.2246 547.42 71.4238 547.748C71.623 548.076 71.8809 548.293 72.1973 548.398C72.5137 548.504 72.8535 548.557 73.2168 548.557C73.4863 548.557 73.7676 548.533 74.0605 548.486C74.3652 548.428 74.5938 548.381 74.7461 548.346L74.7637 551C74.5059 551.082 74.166 551.158 73.7441 551.229C73.334 551.311 72.8359 551.352 72.25 551.352C71.4531 551.352 70.7207 551.193 70.0527 550.877C69.3848 550.561 68.8516 550.033 68.4531 549.295C68.0664 548.545 67.873 547.537 67.873 546.271V527.357ZM82.0234 524V551H78.7539V524H82.0234ZM95.1367 551.352C93.8125 551.352 92.6113 551.129 91.5332 550.684C90.4668 550.227 89.5469 549.588 88.7734 548.768C88.0117 547.947 87.4258 546.975 87.0156 545.85C86.6055 544.725 86.4004 543.494 86.4004 542.158V541.42C86.4004 539.873 86.6289 538.496 87.0859 537.289C87.543 536.07 88.1641 535.039 88.9492 534.195C89.7344 533.352 90.625 532.713 91.6211 532.279C92.6172 531.846 93.6484 531.629 94.7148 531.629C96.0742 531.629 97.2461 531.863 98.2305 532.332C99.2266 532.801 100.041 533.457 100.674 534.301C101.307 535.133 101.775 536.117 102.08 537.254C102.385 538.379 102.537 539.609 102.537 540.945V542.404H88.334V539.75H99.2852V539.504C99.2383 538.66 99.0625 537.84 98.7578 537.043C98.4648 536.246 97.9961 535.59 97.3516 535.074C96.707 534.559 95.8281 534.301 94.7148 534.301C93.9766 534.301 93.2969 534.459 92.6758 534.775C92.0547 535.08 91.5215 535.537 91.0762 536.146C90.6309 536.756 90.2852 537.5 90.0391 538.379C89.793 539.258 89.6699 540.271 89.6699 541.42V542.158C89.6699 543.061 89.793 543.91 90.0391 544.707C90.2969 545.492 90.666 546.184 91.1465 546.781C91.6387 547.379 92.2305 547.848 92.9219 548.188C93.625 548.527 94.4219 548.697 95.3125 548.697C96.4609 548.697 97.4336 548.463 98.2305 547.994C99.0273 547.525 99.7246 546.898 100.322 546.113L102.291 547.678C101.881 548.299 101.359 548.891 100.727 549.453C100.094 550.016 99.3145 550.473 98.3887 550.824C97.4746 551.176 96.3906 551.352 95.1367 551.352ZM123.227 531.98V534.477H112.943V531.98H123.227ZM116.424 527.357H119.676V546.289C119.676 546.934 119.775 547.42 119.975 547.748C120.174 548.076 120.432 548.293 120.748 548.398C121.064 548.504 121.404 548.557 121.768 548.557C122.037 548.557 122.318 548.533 122.611 548.486C122.916 548.428 123.145 548.381 123.297 548.346L123.314 551C123.057 551.082 122.717 551.158 122.295 551.229C121.885 551.311 121.387 551.352 120.801 551.352C120.004 551.352 119.271 551.193 118.604 550.877C117.936 550.561 117.402 550.033 117.004 549.295C116.617 548.545 116.424 547.537 116.424 546.271V527.357ZM134.934 551.352C133.609 551.352 132.408 551.129 131.33 550.684C130.264 550.227 129.344 549.588 128.57 548.768C127.809 547.947 127.223 546.975 126.812 545.85C126.402 544.725 126.197 543.494 126.197 542.158V541.42C126.197 539.873 126.426 538.496 126.883 537.289C127.34 536.07 127.961 535.039 128.746 534.195C129.531 533.352 130.422 532.713 131.418 532.279C132.414 531.846 133.445 531.629 134.512 531.629C135.871 531.629 137.043 531.863 138.027 532.332C139.023 532.801 139.838 533.457 140.471 534.301C141.104 535.133 141.572 536.117 141.877 537.254C142.182 538.379 142.334 539.609 142.334 540.945V542.404H128.131V539.75H139.082V539.504C139.035 538.66 138.859 537.84 138.555 537.043C138.262 536.246 137.793 535.59 137.148 535.074C136.504 534.559 135.625 534.301 134.512 534.301C133.773 534.301 133.094 534.459 132.473 534.775C131.852 535.08 131.318 535.537 130.873 536.146C130.428 536.756 130.082 537.5 129.836 538.379C129.59 539.258 129.467 540.271 129.467 541.42V542.158C129.467 543.061 129.59 543.91 129.836 544.707C130.094 545.492 130.463 546.184 130.943 546.781C131.436 547.379 132.027 547.848 132.719 548.188C133.422 548.527 134.219 548.697 135.109 548.697C136.258 548.697 137.23 548.463 138.027 547.994C138.824 547.525 139.521 546.898 140.119 546.113L142.088 547.678C141.678 548.299 141.156 548.891 140.523 549.453C139.891 550.016 139.111 550.473 138.186 550.824C137.271 551.176 136.188 551.352 134.934 551.352ZM148.328 531.98L152.494 538.906L156.713 531.98H160.527L154.305 541.367L160.721 551H156.959L152.564 543.863L148.17 551H144.391L150.789 541.367L144.584 531.98H148.328ZM171.953 531.98V534.477H161.67V531.98H171.953ZM165.15 527.357H168.402V546.289C168.402 546.934 168.502 547.42 168.701 547.748C168.9 548.076 169.158 548.293 169.475 548.398C169.791 548.504 170.131 548.557 170.494 548.557C170.764 548.557 171.045 548.533 171.338 548.486C171.643 548.428 171.871 548.381 172.023 548.346L172.041 551C171.783 551.082 171.443 551.158 171.021 551.229C170.611 551.311 170.113 551.352 169.527 551.352C168.73 551.352 167.998 551.193 167.33 550.877C166.662 550.561 166.129 550.033 165.73 549.295C165.344 548.545 165.15 547.537 165.15 546.271V527.357Z" fill="#0B1E3D"/>
<path d="M83.8747 651V598.636H104.841C108.693 598.636 111.906 599.207 114.48 600.349C117.054 601.491 118.988 603.077 120.284 605.105C121.579 607.116 122.227 609.435 122.227 612.06C122.227 614.105 121.818 615.903 121 617.455C120.182 618.989 119.057 620.25 117.625 621.239C116.21 622.21 114.591 622.901 112.767 623.31V623.821C114.761 623.906 116.628 624.469 118.366 625.509C120.122 626.548 121.545 628.006 122.636 629.881C123.727 631.739 124.272 633.955 124.272 636.528C124.272 639.307 123.582 641.787 122.201 643.969C120.838 646.134 118.818 647.847 116.142 649.108C113.466 650.369 110.167 651 106.247 651H83.8747ZM94.9458 641.949H103.971C107.057 641.949 109.307 641.361 110.721 640.185C112.136 638.991 112.843 637.406 112.843 635.429C112.843 633.98 112.494 632.702 111.795 631.594C111.096 630.486 110.099 629.616 108.804 628.986C107.525 628.355 106 628.04 104.227 628.04H94.9458V641.949ZM94.9458 620.548H103.153C104.67 620.548 106.017 620.284 107.193 619.756C108.386 619.21 109.324 618.443 110.005 617.455C110.704 616.466 111.054 615.281 111.054 613.901C111.054 612.009 110.38 610.483 109.034 609.324C107.704 608.165 105.812 607.585 103.358 607.585H94.9458V620.548ZM129.112 651V611.727H140.004V651H129.112ZM134.583 606.665C132.964 606.665 131.575 606.128 130.416 605.054C129.274 603.963 128.703 602.659 128.703 601.142C128.703 599.642 129.274 598.355 130.416 597.281C131.575 596.19 132.964 595.645 134.583 595.645C136.203 595.645 137.583 596.19 138.725 597.281C139.884 598.355 140.464 599.642 140.464 601.142C140.464 602.659 139.884 603.963 138.725 605.054C137.583 606.128 136.203 606.665 134.583 606.665ZM164.262 666.545C160.734 666.545 157.708 666.06 155.185 665.088C152.68 664.134 150.685 662.83 149.202 661.176C147.72 659.523 146.756 657.665 146.313 655.602L156.387 654.247C156.694 655.031 157.18 655.764 157.845 656.446C158.509 657.128 159.387 657.673 160.478 658.082C161.586 658.509 162.933 658.722 164.518 658.722C166.887 658.722 168.839 658.142 170.373 656.983C171.924 655.841 172.7 653.923 172.7 651.23V644.045H172.239C171.762 645.136 171.046 646.168 170.092 647.139C169.137 648.111 167.91 648.903 166.41 649.517C164.91 650.131 163.12 650.438 161.041 650.438C158.092 650.438 155.407 649.756 152.987 648.392C150.583 647.011 148.666 644.906 147.234 642.077C145.819 639.23 145.112 635.634 145.112 631.287C145.112 626.838 145.836 623.122 147.285 620.139C148.734 617.156 150.66 614.923 153.063 613.44C155.484 611.957 158.134 611.216 161.015 611.216C163.214 611.216 165.055 611.591 166.538 612.341C168.021 613.074 169.214 613.994 170.117 615.102C171.038 616.193 171.745 617.267 172.239 618.324H172.648V611.727H183.464V651.384C183.464 654.724 182.646 657.52 181.009 659.77C179.373 662.02 177.106 663.707 174.208 664.832C171.327 665.974 168.012 666.545 164.262 666.545ZM164.492 642.256C166.248 642.256 167.731 641.821 168.941 640.952C170.168 640.065 171.106 638.804 171.754 637.168C172.418 635.514 172.751 633.537 172.751 631.236C172.751 628.935 172.427 626.94 171.779 625.253C171.131 623.548 170.194 622.227 168.967 621.29C167.739 620.352 166.248 619.884 164.492 619.884C162.702 619.884 161.194 620.369 159.967 621.341C158.739 622.295 157.81 623.625 157.18 625.33C156.549 627.034 156.234 629.003 156.234 631.236C156.234 633.503 156.549 635.463 157.18 637.116C157.827 638.753 158.756 640.023 159.967 640.926C161.194 641.812 162.702 642.256 164.492 642.256ZM202.686 607.764V598.636H245.691V607.764H229.66V651H218.717V607.764H202.686ZM250.409 651V611.727H261.301V651H250.409ZM255.881 606.665C254.262 606.665 252.872 606.128 251.713 605.054C250.571 603.963 250 602.659 250 601.142C250 599.642 250.571 598.355 251.713 597.281C252.872 596.19 254.262 595.645 255.881 595.645C257.5 595.645 258.881 596.19 260.023 597.281C261.182 598.355 261.762 599.642 261.762 601.142C261.762 602.659 261.182 603.963 260.023 605.054C258.881 606.128 257.5 606.665 255.881 606.665ZM288.756 611.727V619.909H265.105V611.727H288.756ZM270.474 602.318H281.366V638.932C281.366 639.937 281.52 640.722 281.827 641.284C282.133 641.83 282.56 642.213 283.105 642.435C283.668 642.656 284.315 642.767 285.048 642.767C285.56 642.767 286.071 642.724 286.582 642.639C287.094 642.537 287.486 642.46 287.758 642.409L289.472 650.514C288.926 650.685 288.159 650.881 287.17 651.102C286.182 651.341 284.98 651.486 283.565 651.537C280.94 651.639 278.639 651.29 276.662 650.489C274.702 649.687 273.176 648.443 272.085 646.756C270.994 645.068 270.457 642.937 270.474 640.364V602.318ZM305.427 598.636V651H294.535V598.636H305.427ZM329.889 651.767C325.85 651.767 322.372 650.949 319.458 649.312C316.56 647.659 314.327 645.324 312.759 642.307C311.191 639.273 310.407 635.685 310.407 631.543C310.407 627.503 311.191 623.957 312.759 620.906C314.327 617.855 316.534 615.477 319.381 613.773C322.245 612.068 325.603 611.216 329.455 611.216C332.046 611.216 334.458 611.634 336.691 612.469C338.941 613.287 340.901 614.523 342.571 616.176C344.259 617.83 345.571 619.909 346.509 622.415C347.446 624.903 347.915 627.818 347.915 631.159V634.151H314.753V627.401H337.662C337.662 625.832 337.321 624.443 336.639 623.233C335.958 622.023 335.012 621.077 333.801 620.395C332.608 619.696 331.219 619.347 329.634 619.347C327.98 619.347 326.514 619.73 325.236 620.497C323.975 621.247 322.986 622.261 322.27 623.54C321.554 624.801 321.188 626.207 321.171 627.759V634.176C321.171 636.119 321.529 637.798 322.245 639.213C322.978 640.628 324.009 641.719 325.338 642.486C326.668 643.253 328.245 643.636 330.068 643.636C331.279 643.636 332.387 643.466 333.392 643.125C334.398 642.784 335.259 642.273 335.975 641.591C336.691 640.909 337.236 640.074 337.611 639.085L347.685 639.75C347.174 642.17 346.125 644.284 344.54 646.091C342.972 647.881 340.943 649.278 338.455 650.284C335.983 651.273 333.128 651.767 329.889 651.767Z" fill="#0B1E3D"/>
<path d="M35.0938 694H36.5469V704.359L36.4219 706H35.0938V694ZM42.2578 701.703V701.867C42.2578 702.482 42.1849 703.052 42.0391 703.578C41.8932 704.099 41.6797 704.552 41.3984 704.938C41.1172 705.323 40.7734 705.622 40.3672 705.836C39.9609 706.049 39.4948 706.156 38.9688 706.156C38.4323 706.156 37.9609 706.065 37.5547 705.883C37.1536 705.695 36.8151 705.427 36.5391 705.078C36.263 704.729 36.0417 704.307 35.875 703.812C35.7135 703.318 35.6016 702.76 35.5391 702.141V701.422C35.6016 700.797 35.7135 700.237 35.875 699.742C36.0417 699.247 36.263 698.826 36.5391 698.477C36.8151 698.122 37.1536 697.854 37.5547 697.672C37.9557 697.484 38.4219 697.391 38.9531 697.391C39.4844 697.391 39.9557 697.495 40.3672 697.703C40.7786 697.906 41.1224 698.198 41.3984 698.578C41.6797 698.958 41.8932 699.414 42.0391 699.945C42.1849 700.471 42.2578 701.057 42.2578 701.703ZM40.8047 701.867V701.703C40.8047 701.281 40.7656 700.885 40.6875 700.516C40.6094 700.141 40.4844 699.812 40.3125 699.531C40.1406 699.245 39.9141 699.021 39.6328 698.859C39.3516 698.693 39.0052 698.609 38.5938 698.609C38.2292 698.609 37.9115 698.672 37.6406 698.797C37.375 698.922 37.1484 699.091 36.9609 699.305C36.7734 699.513 36.6198 699.753 36.5 700.023C36.3854 700.289 36.2995 700.565 36.2422 700.852V702.734C36.3255 703.099 36.4609 703.451 36.6484 703.789C36.8411 704.122 37.0964 704.396 37.4141 704.609C37.737 704.823 38.1354 704.93 38.6094 704.93C39 704.93 39.3333 704.852 39.6094 704.695C39.8906 704.534 40.1172 704.312 40.2891 704.031C40.4661 703.75 40.5964 703.424 40.6797 703.055C40.763 702.685 40.8047 702.289 40.8047 701.867ZM44.2031 701.867V701.688C44.2031 701.078 44.2917 700.513 44.4688 699.992C44.6458 699.466 44.901 699.01 45.2344 698.625C45.5677 698.234 45.9714 697.932 46.4453 697.719C46.9193 697.5 47.4505 697.391 48.0391 697.391C48.6328 697.391 49.1667 697.5 49.6406 697.719C50.1198 697.932 50.526 698.234 50.8594 698.625C51.1979 699.01 51.4557 699.466 51.6328 699.992C51.8099 700.513 51.8984 701.078 51.8984 701.688V701.867C51.8984 702.477 51.8099 703.042 51.6328 703.562C51.4557 704.083 51.1979 704.539 50.8594 704.93C50.526 705.315 50.1224 705.617 49.6484 705.836C49.1797 706.049 48.6484 706.156 48.0547 706.156C47.4609 706.156 46.9271 706.049 46.4531 705.836C45.9792 705.617 45.5729 705.315 45.2344 704.93C44.901 704.539 44.6458 704.083 44.4688 703.562C44.2917 703.042 44.2031 702.477 44.2031 701.867ZM45.6484 701.688V701.867C45.6484 702.289 45.6979 702.688 45.7969 703.062C45.8958 703.432 46.0443 703.76 46.2422 704.047C46.4453 704.333 46.6979 704.56 47 704.727C47.3021 704.888 47.6536 704.969 48.0547 704.969C48.4505 704.969 48.7969 704.888 49.0938 704.727C49.3958 704.56 49.6458 704.333 49.8438 704.047C50.0417 703.76 50.1901 703.432 50.2891 703.062C50.3932 702.688 50.4453 702.289 50.4453 701.867V701.688C50.4453 701.271 50.3932 700.878 50.2891 700.508C50.1901 700.133 50.0391 699.802 49.8359 699.516C49.638 699.224 49.388 698.995 49.0859 698.828C48.7891 698.661 48.4401 698.578 48.0391 698.578C47.6432 698.578 47.2943 698.661 46.9922 698.828C46.6953 698.995 46.4453 699.224 46.2422 699.516C46.0443 699.802 45.8958 700.133 45.7969 700.508C45.6979 700.878 45.6484 701.271 45.6484 701.688ZM59.5391 704.359V694H60.9922V706H59.6641L59.5391 704.359ZM53.8516 701.867V701.703C53.8516 701.057 53.9297 700.471 54.0859 699.945C54.2474 699.414 54.474 698.958 54.7656 698.578C55.0625 698.198 55.4141 697.906 55.8203 697.703C56.2318 697.495 56.6901 697.391 57.1953 697.391C57.7266 697.391 58.1901 697.484 58.5859 697.672C58.987 697.854 59.3255 698.122 59.6016 698.477C59.8828 698.826 60.1042 699.247 60.2656 699.742C60.4271 700.237 60.5391 700.797 60.6016 701.422V702.141C60.5443 702.76 60.4323 703.318 60.2656 703.812C60.1042 704.307 59.8828 704.729 59.6016 705.078C59.3255 705.427 58.987 705.695 58.5859 705.883C58.1849 706.065 57.7161 706.156 57.1797 706.156C56.6849 706.156 56.2318 706.049 55.8203 705.836C55.4141 705.622 55.0625 705.323 54.7656 704.938C54.474 704.552 54.2474 704.099 54.0859 703.578C53.9297 703.052 53.8516 702.482 53.8516 701.867ZM55.3047 701.703V701.867C55.3047 702.289 55.3464 702.685 55.4297 703.055C55.5182 703.424 55.6536 703.75 55.8359 704.031C56.0182 704.312 56.25 704.534 56.5312 704.695C56.8125 704.852 57.1484 704.93 57.5391 704.93C58.0182 704.93 58.4115 704.828 58.7188 704.625C59.0312 704.422 59.2812 704.154 59.4688 703.82C59.6562 703.487 59.8021 703.125 59.9062 702.734V700.852C59.8438 700.565 59.7526 700.289 59.6328 700.023C59.5182 699.753 59.3672 699.513 59.1797 699.305C58.9974 699.091 58.7708 698.922 58.5 698.797C58.2344 698.672 57.9193 698.609 57.5547 698.609C57.1589 698.609 56.8177 698.693 56.5312 698.859C56.25 699.021 56.0182 699.245 55.8359 699.531C55.6536 699.812 55.5182 700.141 55.4297 700.516C55.3464 700.885 55.3047 701.281 55.3047 701.703ZM66.1172 705.125L68.4688 697.547H70.0156L66.625 707.305C66.5469 707.513 66.4427 707.737 66.3125 707.977C66.1875 708.221 66.026 708.453 65.8281 708.672C65.6302 708.891 65.3906 709.068 65.1094 709.203C64.8333 709.344 64.5026 709.414 64.1172 709.414C64.0026 709.414 63.8568 709.398 63.6797 709.367C63.5026 709.336 63.3776 709.31 63.3047 709.289L63.2969 708.117C63.3385 708.122 63.4036 708.128 63.4922 708.133C63.5859 708.143 63.651 708.148 63.6875 708.148C64.0156 708.148 64.2943 708.104 64.5234 708.016C64.7526 707.932 64.9453 707.789 65.1016 707.586C65.263 707.388 65.401 707.115 65.5156 706.766L66.1172 705.125ZM64.3906 697.547L66.5859 704.109L66.9609 705.633L65.9219 706.164L62.8125 697.547H64.3906ZM79.8281 697.547V698.656H75.2578V697.547H79.8281ZM76.8047 695.492H78.25V703.906C78.25 704.193 78.2943 704.409 78.3828 704.555C78.4714 704.701 78.5859 704.797 78.7266 704.844C78.8672 704.891 79.0182 704.914 79.1797 704.914C79.2995 704.914 79.4245 704.904 79.5547 704.883C79.6901 704.857 79.7917 704.836 79.8594 704.82L79.8672 706C79.7526 706.036 79.6016 706.07 79.4141 706.102C79.2318 706.138 79.0104 706.156 78.75 706.156C78.3958 706.156 78.0703 706.086 77.7734 705.945C77.4766 705.805 77.2396 705.57 77.0625 705.242C76.8906 704.909 76.8047 704.461 76.8047 703.898V695.492ZM85.5312 706.156C84.9427 706.156 84.4089 706.057 83.9297 705.859C83.4557 705.656 83.0469 705.372 82.7031 705.008C82.3646 704.643 82.1042 704.211 81.9219 703.711C81.7396 703.211 81.6484 702.664 81.6484 702.07V701.742C81.6484 701.055 81.75 700.443 81.9531 699.906C82.1562 699.365 82.4323 698.906 82.7812 698.531C83.1302 698.156 83.526 697.872 83.9688 697.68C84.4115 697.487 84.8698 697.391 85.3438 697.391C85.9479 697.391 86.4688 697.495 86.9062 697.703C87.349 697.911 87.7109 698.203 87.9922 698.578C88.2734 698.948 88.4818 699.385 88.6172 699.891C88.7526 700.391 88.8203 700.938 88.8203 701.531V702.18H82.5078V701H87.375V700.891C87.3542 700.516 87.276 700.151 87.1406 699.797C87.0104 699.443 86.8021 699.151 86.5156 698.922C86.2292 698.693 85.8385 698.578 85.3438 698.578C85.0156 698.578 84.7135 698.648 84.4375 698.789C84.1615 698.924 83.9245 699.128 83.7266 699.398C83.5286 699.669 83.375 700 83.2656 700.391C83.1562 700.781 83.1016 701.232 83.1016 701.742V702.07C83.1016 702.471 83.1562 702.849 83.2656 703.203C83.3802 703.552 83.5443 703.859 83.7578 704.125C83.9766 704.391 84.2396 704.599 84.5469 704.75C84.8594 704.901 85.2135 704.977 85.6094 704.977C86.1198 704.977 86.5521 704.872 86.9062 704.664C87.2604 704.456 87.5703 704.177 87.8359 703.828L88.7109 704.523C88.5286 704.799 88.2969 705.062 88.0156 705.312C87.7344 705.562 87.388 705.766 86.9766 705.922C86.5703 706.078 86.0885 706.156 85.5312 706.156ZM91.9844 697.547L93.8359 700.625L95.7109 697.547H97.4062L94.6406 701.719L97.4922 706H95.8203L93.8672 702.828L91.9141 706H90.2344L93.0781 701.719L90.3203 697.547H91.9844ZM102.984 697.547V698.656H98.4141V697.547H102.984ZM99.9609 695.492H101.406V703.906C101.406 704.193 101.451 704.409 101.539 704.555C101.628 704.701 101.742 704.797 101.883 704.844C102.023 704.891 102.174 704.914 102.336 704.914C102.456 704.914 102.581 704.904 102.711 704.883C102.846 704.857 102.948 704.836 103.016 704.82L103.023 706C102.909 706.036 102.758 706.07 102.57 706.102C102.388 706.138 102.167 706.156 101.906 706.156C101.552 706.156 101.227 706.086 100.93 705.945C100.633 705.805 100.396 705.57 100.219 705.242C100.047 704.909 99.9609 704.461 99.9609 703.898V695.492Z" fill="#0B1E3D"/>
<defs>
<filter id="filter0_d_4_41" x="30" y="43" width="370" height="66" filterUnits="userSpaceOnUse" color-interpolation-filters="sRGB">
<feFlood flood-opacity="0" result="BackgroundImageFix"/>
<feColorMatrix in="SourceAlpha" type="matrix" values="0 0 0 0 0 0 0 0 0 0 0 0 0 0 0 0 0 0 127 0" result="hardAlpha"/>
<feOffset dy="4"/>
<feGaussianBlur stdDeviation="2"/>
<feComposite in2="hardAlpha" operator="out"/>
<feColorMatrix type="matrix" values="0 0 0 0 0 0 0 0 0 0 0 0 0 0 0 0 0 0 0.25 0"/>
<feBlend mode="normal" in2="BackgroundImageFix" result="effect1_dropShadow_4_41"/>
<feBlend mode="normal" in="SourceGraphic" in2="effect1_dropShadow_4_41" result="shape"/>
</filter>
<filter id="filter1_d_4_41" x="30" y="359" width="370" height="66" filterUnits="userSpaceOnUse" color-interpolation-filters="sRGB">
<feFlood flood-opacity="0" result="BackgroundImageFix"/>
<feColorMatrix in="SourceAlpha" type="matrix" values="0 0 0 0 0 0 0 0 0 0 0 0 0 0 0 0 0 0 127 0" result="hardAlpha"/>
<feOffset dy="4"/>
<feGaussianBlur stdDeviation="2"/>
<feComposite in2="hardAlpha" operator="out"/>
<feColorMatrix type="matrix" values="0 0 0 0 0 0 0 0 0 0 0 0 0 0 0 0 0 0 0.25 0"/>
<feBlend mode="normal" in2="BackgroundImageFix" result="effect1_dropShadow_4_41"/>
<feBlend mode="normal" in="SourceGraphic" in2="effect1_dropShadow_4_41" result="shape"/>
</filter>
<filter id="filter2_d_4_41" x="30" y="438" width="189" height="66" filterUnits="userSpaceOnUse" color-interpolation-filters="sRGB">
<feFlood flood-opacity="0" result="BackgroundImageFix"/>
<feColorMatrix in="SourceAlpha" type="matrix" values="0 0 0 0 0 0 0 0 0 0 0 0 0 0 0 0 0 0 127 0" result="hardAlpha"/>
<feOffset dy="4"/>
<feGaussianBlur stdDeviation="2"/>
<feComposite in2="hardAlpha" operator="out"/>
<feColorMatrix type="matrix" values="0 0 0 0 0 0 0 0 0 0 0 0 0 0 0 0 0 0 0.25 0"/>
<feBlend mode="normal" in2="BackgroundImageFix" result="effect1_dropShadow_4_41"/>
<feBlend mode="normal" in="SourceGraphic" in2="effect1_dropShadow_4_41" result="shape"/>
</filter>
<filter id="filter3_d_4_41" x="30" y="201" width="189" height="66" filterUnits="userSpaceOnUse" color-interpolation-filters="sRGB">
<feFlood flood-opacity="0" result="BackgroundImageFix"/>
<feColorMatrix in="SourceAlpha" type="matrix" values="0 0 0 0 0 0 0 0 0 0 0 0 0 0 0 0 0 0 127 0" result="hardAlpha"/>
<feOffset dy="4"/>
<feGaussianBlur stdDeviation="2"/>
<feComposite in2="hardAlpha" operator="out"/>
<feColorMatrix type="matrix" values="0 0 0 0 0 0 0 0 0 0 0 0 0 0 0 0 0 0 0.25 0"/>
<feBlend mode="normal" in2="BackgroundImageFix" result="effect1_dropShadow_4_41"/>
<feBlend mode="normal" in="SourceGraphic" in2="effect1_dropShadow_4_41" result="shape"/>
</filter>
<filter id="filter4_d_4_41" x="30" y="201" width="189" height="66" filterUnits="userSpaceOnUse" color-interpolation-filters="sRGB">
<feFlood flood-opacity="0" result="BackgroundImageFix"/>
<feColorMatrix in="SourceAlpha" type="matrix" values="0 0 0 0 0 0 0 0 0 0 0 0 0 0 0 0 0 0 127 0" result="hardAlpha"/>
<feOffset dy="4"/>
<feGaussianBlur stdDeviation="2"/>
<feComposite in2="hardAlpha" operator="out"/>
<feColorMatrix type="matrix" values="0 0 0 0 0 0 0 0 0 0 0 0 0 0 0 0 0 0 0.25 0"/>
<feBlend mode="normal" in2="BackgroundImageFix" result="effect1_dropShadow_4_41"/>
<feBlend mode="normal" in="SourceGraphic" in2="effect1_dropShadow_4_41" result="shape"/>
</filter>
<filter id="filter5_d_4_41" x="30" y="280" width="189" height="66" filterUnits="userSpaceOnUse" color-interpolation-filters="sRGB">
<feFlood flood-opacity="0" result="BackgroundImageFix"/>
<feColorMatrix in="SourceAlpha" type="matrix" values="0 0 0 0 0 0 0 0 0 0 0 0 0 0 0 0 0 0 127 0" result="hardAlpha"/>
<feOffset dy="4"/>
<feGaussianBlur stdDeviation="2"/>
<feComposite in2="hardAlpha" operator="out"/>
<feColorMatrix type="matrix" values="0 0 0 0 0 0 0 0 0 0 0 0 0 0 0 0 0 0 0.25 0"/>
<feBlend mode="normal" in2="BackgroundImageFix" result="effect1_dropShadow_4_41"/>
<feBlend mode="normal" in="SourceGraphic" in2="effect1_dropShadow_4_41" result="shape"/>
</filter>
<filter id="filter6_d_4_41" x="30" y="122" width="370" height="66" filterUnits="userSpaceOnUse" color-interpolation-filters="sRGB">
<feFlood flood-opacity="0" result="BackgroundImageFix"/>
<feColorMatrix in="SourceAlpha" type="matrix" values="0 0 0 0 0 0 0 0 0 0 0 0 0 0 0 0 0 0 127 0" result="hardAlpha"/>
<feOffset dy="4"/>
<feGaussianBlur stdDeviation="2"/>
<feComposite in2="hardAlpha" operator="out"/>
<feColorMatrix type="matrix" values="0 0 0 0 0 0 0 0 0 0 0 0 0 0 0 0 0 0 0.25 0"/>
<feBlend mode="normal" in2="BackgroundImageFix" result="effect1_dropShadow_4_41"/>
<feBlend mode="normal" in="SourceGraphic" in2="effect1_dropShadow_4_41" result="shape"/>
</filter>
</defs>
</svg>
