<svg width="430" height="932" viewBox="0 0 430 932" fill="none" xmlns="http://www.w3.org/2000/svg">
<g clip-path="url(#clip0_4_120)">
<rect width="430" height="932" fill="white"/>
<rect x="25" y="26" width="183" height="177" fill="#0B1E3D"/>
<rect x="25" y="26" width="183" height="177" fill="#0B1E3D"/>
<rect x="25" y="440" width="183" height="177" fill="white"/>
<rect x="224" y="440" width="183" height="177" fill="#B0C4DE"/>
<rect x="25" y="647" width="183" height="177" fill="#5A6775"/>
<rect x="224" y="647" width="183" height="177" fill="#E0E6F0"/>
<rect x="224" y="233" width="183" height="177" fill="#2EC4FF"/>
<rect x="25" y="233" width="183" height="177" fill="#6E4AFF"/>
<rect x="224" y="26" width="183" height="177" fill="#FFD66B"/>
<g filter="url(#filter0_dd_4_120)">
<rect x="26" y="854" width="378" height="43" rx="20" fill="#6E4AFF"/>
<rect x="27" y="855" width="376" height="41" rx="19" stroke="#747474" stroke-width="2"/>
<path d="M161.076 877.023C161.076 876.841 161.047 876.68 160.99 876.54C160.936 876.397 160.839 876.268 160.7 876.153C160.564 876.039 160.374 875.93 160.13 875.826C159.89 875.722 159.586 875.616 159.217 875.509C158.831 875.394 158.481 875.267 158.17 875.127C157.858 874.984 157.592 874.821 157.37 874.639C157.148 874.456 156.978 874.247 156.859 874.01C156.741 873.774 156.682 873.504 156.682 873.199C156.682 872.895 156.745 872.614 156.87 872.356C156.995 872.098 157.174 871.874 157.407 871.685C157.644 871.491 157.925 871.341 158.25 871.233C158.576 871.126 158.94 871.072 159.341 871.072C159.928 871.072 160.426 871.185 160.834 871.411C161.246 871.633 161.559 871.924 161.774 872.286C161.989 872.644 162.096 873.027 162.096 873.436H161.065C161.065 873.142 161.002 872.882 160.877 872.657C160.752 872.428 160.562 872.249 160.308 872.12C160.053 871.987 159.731 871.921 159.341 871.921C158.972 871.921 158.668 871.976 158.428 872.087C158.188 872.198 158.009 872.349 157.891 872.539C157.776 872.728 157.719 872.945 157.719 873.188C157.719 873.353 157.753 873.504 157.821 873.64C157.892 873.772 158.002 873.896 158.148 874.01C158.299 874.125 158.489 874.23 158.718 874.327C158.951 874.424 159.228 874.517 159.55 874.606C159.994 874.732 160.377 874.871 160.7 875.025C161.022 875.179 161.287 875.353 161.495 875.546C161.706 875.736 161.862 875.953 161.962 876.196C162.066 876.436 162.118 876.708 162.118 877.013C162.118 877.331 162.053 877.62 161.924 877.877C161.795 878.135 161.611 878.355 161.371 878.538C161.131 878.721 160.843 878.862 160.506 878.962C160.173 879.059 159.801 879.107 159.389 879.107C159.028 879.107 158.671 879.057 158.32 878.957C157.973 878.857 157.656 878.706 157.37 878.506C157.087 878.305 156.859 878.058 156.688 877.765C156.519 877.467 156.435 877.124 156.435 876.733H157.466C157.466 877.002 157.518 877.233 157.622 877.426C157.726 877.616 157.867 877.774 158.046 877.899C158.229 878.024 158.435 878.117 158.664 878.178C158.897 878.236 159.139 878.264 159.389 878.264C159.751 878.264 160.057 878.214 160.308 878.114C160.558 878.014 160.748 877.87 160.877 877.684C161.009 877.498 161.076 877.278 161.076 877.023ZM164.368 873.188V879H163.369V873.188H164.368ZM163.294 871.647C163.294 871.486 163.342 871.35 163.439 871.239C163.539 871.128 163.686 871.072 163.879 871.072C164.069 871.072 164.214 871.128 164.314 871.239C164.418 871.35 164.47 871.486 164.47 871.647C164.47 871.801 164.418 871.933 164.314 872.044C164.214 872.152 164.069 872.206 163.879 872.206C163.686 872.206 163.539 872.152 163.439 872.044C163.342 871.933 163.294 871.801 163.294 871.647ZM169.729 873.188H170.631V878.876C170.631 879.389 170.527 879.825 170.319 880.187C170.112 880.549 169.822 880.823 169.449 881.009C169.08 881.199 168.654 881.293 168.171 881.293C167.97 881.293 167.734 881.261 167.462 881.197C167.193 881.136 166.928 881.03 166.667 880.88C166.409 880.733 166.193 880.534 166.017 880.284L166.538 879.693C166.782 879.986 167.036 880.191 167.301 880.305C167.569 880.42 167.834 880.477 168.096 880.477C168.411 880.477 168.683 880.418 168.912 880.3C169.141 880.182 169.319 880.006 169.444 879.773C169.573 879.544 169.637 879.261 169.637 878.925V874.467L169.729 873.188ZM165.727 876.159V876.046C165.727 875.602 165.779 875.199 165.883 874.837C165.99 874.472 166.142 874.159 166.339 873.897C166.54 873.636 166.782 873.436 167.064 873.296C167.347 873.153 167.666 873.081 168.021 873.081C168.386 873.081 168.704 873.146 168.977 873.274C169.252 873.4 169.485 873.584 169.675 873.828C169.868 874.068 170.02 874.358 170.131 874.698C170.242 875.038 170.319 875.423 170.362 875.853V876.347C170.323 876.773 170.246 877.156 170.131 877.496C170.02 877.836 169.868 878.126 169.675 878.366C169.485 878.606 169.252 878.791 168.977 878.919C168.701 879.045 168.379 879.107 168.01 879.107C167.662 879.107 167.347 879.034 167.064 878.887C166.785 878.74 166.545 878.535 166.345 878.27C166.144 878.005 165.99 877.693 165.883 877.335C165.779 876.973 165.727 876.581 165.727 876.159ZM166.721 876.046V876.159C166.721 876.449 166.749 876.721 166.807 876.975C166.868 877.229 166.959 877.453 167.081 877.646C167.206 877.84 167.365 877.992 167.559 878.103C167.752 878.21 167.983 878.264 168.251 878.264C168.581 878.264 168.853 878.194 169.068 878.055C169.283 877.915 169.453 877.731 169.578 877.501C169.707 877.272 169.807 877.023 169.879 876.755V875.46C169.84 875.264 169.779 875.074 169.696 874.891C169.618 874.705 169.514 874.54 169.385 874.397C169.259 874.25 169.104 874.134 168.917 874.048C168.731 873.962 168.513 873.919 168.262 873.919C167.99 873.919 167.756 873.976 167.559 874.091C167.365 874.202 167.206 874.356 167.081 874.553C166.959 874.746 166.868 874.972 166.807 875.229C166.749 875.484 166.721 875.756 166.721 876.046ZM173.134 874.429V879H172.14V873.188H173.08L173.134 874.429ZM172.897 875.874L172.484 875.858C172.487 875.46 172.547 875.093 172.661 874.757C172.776 874.417 172.937 874.121 173.145 873.871C173.352 873.62 173.599 873.427 173.886 873.291C174.176 873.151 174.496 873.081 174.847 873.081C175.134 873.081 175.391 873.12 175.621 873.199C175.85 873.274 176.045 873.396 176.206 873.564C176.371 873.733 176.496 873.951 176.582 874.22C176.668 874.485 176.711 874.809 176.711 875.192V879H175.712V875.181C175.712 874.877 175.667 874.633 175.578 874.451C175.488 874.264 175.357 874.13 175.186 874.048C175.014 873.962 174.802 873.919 174.552 873.919C174.305 873.919 174.079 873.971 173.875 874.075C173.674 874.179 173.501 874.322 173.354 874.504C173.211 874.687 173.098 874.896 173.016 875.133C172.937 875.366 172.897 875.613 172.897 875.874ZM182.028 873.188V879H181.029V873.188H182.028ZM180.954 871.647C180.954 871.486 181.002 871.35 181.099 871.239C181.199 871.128 181.346 871.072 181.54 871.072C181.729 871.072 181.874 871.128 181.975 871.239C182.078 871.35 182.13 871.486 182.13 871.647C182.13 871.801 182.078 871.933 181.975 872.044C181.874 872.152 181.729 872.206 181.54 872.206C181.346 872.206 181.199 872.152 181.099 872.044C181.002 871.933 180.954 871.801 180.954 871.647ZM184.617 874.429V879H183.624V873.188H184.563L184.617 874.429ZM184.381 875.874L183.967 875.858C183.971 875.46 184.03 875.093 184.145 874.757C184.259 874.417 184.42 874.121 184.628 873.871C184.836 873.62 185.083 873.427 185.369 873.291C185.659 873.151 185.98 873.081 186.331 873.081C186.617 873.081 186.875 873.12 187.104 873.199C187.333 873.274 187.528 873.396 187.689 873.564C187.854 873.733 187.979 873.951 188.065 874.22C188.151 874.485 188.194 874.809 188.194 875.192V879H187.195V875.181C187.195 874.877 187.151 874.633 187.061 874.451C186.972 874.264 186.841 874.13 186.669 874.048C186.497 873.962 186.286 873.919 186.035 873.919C185.788 873.919 185.562 873.971 185.358 874.075C185.158 874.179 184.984 874.322 184.837 874.504C184.694 874.687 184.581 874.896 184.499 875.133C184.42 875.366 184.381 875.613 184.381 875.874ZM198.362 875.106V877.969C198.265 878.112 198.111 878.273 197.9 878.452C197.689 878.628 197.397 878.782 197.024 878.914C196.656 879.043 196.179 879.107 195.596 879.107C195.119 879.107 194.681 879.025 194.28 878.86C193.882 878.692 193.537 878.449 193.243 878.13C192.953 877.808 192.728 877.417 192.566 876.959C192.409 876.497 192.33 875.974 192.33 875.391V874.784C192.33 874.2 192.398 873.679 192.534 873.221C192.674 872.762 192.878 872.374 193.146 872.055C193.415 871.733 193.744 871.489 194.135 871.325C194.525 871.156 194.973 871.072 195.478 871.072C196.076 871.072 196.575 871.176 196.976 871.384C197.381 871.588 197.696 871.871 197.921 872.232C198.151 872.594 198.297 873.006 198.362 873.468H197.325C197.279 873.185 197.186 872.927 197.046 872.694C196.91 872.462 196.715 872.275 196.46 872.136C196.206 871.993 195.879 871.921 195.478 871.921C195.116 871.921 194.803 871.987 194.538 872.12C194.273 872.252 194.054 872.442 193.882 872.689C193.71 872.936 193.582 873.235 193.496 873.586C193.413 873.937 193.372 874.333 193.372 874.773V875.391C193.372 875.842 193.424 876.245 193.528 876.599C193.635 876.954 193.787 877.256 193.984 877.507C194.181 877.754 194.416 877.942 194.688 878.071C194.964 878.2 195.268 878.264 195.601 878.264C195.97 878.264 196.269 878.234 196.498 878.173C196.727 878.108 196.906 878.033 197.035 877.947C197.164 877.858 197.263 877.774 197.331 877.695V875.944H195.521V875.106H198.362ZM203.357 878.006V875.015C203.357 874.785 203.31 874.587 203.217 874.418C203.128 874.247 202.992 874.114 202.809 874.021C202.626 873.928 202.401 873.881 202.132 873.881C201.882 873.881 201.661 873.924 201.472 874.01C201.285 874.096 201.139 874.209 201.031 874.349C200.927 874.488 200.875 874.639 200.875 874.8H199.882C199.882 874.592 199.936 874.386 200.043 874.182C200.15 873.978 200.304 873.794 200.505 873.629C200.709 873.461 200.952 873.328 201.235 873.231C201.522 873.131 201.84 873.081 202.191 873.081C202.614 873.081 202.986 873.153 203.309 873.296C203.634 873.439 203.889 873.656 204.071 873.946C204.257 874.232 204.351 874.592 204.351 875.025V877.732C204.351 877.926 204.367 878.132 204.399 878.35C204.435 878.569 204.487 878.757 204.555 878.914V879H203.518C203.468 878.885 203.429 878.733 203.4 878.543C203.371 878.35 203.357 878.171 203.357 878.006ZM203.529 875.477L203.54 876.175H202.535C202.252 876.175 202 876.198 201.778 876.245C201.556 876.288 201.37 876.354 201.219 876.443C201.069 876.533 200.954 876.646 200.875 876.782C200.797 876.914 200.757 877.07 200.757 877.249C200.757 877.432 200.799 877.598 200.881 877.749C200.963 877.899 201.087 878.019 201.251 878.108C201.42 878.194 201.626 878.237 201.869 878.237C202.174 878.237 202.442 878.173 202.675 878.044C202.908 877.915 203.092 877.757 203.228 877.571C203.368 877.385 203.443 877.204 203.454 877.029L203.878 877.507C203.853 877.657 203.785 877.824 203.674 878.006C203.563 878.189 203.414 878.364 203.228 878.533C203.045 878.697 202.827 878.835 202.573 878.946C202.322 879.054 202.039 879.107 201.724 879.107C201.33 879.107 200.985 879.03 200.688 878.876C200.394 878.722 200.165 878.517 200 878.259C199.839 877.997 199.758 877.706 199.758 877.383C199.758 877.072 199.819 876.798 199.941 876.562C200.063 876.322 200.238 876.123 200.467 875.965C200.696 875.804 200.972 875.682 201.294 875.6C201.617 875.518 201.977 875.477 202.374 875.477H203.529ZM210.243 878.184V879H206.016V878.184H210.243ZM210.087 873.892L206.241 879H205.634V878.27L209.453 873.188H210.087V873.892ZM209.646 873.188V874.01H205.677V873.188H209.646ZM213.696 879.107C213.292 879.107 212.925 879.039 212.595 878.903C212.269 878.764 211.988 878.569 211.752 878.318C211.519 878.067 211.34 877.77 211.215 877.426C211.09 877.083 211.027 876.707 211.027 876.298V876.073C211.027 875.6 211.097 875.179 211.236 874.811C211.376 874.438 211.566 874.123 211.806 873.865C212.046 873.607 212.318 873.412 212.622 873.28C212.926 873.147 213.242 873.081 213.567 873.081C213.983 873.081 214.341 873.153 214.642 873.296C214.946 873.439 215.195 873.64 215.388 873.897C215.582 874.152 215.725 874.452 215.818 874.8C215.911 875.144 215.958 875.52 215.958 875.928V876.374H211.618V875.562H214.964V875.487C214.95 875.229 214.896 874.979 214.803 874.735C214.713 874.492 214.57 874.291 214.373 874.134C214.176 873.976 213.908 873.897 213.567 873.897C213.342 873.897 213.134 873.946 212.944 874.042C212.755 874.136 212.592 874.275 212.456 874.461C212.319 874.648 212.214 874.875 212.139 875.144C212.063 875.412 212.026 875.722 212.026 876.073V876.298C212.026 876.574 212.063 876.834 212.139 877.077C212.217 877.317 212.33 877.528 212.477 877.711C212.627 877.894 212.808 878.037 213.02 878.141C213.234 878.244 213.478 878.296 213.75 878.296C214.101 878.296 214.398 878.225 214.642 878.082C214.885 877.938 215.098 877.747 215.281 877.507L215.882 877.985C215.757 878.175 215.598 878.355 215.404 878.527C215.211 878.699 214.973 878.839 214.69 878.946C214.411 879.054 214.079 879.107 213.696 879.107ZM218.111 874.102V879H217.118V873.188H218.084L218.111 874.102ZM219.927 873.156L219.921 874.08C219.839 874.062 219.76 874.051 219.685 874.048C219.613 874.041 219.531 874.037 219.438 874.037C219.209 874.037 219.007 874.073 218.831 874.145C218.656 874.216 218.507 874.316 218.385 874.445C218.264 874.574 218.167 874.728 218.095 874.907C218.027 875.083 217.982 875.276 217.961 875.487L217.682 875.648C217.682 875.298 217.716 874.968 217.784 874.66C217.855 874.352 217.965 874.08 218.111 873.844C218.258 873.604 218.444 873.418 218.67 873.285C218.899 873.149 219.171 873.081 219.486 873.081C219.558 873.081 219.64 873.09 219.733 873.108C219.826 873.122 219.891 873.138 219.927 873.156ZM226.619 871.873L224.03 879H222.972L225.953 871.18H226.635L226.619 871.873ZM228.789 879L226.195 871.873L226.179 871.18H226.861L229.853 879H228.789ZM228.655 876.105V876.954H224.261V876.105H228.655ZM233.075 878.291C233.312 878.291 233.53 878.243 233.73 878.146C233.931 878.049 234.096 877.917 234.225 877.749C234.354 877.577 234.427 877.382 234.445 877.163H235.39C235.372 877.507 235.256 877.827 235.041 878.125C234.83 878.418 234.552 878.656 234.208 878.839C233.865 879.018 233.487 879.107 233.075 879.107C232.638 879.107 232.257 879.03 231.931 878.876C231.609 878.722 231.34 878.511 231.125 878.243C230.914 877.974 230.755 877.666 230.647 877.319C230.544 876.968 230.492 876.597 230.492 876.207V875.981C230.492 875.591 230.544 875.222 230.647 874.875C230.755 874.524 230.914 874.214 231.125 873.946C231.34 873.677 231.609 873.466 231.931 873.312C232.257 873.158 232.638 873.081 233.075 873.081C233.53 873.081 233.927 873.174 234.268 873.36C234.608 873.543 234.875 873.794 235.068 874.112C235.265 874.427 235.372 874.785 235.39 875.187H234.445C234.427 874.947 234.359 874.73 234.241 874.537C234.126 874.343 233.969 874.189 233.768 874.075C233.571 873.957 233.34 873.897 233.075 873.897C232.771 873.897 232.515 873.958 232.307 874.08C232.103 874.198 231.94 874.359 231.818 874.563C231.7 874.764 231.614 874.988 231.561 875.235C231.51 875.478 231.485 875.727 231.485 875.981V876.207C231.485 876.461 231.51 876.712 231.561 876.959C231.611 877.206 231.695 877.43 231.813 877.63C231.935 877.831 232.098 877.992 232.302 878.114C232.509 878.232 232.767 878.291 233.075 878.291ZM238.833 878.291C239.069 878.291 239.288 878.243 239.488 878.146C239.689 878.049 239.854 877.917 239.982 877.749C240.111 877.577 240.185 877.382 240.203 877.163H241.148C241.13 877.507 241.014 877.827 240.799 878.125C240.588 878.418 240.31 878.656 239.966 878.839C239.623 879.018 239.245 879.107 238.833 879.107C238.396 879.107 238.015 879.03 237.689 878.876C237.367 878.722 237.098 878.511 236.883 878.243C236.672 877.974 236.513 877.666 236.405 877.319C236.301 876.968 236.25 876.597 236.25 876.207V875.981C236.25 875.591 236.301 875.222 236.405 874.875C236.513 874.524 236.672 874.214 236.883 873.946C237.098 873.677 237.367 873.466 237.689 873.312C238.015 873.158 238.396 873.081 238.833 873.081C239.288 873.081 239.685 873.174 240.025 873.36C240.366 873.543 240.632 873.794 240.826 874.112C241.023 874.427 241.13 874.785 241.148 875.187H240.203C240.185 874.947 240.117 874.73 239.999 874.537C239.884 874.343 239.726 874.189 239.526 874.075C239.329 873.957 239.098 873.897 238.833 873.897C238.529 873.897 238.273 873.958 238.065 874.08C237.861 874.198 237.698 874.359 237.576 874.563C237.458 874.764 237.372 874.988 237.318 875.235C237.268 875.478 237.243 875.727 237.243 875.981V876.207C237.243 876.461 237.268 876.712 237.318 876.959C237.368 877.206 237.453 877.43 237.571 877.63C237.693 877.831 237.855 877.992 238.06 878.114C238.267 878.232 238.525 878.291 238.833 878.291ZM242.002 876.159V876.035C242.002 875.616 242.063 875.228 242.185 874.87C242.306 874.508 242.482 874.195 242.711 873.93C242.94 873.661 243.218 873.453 243.543 873.307C243.869 873.156 244.235 873.081 244.639 873.081C245.047 873.081 245.414 873.156 245.74 873.307C246.07 873.453 246.349 873.661 246.578 873.93C246.811 874.195 246.988 874.508 247.11 874.87C247.232 875.228 247.292 875.616 247.292 876.035V876.159C247.292 876.578 247.232 876.966 247.11 877.324C246.988 877.682 246.811 877.996 246.578 878.264C246.349 878.529 246.071 878.737 245.746 878.887C245.423 879.034 245.058 879.107 244.65 879.107C244.242 879.107 243.875 879.034 243.549 878.887C243.223 878.737 242.944 878.529 242.711 878.264C242.482 877.996 242.306 877.682 242.185 877.324C242.063 876.966 242.002 876.578 242.002 876.159ZM242.996 876.035V876.159C242.996 876.449 243.03 876.723 243.098 876.98C243.166 877.235 243.268 877.46 243.404 877.657C243.543 877.854 243.717 878.01 243.925 878.125C244.132 878.236 244.374 878.291 244.65 878.291C244.922 878.291 245.16 878.236 245.364 878.125C245.572 878.01 245.744 877.854 245.88 877.657C246.016 877.46 246.118 877.235 246.186 876.98C246.258 876.723 246.293 876.449 246.293 876.159V876.035C246.293 875.749 246.258 875.478 246.186 875.224C246.118 874.966 246.014 874.739 245.875 874.542C245.738 874.341 245.567 874.184 245.359 874.069C245.155 873.955 244.915 873.897 244.639 873.897C244.367 873.897 244.127 873.955 243.919 874.069C243.715 874.184 243.543 874.341 243.404 874.542C243.268 874.739 243.166 874.966 243.098 875.224C243.03 875.478 242.996 875.749 242.996 876.035ZM252.094 877.657V873.188H253.093V879H252.143L252.094 877.657ZM252.282 876.433L252.696 876.422C252.696 876.809 252.655 877.167 252.572 877.496C252.493 877.822 252.365 878.105 252.186 878.345C252.007 878.585 251.772 878.773 251.482 878.909C251.192 879.041 250.839 879.107 250.424 879.107C250.141 879.107 249.881 879.066 249.645 878.984C249.412 878.902 249.212 878.774 249.043 878.603C248.875 878.431 248.744 878.207 248.651 877.931C248.562 877.655 248.517 877.324 248.517 876.938V873.188H249.511V876.948C249.511 877.21 249.539 877.426 249.597 877.598C249.658 877.766 249.738 877.901 249.838 878.001C249.942 878.098 250.057 878.166 250.182 878.205C250.311 878.244 250.444 878.264 250.58 878.264C251.002 878.264 251.337 878.184 251.584 878.022C251.831 877.858 252.008 877.638 252.116 877.362C252.227 877.083 252.282 876.773 252.282 876.433ZM255.602 874.429V879H254.608V873.188H255.548L255.602 874.429ZM255.365 875.874L254.952 875.858C254.955 875.46 255.014 875.093 255.129 874.757C255.243 874.417 255.405 874.121 255.612 873.871C255.82 873.62 256.067 873.427 256.354 873.291C256.644 873.151 256.964 873.081 257.315 873.081C257.601 873.081 257.859 873.12 258.088 873.199C258.318 873.274 258.513 873.396 258.674 873.564C258.839 873.733 258.964 873.951 259.05 874.22C259.136 874.485 259.179 874.809 259.179 875.192V879H258.18V875.181C258.18 874.877 258.135 874.633 258.045 874.451C257.956 874.264 257.825 874.13 257.653 874.048C257.481 873.962 257.27 873.919 257.02 873.919C256.772 873.919 256.547 873.971 256.343 874.075C256.142 874.179 255.969 874.322 255.822 874.504C255.679 874.687 255.566 874.896 255.483 875.133C255.405 875.366 255.365 875.613 255.365 875.874ZM263.121 873.188V873.951H259.979V873.188H263.121ZM261.042 871.776H262.036V877.561C262.036 877.757 262.067 877.906 262.127 878.006C262.188 878.107 262.267 878.173 262.364 878.205C262.46 878.237 262.564 878.253 262.675 878.253C262.758 878.253 262.844 878.246 262.933 878.232C263.026 878.214 263.096 878.2 263.143 878.189L263.148 879C263.069 879.025 262.965 879.048 262.836 879.07C262.711 879.095 262.559 879.107 262.38 879.107C262.136 879.107 261.913 879.059 261.708 878.962C261.504 878.866 261.341 878.705 261.22 878.479C261.102 878.25 261.042 877.942 261.042 877.555V871.776Z" fill="white"/>
</g>
</g>
<defs>
<filter id="filter0_dd_4_120" x="-10" y="828" width="450" height="115" filterUnits="userSpaceOnUse" color-interpolation-filters="sRGB">
<feFlood flood-opacity="0" result="BackgroundImageFix"/>
<feColorMatrix in="SourceAlpha" type="matrix" values="0 0 0 0 0 0 0 0 0 0 0 0 0 0 0 0 0 0 127 0" result="hardAlpha"/>
<feMorphology radius="1" operator="dilate" in="SourceAlpha" result="effect1_dropShadow_4_120"/>
<feOffset/>
<feComposite in2="hardAlpha" operator="out"/>
<feColorMatrix type="matrix" values="0 0 0 0 0 0 0 0 0 0 0 0 0 0 0 0 0 0 0.06 0"/>
<feBlend mode="normal" in2="BackgroundImageFix" result="effect1_dropShadow_4_120"/>
<feColorMatrix in="SourceAlpha" type="matrix" values="0 0 0 0 0 0 0 0 0 0 0 0 0 0 0 0 0 0 127 0" result="hardAlpha"/>
<feOffset dy="10"/>
<feGaussianBlur stdDeviation="18"/>
<feComposite in2="hardAlpha" operator="out"/>
<feColorMatrix type="matrix" values="0 0 0 0 0 0 0 0 0 0 0 0 0 0 0 0 0 0 0.16 0"/>
<feBlend mode="normal" in2="effect1_dropShadow_4_120" result="effect2_dropShadow_4_120"/>
<feBlend mode="normal" in="SourceGraphic" in2="effect2_dropShadow_4_120" result="shape"/>
</filter>
<clipPath id="clip0_4_120">
<rect width="430" height="932" fill="white"/>
</clipPath>
</defs>
</svg>
